<?xml version="1.0" encoding="UTF-8" standalone="no"?><svg xmlns="http://www.w3.org/2000/svg" xmlns:xlink="http://www.w3.org/1999/xlink" clip-rule="evenodd" stroke-miterlimit="10" viewBox="0 0 1920 1080"><desc>SVG generated by Keynote</desc><defs></defs><g transform="matrix(1.00, 0.00, -0.00, -1.00, 0.0, 1080.0)"><path d="M 0.0 1080.0 L 1920.0 1080.0 L 1920.0 0.0 L 0.0 0.0 Z M 0.0 1080.0 " fill="#000000"></path><image xlink:href="../../69BB1A0B-65D1-4BF8-B1E7-C23CB3BAB16D/assets/6BCF1F6ADE1D588377AA318DCD8AD2CF.jpeg" width="1440.00" height="810.00" transform="matrix(1.33, 0.00, -0.00, -1.33, 1.0, 1080.0)"></image><g><clipPath id="clip0x6080008b3b60"><path d="M -1.0 704.0 L 626.0 704.0 L 626.0 376.0 L -1.0 376.0 Z M -1.5 704.0 "></path></clipPath><g clip-path="url(#clip0x6080008b3b60)"><image xlink:href="../../69BB1A0B-65D1-4BF8-B1E7-C23CB3BAB16D/assets/851B10C36865ABDE55C6F1C3D8A6D490.jpeg" width="1440.00" height="810.00" transform="matrix(1.35, 0.00, -0.00, -1.35, -8.0, 1085.0)"></image></g></g><path d="M 625.0 702.0 L 1919.0 702.0 L 1919.0 377.0 L 625.0 377.0 Z M 625.0 702.5 " fill="#FEFFFE"></path><text xml:space="preserve" font-family="Avenir-Light,Avenir" font-size="51.0" fill="#000000" transform="matrix(1.00, 0.00, -0.00, -1.00, 661.8, 513.3)">K</text><text xml:space="preserve" font-family="Avenir-Light,Avenir" font-size="51.0" fill="#000000" transform="matrix(1.00, 0.00, -0.00, -1.00, 701.1, 513.3)">E</text><text xml:space="preserve" font-family="Avenir-Light,Avenir" font-size="51.0" fill="#000000" transform="matrix(1.00, 0.00, -0.00, -1.00, 739.5, 513.3)">Y</text><text xml:space="preserve" font-family="Avenir-Light,Avenir" font-size="51.0" fill="#000000" transform="matrix(1.00, 0.00, -0.00, -1.00, 777.0, 513.3)"> </text><text xml:space="preserve" font-family="Avenir-Light,Avenir" font-size="51.0" fill="#000000" transform="matrix(1.00, 0.00, -0.00, -1.00, 798.4, 513.3)">C</text><text xml:space="preserve" font-family="Avenir-Light,Avenir" font-size="51.0" fill="#000000" transform="matrix(1.00, 0.00, -0.00, -1.00, 842.5, 513.3)">O</text><text xml:space="preserve" font-family="Avenir-Light,Avenir" font-size="51.0" fill="#000000" transform="matrix(1.00, 0.00, -0.00, -1.00, 893.1, 513.3)">N</text><text xml:space="preserve" font-family="Avenir-Light,Avenir" font-size="51.0" fill="#000000" transform="matrix(1.00, 0.00, -0.00, -1.00, 941.0, 513.3)">C</text><text xml:space="preserve" font-family="Avenir-Light,Avenir" font-size="51.0" fill="#000000" transform="matrix(1.00, 0.00, -0.00, -1.00, 985.0, 513.3)">E</text><text xml:space="preserve" font-family="Avenir-Light,Avenir" font-size="51.0" fill="#000000" transform="matrix(1.00, 0.00, -0.00, -1.00, 1023.5, 513.3)">P</text><text xml:space="preserve" font-family="Avenir-Light,Avenir" font-size="51.0" fill="#000000" transform="matrix(1.00, 0.00, -0.00, -1.00, 1060.9, 513.3)">T</text><text xml:space="preserve" font-family="Avenir-Light,Avenir" font-size="51.0" fill="#000000" transform="matrix(1.00, 0.00, -0.00, -1.00, 1098.3, 513.3)">S</text><text xml:space="preserve" font-family="Avenir-Light,Avenir" font-size="51.0" fill="#000000" transform="matrix(1.00, 0.00, -0.00, -1.00, 1134.8, 513.3)"> </text><text xml:space="preserve" font-family="Avenir-Light,Avenir" font-size="51.0" fill="#000000" transform="matrix(1.00, 0.00, -0.00, -1.00, 1156.3, 513.3)">I</text><text xml:space="preserve" font-family="Avenir-Light,Avenir" font-size="51.0" fill="#000000" transform="matrix(1.00, 0.00, -0.00, -1.00, 1177.7, 513.3)">N</text><text xml:space="preserve" font-family="Avenir-Light,Avenir" font-size="51.0" fill="#000000" transform="matrix(1.00, 0.00, -0.00, -1.00, 1225.5, 513.3)"> </text><text xml:space="preserve" font-family="Avenir-Light,Avenir" font-size="51.0" fill="#000000" transform="matrix(1.00, 0.00, -0.00, -1.00, 1246.9, 513.3)">R</text><text xml:space="preserve" font-family="Avenir-Light,Avenir" font-size="51.0" fill="#000000" transform="matrix(1.00, 0.00, -0.00, -1.00, 1285.3, 513.3)">E</text><text xml:space="preserve" font-family="Avenir-Light,Avenir" font-size="51.0" fill="#000000" transform="matrix(1.00, 0.00, -0.00, -1.00, 1323.7, 513.3)">S</text><text xml:space="preserve" font-family="Avenir-Light,Avenir" font-size="51.0" fill="#000000" transform="matrix(1.00, 0.00, -0.00, -1.00, 1360.3, 513.3)">P</text><text xml:space="preserve" font-family="Avenir-Light,Avenir" font-size="51.0" fill="#000000" transform="matrix(1.00, 0.00, -0.00, -1.00, 1397.7, 513.3)">O</text><text xml:space="preserve" font-family="Avenir-Light,Avenir" font-size="51.0" fill="#000000" transform="matrix(1.00, 0.00, -0.00, -1.00, 1448.4, 513.3)">N</text><text xml:space="preserve" font-family="Avenir-Light,Avenir" font-size="51.0" fill="#000000" transform="matrix(1.00, 0.00, -0.00, -1.00, 1496.2, 513.3)">S</text><text xml:space="preserve" font-family="Avenir-Light,Avenir" font-size="51.0" fill="#000000" transform="matrix(1.00, 0.00, -0.00, -1.00, 1532.7, 513.3)">I</text><text xml:space="preserve" font-family="Avenir-Light,Avenir" font-size="51.0" fill="#000000" transform="matrix(1.00, 0.00, -0.00, -1.00, 1554.2, 513.3)">V</text><text xml:space="preserve" font-family="Avenir-Light,Avenir" font-size="51.0" fill="#000000" transform="matrix(1.00, 0.00, -0.00, -1.00, 1592.6, 513.3)">E</text><text xml:space="preserve" font-family="Avenir-Light,Avenir" font-size="51.0" fill="#000000" transform="matrix(1.00, 0.00, -0.00, -1.00, 1631.0, 513.3)"> </text><text xml:space="preserve" font-family="Avenir-Light,Avenir" font-size="51.0" fill="#000000" transform="matrix(1.00, 0.00, -0.00, -1.00, 1652.4, 513.3)">D</text><text xml:space="preserve" font-family="Avenir-Light,Avenir" font-size="51.0" fill="#000000" transform="matrix(1.00, 0.00, -0.00, -1.00, 1698.3, 513.3)">E</text><text xml:space="preserve" font-family="Avenir-Light,Avenir" font-size="51.0" fill="#000000" transform="matrix(1.00, 0.00, -0.00, -1.00, 1736.7, 513.3)">S</text><text xml:space="preserve" font-family="Avenir-Light,Avenir" font-size="51.0" fill="#000000" transform="matrix(1.00, 0.00, -0.00, -1.00, 1773.3, 513.3)">I</text><text xml:space="preserve" font-family="Avenir-Light,Avenir" font-size="51.0" fill="#000000" transform="matrix(1.00, 0.00, -0.00, -1.00, 1794.7, 513.3)">G</text><text xml:space="preserve" font-family="Avenir-Light,Avenir" font-size="51.0" fill="#000000" transform="matrix(1.00, 0.00, -0.00, -1.00, 1842.5, 513.3)">N</text><text xml:space="preserve" font-family="Avenir-Light,Avenir" font-size="51.0" fill="#000000" transform="matrix(1.00, 0.00, -0.00, -1.00, 1890.4, 513.3)"> </text><text xml:space="preserve" font-family="Avenir-Light,Avenir" font-size="51.0" fill="#000000" transform="matrix(1.00, 0.00, -0.00, -1.00, 1911.8, 513.3)"> </text><text xml:space="preserve" font-family="Avenir-Light,Avenir" font-size="51.0" fill="#000000" transform="matrix(1.00, 0.00, -0.00, -1.00, 661.8, 443.3)">B</text><text xml:space="preserve" font-family="Avenir-Light,Avenir" font-size="51.0" fill="#000000" transform="matrix(1.00, 0.00, -0.00, -1.00, 702.1, 443.3)">R</text><text xml:space="preserve" font-family="Avenir-Light,Avenir" font-size="51.0" fill="#000000" transform="matrix(1.00, 0.00, -0.00, -1.00, 740.5, 443.3)">E</text><text xml:space="preserve" font-family="Avenir-Light,Avenir" font-size="51.0" fill="#000000" transform="matrix(1.00, 0.00, -0.00, -1.00, 778.9, 443.3)">A</text><text xml:space="preserve" font-family="Avenir-Light,Avenir" font-size="51.0" fill="#000000" transform="matrix(1.00, 0.00, -0.00, -1.00, 822.0, 443.3)">K</text><text xml:space="preserve" font-family="Avenir-Light,Avenir" font-size="51.0" fill="#000000" transform="matrix(1.00, 0.00, -0.00, -1.00, 861.3, 443.3)">P</text><text xml:space="preserve" font-family="Avenir-Light,Avenir" font-size="51.0" fill="#000000" transform="matrix(1.00, 0.00, -0.00, -1.00, 898.8, 443.3)">O</text><text xml:space="preserve" font-family="Avenir-Light,Avenir" font-size="51.0" fill="#000000" transform="matrix(1.00, 0.00, -0.00, -1.00, 949.5, 443.3)">I</text><text xml:space="preserve" font-family="Avenir-Light,Avenir" font-size="51.0" fill="#000000" transform="matrix(1.00, 0.00, -0.00, -1.00, 970.9, 443.3)">N</text><text xml:space="preserve" font-family="Avenir-Light,Avenir" font-size="51.0" fill="#000000" transform="matrix(1.00, 0.00, -0.00, -1.00, 1018.7, 443.3)">T</text><text xml:space="preserve" font-family="Avenir-Light,Avenir" font-size="51.0" fill="#000000" transform="matrix(1.00, 0.00, -0.00, -1.00, 1056.1, 443.3)">S</text><text xml:space="preserve" font-family="Avenir-Light,Avenir" font-size="51.0" fill="#000000" transform="matrix(1.00, 0.00, -0.00, -1.00, 1092.7, 443.3)"> </text><text xml:space="preserve" font-family="Avenir-Light,Avenir" font-size="51.0" fill="#000000" transform="matrix(1.00, 0.00, -0.00, -1.00, 1114.1, 443.3)">A</text><text xml:space="preserve" font-family="Avenir-Light,Avenir" font-size="51.0" fill="#000000" transform="matrix(1.00, 0.00, -0.00, -1.00, 1157.2, 443.3)">N</text><text xml:space="preserve" font-family="Avenir-Light,Avenir" font-size="51.0" fill="#000000" transform="matrix(1.00, 0.00, -0.00, -1.00, 1205.0, 443.3)">D</text><text xml:space="preserve" font-family="Avenir-Light,Avenir" font-size="51.0" fill="#000000" transform="matrix(1.00, 0.00, -0.00, -1.00, 1251.0, 443.3)"> </text><text xml:space="preserve" font-family="Avenir-Light,Avenir" font-size="51.0" fill="#000000" transform="matrix(1.00, 0.00, -0.00, -1.00, 1272.4, 443.3)">"</text><text xml:space="preserve" font-family="Avenir-Light,Avenir" font-size="51.0" fill="#000000" transform="matrix(1.00, 0.00, -0.00, -1.00, 1307.1, 443.3)">T</text><text xml:space="preserve" font-family="Avenir-Light,Avenir" font-size="51.0" fill="#000000" transform="matrix(1.00, 0.00, -0.00, -1.00, 1344.5, 443.3)">H</text><text xml:space="preserve" font-family="Avenir-Light,Avenir" font-size="51.0" fill="#000000" transform="matrix(1.00, 0.00, -0.00, -1.00, 1389.5, 443.3)">E</text><text xml:space="preserve" font-family="Avenir-Light,Avenir" font-size="51.0" fill="#000000" transform="matrix(1.00, 0.00, -0.00, -1.00, 1427.9, 443.3)"> </text><text xml:space="preserve" font-family="Avenir-Light,Avenir" font-size="51.0" fill="#000000" transform="matrix(1.00, 0.00, -0.00, -1.00, 1449.3, 443.3)">G</text><text xml:space="preserve" font-family="Avenir-Light,Avenir" font-size="51.0" fill="#000000" transform="matrix(1.00, 0.00, -0.00, -1.00, 1497.1, 443.3)">R</text><text xml:space="preserve" font-family="Avenir-Light,Avenir" font-size="51.0" fill="#000000" transform="matrix(1.00, 0.00, -0.00, -1.00, 1535.5, 443.3)">I</text><text xml:space="preserve" font-family="Avenir-Light,Avenir" font-size="51.0" fill="#000000" transform="matrix(1.00, 0.00, -0.00, -1.00, 1557.0, 443.3)">D</text><text xml:space="preserve" font-family="Avenir-Light,Avenir" font-size="51.0" fill="#000000" transform="matrix(1.00, 0.00, -0.00, -1.00, 1602.9, 443.3)">"</text><g><clipPath id="clip0x600000eb7dc0"><path d="M 650.9 609.3 L 1920.0 609.3 L 1920.0 696.1 L 650.9 696.1 Z M 650.9 609.3 "></path></clipPath><g clip-path="url(#clip0x600000eb7dc0)"><text xml:space="preserve" font-family="Avenir-Book,Avenir" font-size="32.0" fill="#000000" transform="matrix(1.00, 0.00, -0.00, -1.00, 661.8, 620.8)">B</text><text xml:space="preserve" font-family="Avenir-Book,Avenir" font-size="32.0" fill="#000000" transform="matrix(1.00, 0.00, -0.00, -1.00, 687.1, 620.8)">R</text><text xml:space="preserve" font-family="Avenir-Book,Avenir" font-size="32.0" fill="#000000" transform="matrix(1.00, 0.00, -0.00, -1.00, 711.2, 620.8)">A</text><text xml:space="preserve" font-family="Avenir-Book,Avenir" font-size="32.0" fill="#000000" transform="matrix(1.00, 0.00, -0.00, -1.00, 738.3, 620.8)">D</text><text xml:space="preserve" font-family="Avenir-Book,Avenir" font-size="32.0" fill="#000000" transform="matrix(1.00, 0.00, -0.00, -1.00, 767.1, 620.8)">E</text><text xml:space="preserve" font-family="Avenir-Book,Avenir" font-size="32.0" fill="#000000" transform="matrix(1.00, 0.00, -0.00, -1.00, 791.2, 620.8)">N</text><text xml:space="preserve" font-family="Avenir-Book,Avenir" font-size="32.0" fill="#000000" transform="matrix(1.00, 0.00, -0.00, -1.00, 821.2, 620.8)"> </text><text xml:space="preserve" font-family="Avenir-Book,Avenir" font-size="32.0" fill="#000000" transform="matrix(1.00, 0.00, -0.00, -1.00, 835.2, 620.8)">R</text><text xml:space="preserve" font-family="Avenir-Book,Avenir" font-size="32.0" fill="#000000" transform="matrix(1.00, 0.00, -0.00, -1.00, 859.3, 620.8)">O</text><text xml:space="preserve" font-family="Avenir-Book,Avenir" font-size="32.0" fill="#000000" transform="matrix(1.00, 0.00, -0.00, -1.00, 891.1, 620.8)">S</text><text xml:space="preserve" font-family="Avenir-Book,Avenir" font-size="32.0" fill="#000000" transform="matrix(1.00, 0.00, -0.00, -1.00, 914.0, 620.8)">E</text><text xml:space="preserve" font-family="Avenir-Book,Avenir" font-size="32.0" fill="#000000" transform="matrix(1.00, 0.00, -0.00, -1.00, 938.1, 620.8)">B</text><text xml:space="preserve" font-family="Avenir-Book,Avenir" font-size="32.0" fill="#000000" transform="matrix(1.00, 0.00, -0.00, -1.00, 963.4, 620.8)">O</text><text xml:space="preserve" font-family="Avenir-Book,Avenir" font-size="32.0" fill="#000000" transform="matrix(1.00, 0.00, -0.00, -1.00, 995.2, 620.8)">R</text><text xml:space="preserve" font-family="Avenir-Book,Avenir" font-size="32.0" fill="#000000" transform="matrix(1.00, 0.00, -0.00, -1.00, 1019.3, 620.8)">O</text><text xml:space="preserve" font-family="Avenir-Book,Avenir" font-size="32.0" fill="#000000" transform="matrix(1.00, 0.00, -0.00, -1.00, 1051.1, 620.8)">U</text><text xml:space="preserve" font-family="Avenir-Book,Avenir" font-size="32.0" fill="#000000" transform="matrix(1.00, 0.00, -0.00, -1.00, 1078.2, 620.8)">G</text><text xml:space="preserve" font-family="Avenir-Book,Avenir" font-size="32.0" fill="#000000" transform="matrix(1.00, 0.00, -0.00, -1.00, 1108.2, 620.8)">H</text><text xml:space="preserve" font-family="Avenir-Book,Avenir" font-size="32.0" fill="#000000" transform="matrix(1.00, 0.00, -0.00, -1.00, 1136.4, 620.8)"> </text><text xml:space="preserve" font-family="Avenir-Book,Avenir" font-size="32.0" fill="#000000" transform="matrix(1.00, 0.00, -0.00, -1.00, 1150.5, 620.8)">-</text><text xml:space="preserve" font-family="Avenir-Book,Avenir" font-size="32.0" fill="#000000" transform="matrix(1.00, 0.00, -0.00, -1.00, 1166.2, 620.8)"> </text><text xml:space="preserve" font-family="Avenir-Book,Avenir" font-size="32.0" fill="#000000" transform="matrix(1.00, 0.00, -0.00, -1.00, 1180.2, 620.8)">A</text><text xml:space="preserve" font-family="Avenir-Book,Avenir" font-size="32.0" fill="#000000" transform="matrix(1.00, 0.00, -0.00, -1.00, 1207.3, 620.8)">M</text><text xml:space="preserve" font-family="Avenir-Book,Avenir" font-size="32.0" fill="#000000" transform="matrix(1.00, 0.00, -0.00, -1.00, 1240.9, 620.8)">A</text><text xml:space="preserve" font-family="Avenir-Book,Avenir" font-size="32.0" fill="#000000" transform="matrix(1.00, 0.00, -0.00, -1.00, 1268.0, 620.8)">Z</text><text xml:space="preserve" font-family="Avenir-Book,Avenir" font-size="32.0" fill="#000000" transform="matrix(1.00, 0.00, -0.00, -1.00, 1290.9, 620.8)">O</text><text xml:space="preserve" font-family="Avenir-Book,Avenir" font-size="32.0" fill="#000000" transform="matrix(1.00, 0.00, -0.00, -1.00, 1322.7, 620.8)">N</text><text xml:space="preserve" font-family="Avenir-Book,Avenir" font-size="32.0" fill="#000000" transform="matrix(1.00, 0.00, -0.00, -1.00, 1352.7, 620.8)"> </text><text xml:space="preserve" font-family="Avenir-Book,Avenir" font-size="32.0" fill="#000000" transform="matrix(1.00, 0.00, -0.00, -1.00, 1366.7, 620.8)">H</text><text xml:space="preserve" font-family="Avenir-Book,Avenir" font-size="32.0" fill="#000000" transform="matrix(1.00, 0.00, -0.00, -1.00, 1395.0, 620.8)">I</text><text xml:space="preserve" font-family="Avenir-Book,Avenir" font-size="32.0" fill="#000000" transform="matrix(1.00, 0.00, -0.00, -1.00, 1408.5, 620.8)">R</text><text xml:space="preserve" font-family="Avenir-Book,Avenir" font-size="32.0" fill="#000000" transform="matrix(1.00, 0.00, -0.00, -1.00, 1432.6, 620.8)">E</text></g></g><path d="M -0.4 -0.2 L 1214.6 -0.2 " fill="none" stroke="#BFBFBF" stroke-width="2.00" transform="matrix(1.00, 0.00, 0.00, -1.00, 664.4, 588.8)"></path></g></svg>