<?xml version="1.0" encoding="UTF-8" standalone="no"?><svg xmlns="http://www.w3.org/2000/svg" xmlns:xlink="http://www.w3.org/1999/xlink" clip-rule="evenodd" stroke-miterlimit="10" viewBox="0 0 1920 1080"><desc>SVG generated by Keynote</desc><defs></defs><g transform="matrix(1.00, 0.00, -0.00, -1.00, 0.0, 1080.0)"><path d="M 0.0 1080.0 L 1920.0 1080.0 L 1920.0 0.0 L 0.0 0.0 Z M 0.0 1080.0 " fill="#000000"></path><image xlink:href="../../69BB1A0B-65D1-4BF8-B1E7-C23CB3BAB16D/assets/6BCF1F6ADE1D588377AA318DCD8AD2CF.jpeg" width="1440.00" height="810.00" transform="matrix(1.33, 0.00, -0.00, -1.33, 1.0, 1080.0)"></image><g><clipPath id="clip0x6100008b8900"><path d="M -3.0 1079.0 L 1924.0 1079.0 L 1924.0 1.0 L -3.0 1.0 Z M -3.0 1079.1 "></path></clipPath><g clip-path="url(#clip0x6100008b8900)"><image xlink:href="../../69BB1A0B-65D1-4BF8-B1E7-C23CB3BAB16D/assets/851B10C36865ABDE55C6F1C3D8A6D490.jpeg" width="1440.00" height="810.00" transform="matrix(1.35, 0.00, -0.00, -1.35, -8.0, 1085.0)"></image></g></g><path d="M 2.0 1079.0 L 1919.0 1079.0 L 1919.0 1.0 L 2.0 1.0 Z M 2.0 1079.5 " fill="#ECECEC"></path><text xml:space="preserve" font-family="Avenir-Light,Avenir" font-size="56.0" fill="#E45079" transform="matrix(1.00, 0.00, -0.00, -1.00, 532.8, 727.7)">#</text><text xml:space="preserve" font-family="Avenir-Light,Avenir" font-size="56.0" fill="#E45079" transform="matrix(1.00, 0.00, -0.00, -1.00, 562.0, 727.7)">M</text><text xml:space="preserve" font-family="Avenir-Light,Avenir" font-size="56.0" fill="#E45079" transform="matrix(1.00, 0.00, -0.00, -1.00, 611.7, 727.7)">y</text><text xml:space="preserve" font-family="Avenir-Light,Avenir" font-size="56.0" fill="#E45079" transform="matrix(1.00, 0.00, -0.00, -1.00, 637.7, 727.7)">E</text><text xml:space="preserve" font-family="Avenir-Light,Avenir" font-size="56.0" fill="#E45079" transform="matrix(1.00, 0.00, -0.00, -1.00, 670.9, 727.7)">l</text><text xml:space="preserve" font-family="Avenir-Light,Avenir" font-size="56.0" fill="#E45079" transform="matrix(1.00, 0.00, -0.00, -1.00, 684.3, 727.7)">e</text><text xml:space="preserve" font-family="Avenir-Light,Avenir" font-size="56.0" fill="#E45079" transform="matrix(1.00, 0.00, -0.00, -1.00, 715.5, 727.7)">m</text><text xml:space="preserve" font-family="Avenir-Light,Avenir" font-size="56.0" fill="#E45079" transform="matrix(1.00, 0.00, -0.00, -1.00, 763.2, 727.7)">e</text><text xml:space="preserve" font-family="Avenir-Light,Avenir" font-size="56.0" fill="#E45079" transform="matrix(1.00, 0.00, -0.00, -1.00, 794.3, 727.7)">n</text><text xml:space="preserve" font-family="Avenir-Light,Avenir" font-size="56.0" fill="#E45079" transform="matrix(1.00, 0.00, -0.00, -1.00, 825.4, 727.7)">t</text><text xml:space="preserve" font-family="Avenir-Light,Avenir" font-size="56.0" fill="#E45079" transform="matrix(1.00, 0.00, -0.00, -1.00, 844.1, 727.7)"> </text><text xml:space="preserve" font-family="Avenir-Light,Avenir" font-size="56.0" fill="#E45079" transform="matrix(1.00, 0.00, -0.00, -1.00, 858.7, 727.7)">{</text><text xml:space="preserve" font-family="Avenir-Light,Avenir" font-size="56.0" fill="#E45079" transform="matrix(1.00, 0.00, -0.00, -1.00, 877.3, 727.7)"> </text><text xml:space="preserve" font-family="Avenir-Light,Avenir" font-size="56.0" fill="#8D4EBD" transform="matrix(1.00, 0.00, -0.00, -1.00, 532.8, 651.7)"> </text><text xml:space="preserve" font-family="Avenir-Light,Avenir" font-size="56.0" fill="#8D4EBD" transform="matrix(1.00, 0.00, -0.00, -1.00, 547.4, 651.7)"> </text><text xml:space="preserve" font-family="Avenir-Light,Avenir" font-size="56.0" fill="#8D4EBD" transform="matrix(1.00, 0.00, -0.00, -1.00, 562.0, 651.7)"> </text><text xml:space="preserve" font-family="Avenir-Light,Avenir" font-size="56.0" fill="#8D4EBD" transform="matrix(1.00, 0.00, -0.00, -1.00, 576.5, 651.7)"> </text><text xml:space="preserve" font-family="Avenir-Light,Avenir" font-size="56.0" fill="#8D4EBD" transform="matrix(1.00, 0.00, -0.00, -1.00, 591.1, 651.7)">b</text><text xml:space="preserve" font-family="Avenir-Light,Avenir" font-size="56.0" fill="#8D4EBD" transform="matrix(1.00, 0.00, -0.00, -1.00, 625.3, 651.7)">a</text><text xml:space="preserve" font-family="Avenir-Light,Avenir" font-size="56.0" fill="#8D4EBD" transform="matrix(1.00, 0.00, -0.00, -1.00, 654.4, 651.7)">c</text><text xml:space="preserve" font-family="Avenir-Light,Avenir" font-size="56.0" fill="#8D4EBD" transform="matrix(1.00, 0.00, -0.00, -1.00, 681.3, 651.7)">k</text><text xml:space="preserve" font-family="Avenir-Light,Avenir" font-size="56.0" fill="#8D4EBD" transform="matrix(1.00, 0.00, -0.00, -1.00, 708.2, 651.7)">g</text><text xml:space="preserve" font-family="Avenir-Light,Avenir" font-size="56.0" fill="#8D4EBD" transform="matrix(1.00, 0.00, -0.00, -1.00, 742.5, 651.7)">r</text><text xml:space="preserve" font-family="Avenir-Light,Avenir" font-size="56.0" fill="#8D4EBD" transform="matrix(1.00, 0.00, -0.00, -1.00, 760.1, 651.7)">o</text><text xml:space="preserve" font-family="Avenir-Light,Avenir" font-size="56.0" fill="#8D4EBD" transform="matrix(1.00, 0.00, -0.00, -1.00, 793.4, 651.7)">u</text><text xml:space="preserve" font-family="Avenir-Light,Avenir" font-size="56.0" fill="#8D4EBD" transform="matrix(1.00, 0.00, -0.00, -1.00, 824.5, 651.7)">n</text><text xml:space="preserve" font-family="Avenir-Light,Avenir" font-size="56.0" fill="#8D4EBD" transform="matrix(1.00, 0.00, -0.00, -1.00, 855.6, 651.7)">d</text><text xml:space="preserve" font-family="Avenir-Light,Avenir" font-size="56.0" fill="#8D4EBD" transform="matrix(1.00, 0.00, -0.00, -1.00, 889.8, 651.7)">:</text><text xml:space="preserve" font-family="Avenir-Light,Avenir" font-size="56.0" fill="#8D4EBD" transform="matrix(1.00, 0.00, -0.00, -1.00, 904.4, 651.7)"> </text><text xml:space="preserve" font-family="Avenir-Light,Avenir" font-size="56.0" fill="#8D4EBD" transform="matrix(1.00, 0.00, -0.00, -1.00, 919.0, 651.7)">b</text><text xml:space="preserve" font-family="Avenir-Light,Avenir" font-size="56.0" fill="#8D4EBD" transform="matrix(1.00, 0.00, -0.00, -1.00, 953.2, 651.7)">l</text><text xml:space="preserve" font-family="Avenir-Light,Avenir" font-size="56.0" fill="#8D4EBD" transform="matrix(1.00, 0.00, -0.00, -1.00, 966.6, 651.7)">a</text><text xml:space="preserve" font-family="Avenir-Light,Avenir" font-size="56.0" fill="#8D4EBD" transform="matrix(1.00, 0.00, -0.00, -1.00, 995.7, 651.7)">c</text><text xml:space="preserve" font-family="Avenir-Light,Avenir" font-size="56.0" fill="#8D4EBD" transform="matrix(1.00, 0.00, -0.00, -1.00, 1022.6, 651.7)">k</text><text xml:space="preserve" font-family="Avenir-Light,Avenir" font-size="56.0" fill="#8D4EBD" transform="matrix(1.00, 0.00, -0.00, -1.00, 1049.6, 651.7)">;</text><text xml:space="preserve" font-family="Avenir-Light,Avenir" font-size="56.0" fill="#8D4EBD" transform="matrix(1.00, 0.00, -0.00, -1.00, 1064.1, 651.7)"> </text><text xml:space="preserve" font-family="Avenir-Light,Avenir" font-size="56.0" fill="#000000" transform="matrix(1.00, 0.00, -0.00, -1.00, 532.8, 545.3)"> </text><text xml:space="preserve" font-family="Avenir-Light,Avenir" font-size="56.0" fill="#000000" transform="matrix(1.00, 0.00, -0.00, -1.00, 578.8, 545.3)">@</text><text xml:space="preserve" font-family="Avenir-Light,Avenir" font-size="56.0" fill="#000000" transform="matrix(1.00, 0.00, -0.00, -1.00, 623.6, 545.3)">i</text><text xml:space="preserve" font-family="Avenir-Light,Avenir" font-size="56.0" fill="#000000" transform="matrix(1.00, 0.00, -0.00, -1.00, 637.1, 545.3)">n</text><text xml:space="preserve" font-family="Avenir-Light,Avenir" font-size="56.0" fill="#000000" transform="matrix(1.00, 0.00, -0.00, -1.00, 668.2, 545.3)">c</text><text xml:space="preserve" font-family="Avenir-Light,Avenir" font-size="56.0" fill="#000000" transform="matrix(1.00, 0.00, -0.00, -1.00, 695.2, 545.3)">l</text><text xml:space="preserve" font-family="Avenir-Light,Avenir" font-size="56.0" fill="#000000" transform="matrix(1.00, 0.00, -0.00, -1.00, 708.6, 545.3)">u</text><text xml:space="preserve" font-family="Avenir-Light,Avenir" font-size="56.0" fill="#000000" transform="matrix(1.00, 0.00, -0.00, -1.00, 739.7, 545.3)">d</text><text xml:space="preserve" font-family="Avenir-Light,Avenir" font-size="56.0" fill="#000000" transform="matrix(1.00, 0.00, -0.00, -1.00, 773.9, 545.3)">e</text><text xml:space="preserve" font-family="Avenir-Light,Avenir" font-size="56.0" fill="#000000" transform="matrix(1.00, 0.00, -0.00, -1.00, 805.1, 545.3)"> </text><text xml:space="preserve" font-family="Avenir-Light,Avenir" font-size="56.0" fill="#000000" transform="matrix(1.00, 0.00, -0.00, -1.00, 819.6, 545.3)">b</text><text xml:space="preserve" font-family="Avenir-Light,Avenir" font-size="56.0" fill="#000000" transform="matrix(1.00, 0.00, -0.00, -1.00, 853.9, 545.3)">r</text><text xml:space="preserve" font-family="Avenir-Light,Avenir" font-size="56.0" fill="#000000" transform="matrix(1.00, 0.00, -0.00, -1.00, 871.5, 545.3)">e</text><text xml:space="preserve" font-family="Avenir-Light,Avenir" font-size="56.0" fill="#000000" transform="matrix(1.00, 0.00, -0.00, -1.00, 902.6, 545.3)">a</text><text xml:space="preserve" font-family="Avenir-Light,Avenir" font-size="56.0" fill="#000000" transform="matrix(1.00, 0.00, -0.00, -1.00, 931.7, 545.3)">k</text><text xml:space="preserve" font-family="Avenir-Light,Avenir" font-size="56.0" fill="#000000" transform="matrix(1.00, 0.00, -0.00, -1.00, 958.6, 545.3)">p</text><text xml:space="preserve" font-family="Avenir-Light,Avenir" font-size="56.0" fill="#000000" transform="matrix(1.00, 0.00, -0.00, -1.00, 992.9, 545.3)">o</text><text xml:space="preserve" font-family="Avenir-Light,Avenir" font-size="56.0" fill="#000000" transform="matrix(1.00, 0.00, -0.00, -1.00, 1026.1, 545.3)">i</text><text xml:space="preserve" font-family="Avenir-Light,Avenir" font-size="56.0" fill="#000000" transform="matrix(1.00, 0.00, -0.00, -1.00, 1039.6, 545.3)">n</text><text xml:space="preserve" font-family="Avenir-Light,Avenir" font-size="56.0" fill="#000000" transform="matrix(1.00, 0.00, -0.00, -1.00, 1070.7, 545.3)">t</text><text xml:space="preserve" font-family="Avenir-Light,Avenir" font-size="56.0" fill="#000000" transform="matrix(1.00, 0.00, -0.00, -1.00, 1089.3, 545.3)">(</text><text xml:space="preserve" font-family="Avenir-Light,Avenir" font-size="56.0" fill="#000000" transform="matrix(1.00, 0.00, -0.00, -1.00, 1103.9, 545.3)">m</text><text xml:space="preserve" font-family="Avenir-Light,Avenir" font-size="56.0" fill="#000000" transform="matrix(1.00, 0.00, -0.00, -1.00, 1151.6, 545.3)">d</text><text xml:space="preserve" font-family="Avenir-Light,Avenir" font-size="56.0" fill="#000000" transform="matrix(1.00, 0.00, -0.00, -1.00, 1185.8, 545.3)">)</text><text xml:space="preserve" font-family="Avenir-Light,Avenir" font-size="56.0" fill="#000000" transform="matrix(1.00, 0.00, -0.00, -1.00, 1200.4, 545.3)"> </text><text xml:space="preserve" font-family="Avenir-Light,Avenir" font-size="56.0" fill="#000000" transform="matrix(1.00, 0.00, -0.00, -1.00, 1214.9, 545.3)">{</text><text xml:space="preserve" font-family="Avenir-Light,Avenir" font-size="56.0" fill="#000000" transform="matrix(1.00, 0.00, -0.00, -1.00, 1233.6, 545.3)"> </text><text xml:space="preserve" font-family="Avenir-Light,Avenir" font-size="56.0" fill="#8D4EBD" transform="matrix(1.00, 0.00, -0.00, -1.00, 532.8, 469.3)"> </text><text xml:space="preserve" font-family="Avenir-Light,Avenir" font-size="56.0" fill="#8D4EBD" transform="matrix(1.00, 0.00, -0.00, -1.00, 547.4, 469.3)"> </text><text xml:space="preserve" font-family="Avenir-Light,Avenir" font-size="56.0" fill="#8D4EBD" transform="matrix(1.00, 0.00, -0.00, -1.00, 562.0, 469.3)"> </text><text xml:space="preserve" font-family="Avenir-Light,Avenir" font-size="56.0" fill="#8D4EBD" transform="matrix(1.00, 0.00, -0.00, -1.00, 576.5, 469.3)"> </text><text xml:space="preserve" font-family="Avenir-Light,Avenir" font-size="56.0" fill="#8D4EBD" transform="matrix(1.00, 0.00, -0.00, -1.00, 591.1, 469.3)"> </text><text xml:space="preserve" font-family="Avenir-Light,Avenir" font-size="56.0" fill="#8D4EBD" transform="matrix(1.00, 0.00, -0.00, -1.00, 605.6, 469.3)"> </text><text xml:space="preserve" font-family="Avenir-Light,Avenir" font-size="56.0" fill="#8D4EBD" transform="matrix(1.00, 0.00, -0.00, -1.00, 620.2, 469.3)"> </text><text xml:space="preserve" font-family="Avenir-Light,Avenir" font-size="56.0" fill="#8D4EBD" transform="matrix(1.00, 0.00, -0.00, -1.00, 634.8, 469.3)"> </text><text xml:space="preserve" font-family="Avenir-Light,Avenir" font-size="56.0" fill="#8D4EBD" transform="matrix(1.00, 0.00, -0.00, -1.00, 649.3, 469.3)">b</text><text xml:space="preserve" font-family="Avenir-Light,Avenir" font-size="56.0" fill="#8D4EBD" transform="matrix(1.00, 0.00, -0.00, -1.00, 683.5, 469.3)">a</text><text xml:space="preserve" font-family="Avenir-Light,Avenir" font-size="56.0" fill="#8D4EBD" transform="matrix(1.00, 0.00, -0.00, -1.00, 712.6, 469.3)">c</text><text xml:space="preserve" font-family="Avenir-Light,Avenir" font-size="56.0" fill="#8D4EBD" transform="matrix(1.00, 0.00, -0.00, -1.00, 739.5, 469.3)">k</text><text xml:space="preserve" font-family="Avenir-Light,Avenir" font-size="56.0" fill="#8D4EBD" transform="matrix(1.00, 0.00, -0.00, -1.00, 766.5, 469.3)">g</text><text xml:space="preserve" font-family="Avenir-Light,Avenir" font-size="56.0" fill="#8D4EBD" transform="matrix(1.00, 0.00, -0.00, -1.00, 800.7, 469.3)">r</text><text xml:space="preserve" font-family="Avenir-Light,Avenir" font-size="56.0" fill="#8D4EBD" transform="matrix(1.00, 0.00, -0.00, -1.00, 818.3, 469.3)">o</text><text xml:space="preserve" font-family="Avenir-Light,Avenir" font-size="56.0" fill="#8D4EBD" transform="matrix(1.00, 0.00, -0.00, -1.00, 851.6, 469.3)">u</text><text xml:space="preserve" font-family="Avenir-Light,Avenir" font-size="56.0" fill="#8D4EBD" transform="matrix(1.00, 0.00, -0.00, -1.00, 882.7, 469.3)">n</text><text xml:space="preserve" font-family="Avenir-Light,Avenir" font-size="56.0" fill="#8D4EBD" transform="matrix(1.00, 0.00, -0.00, -1.00, 913.9, 469.3)">d</text><text xml:space="preserve" font-family="Avenir-Light,Avenir" font-size="56.0" fill="#8D4EBD" transform="matrix(1.00, 0.00, -0.00, -1.00, 948.1, 469.3)">:</text><text xml:space="preserve" font-family="Avenir-Light,Avenir" font-size="56.0" fill="#8D4EBD" transform="matrix(1.00, 0.00, -0.00, -1.00, 962.6, 469.3)"> </text><text xml:space="preserve" font-family="Avenir-Light,Avenir" font-size="56.0" fill="#8D4EBD" transform="matrix(1.00, 0.00, -0.00, -1.00, 977.2, 469.3)">r</text><text xml:space="preserve" font-family="Avenir-Light,Avenir" font-size="56.0" fill="#8D4EBD" transform="matrix(1.00, 0.00, -0.00, -1.00, 994.8, 469.3)">e</text><text xml:space="preserve" font-family="Avenir-Light,Avenir" font-size="56.0" fill="#8D4EBD" transform="matrix(1.00, 0.00, -0.00, -1.00, 1026.0, 469.3)">d</text><text xml:space="preserve" font-family="Avenir-Light,Avenir" font-size="56.0" fill="#8D4EBD" transform="matrix(1.00, 0.00, -0.00, -1.00, 1060.2, 469.3)">;</text><text xml:space="preserve" font-family="Avenir-Light,Avenir" font-size="56.0" fill="#8D4EBD" transform="matrix(1.00, 0.00, -0.00, -1.00, 1074.8, 469.3)"> </text><text xml:space="preserve" font-family="Avenir-Light,Avenir" font-size="56.0" fill="#000000" transform="matrix(1.00, 0.00, -0.00, -1.00, 532.8, 393.3)"> </text><text xml:space="preserve" font-family="Avenir-Light,Avenir" font-size="56.0" fill="#000000" transform="matrix(1.00, 0.00, -0.00, -1.00, 547.4, 393.3)"> </text><text xml:space="preserve" font-family="Avenir-Light,Avenir" font-size="56.0" fill="#000000" transform="matrix(1.00, 0.00, -0.00, -1.00, 562.0, 393.3)"> </text><text xml:space="preserve" font-family="Avenir-Light,Avenir" font-size="56.0" fill="#000000" transform="matrix(1.00, 0.00, -0.00, -1.00, 576.5, 393.3)"> </text><text xml:space="preserve" font-family="Avenir-Light,Avenir" font-size="56.0" fill="#000000" transform="matrix(1.00, 0.00, -0.00, -1.00, 591.1, 393.3)">}</text><text xml:space="preserve" font-family="Avenir-Light,Avenir" font-size="56.0" fill="#000000" transform="matrix(1.00, 0.00, -0.00, -1.00, 609.7, 393.3)"> </text><text xml:space="preserve" font-family="Avenir-Light,Avenir" font-size="56.0" fill="#E45079" transform="matrix(1.00, 0.00, -0.00, -1.00, 532.8, 317.3)">}</text></g></svg>