<?xml version="1.0" encoding="UTF-8" standalone="no"?><svg xmlns="http://www.w3.org/2000/svg" xmlns:xlink="http://www.w3.org/1999/xlink" clip-rule="evenodd" stroke-miterlimit="10" viewBox="0 0 384 55"><desc>SVG generated by Keynote</desc><defs></defs><g transform="matrix(1.00, 0.00, -0.00, -1.00, 0.0, 55.0)"><text xml:space="preserve" font-family="Avenir-Light,Avenir" font-size="56.0" fill="#000000" transform="matrix(1.00, 0.00, -0.00, -1.00, -2.3, 14.0)">.</text><text xml:space="preserve" font-family="Avenir-Light,Avenir" font-size="56.0" fill="#000000" transform="matrix(1.00, 0.00, -0.00, -1.00, 12.2, 14.0)">s</text><text xml:space="preserve" font-family="Avenir-Light,Avenir" font-size="56.0" fill="#000000" transform="matrix(1.00, 0.00, -0.00, -1.00, 36.1, 14.0)">n</text><text xml:space="preserve" font-family="Avenir-Light,Avenir" font-size="56.0" fill="#000000" transform="matrix(1.00, 0.00, -0.00, -1.00, 67.2, 14.0)">a</text><text xml:space="preserve" font-family="Avenir-Light,Avenir" font-size="56.0" fill="#000000" transform="matrix(1.00, 0.00, -0.00, -1.00, 96.3, 14.0)">p</text><text xml:space="preserve" font-family="Avenir-Light,Avenir" font-size="56.0" fill="#000000" transform="matrix(1.00, 0.00, -0.00, -1.00, 130.5, 14.0)">-</text><text xml:space="preserve" font-family="Avenir-Light,Avenir" font-size="56.0" fill="#000000" transform="matrix(1.00, 0.00, -0.00, -1.00, 149.1, 14.0)">c</text><text xml:space="preserve" font-family="Avenir-Light,Avenir" font-size="56.0" fill="#000000" transform="matrix(1.00, 0.00, -0.00, -1.00, 176.1, 14.0)">o</text><text xml:space="preserve" font-family="Avenir-Light,Avenir" font-size="56.0" fill="#000000" transform="matrix(1.00, 0.00, -0.00, -1.00, 209.3, 14.0)">n</text><text xml:space="preserve" font-family="Avenir-Light,Avenir" font-size="56.0" fill="#000000" transform="matrix(1.00, 0.00, -0.00, -1.00, 240.5, 14.0)">t</text><text xml:space="preserve" font-family="Avenir-Light,Avenir" font-size="56.0" fill="#000000" transform="matrix(1.00, 0.00, -0.00, -1.00, 259.1, 14.0)">a</text><text xml:space="preserve" font-family="Avenir-Light,Avenir" font-size="56.0" fill="#000000" transform="matrix(1.00, 0.00, -0.00, -1.00, 288.2, 14.0)">i</text><text xml:space="preserve" font-family="Avenir-Light,Avenir" font-size="56.0" fill="#000000" transform="matrix(1.00, 0.00, -0.00, -1.00, 301.6, 14.0)">n</text><text xml:space="preserve" font-family="Avenir-Light,Avenir" font-size="56.0" fill="#000000" transform="matrix(1.00, 0.00, -0.00, -1.00, 332.8, 14.0)">e</text><text xml:space="preserve" font-family="Avenir-Light,Avenir" font-size="56.0" fill="#000000" transform="matrix(1.00, 0.00, -0.00, -1.00, 363.9, 14.0)">r</text></g></svg>