<?xml version="1.0" encoding="UTF-8" standalone="no"?><svg xmlns="http://www.w3.org/2000/svg" xmlns:xlink="http://www.w3.org/1999/xlink" clip-rule="evenodd" stroke-miterlimit="10" viewBox="0 0 263 103"><desc>SVG generated by Keynote</desc><defs></defs><g transform="matrix(1.00, 0.00, -0.00, -1.00, 0.0, 103.0)"><path d="M 1.9 16.8 L 2.0 86.8 C 2.0 95.1 8.7 102.0 16.9 102.0 L 246.9 102.0 C 255.1 102.0 262.0 95.1 262.0 86.8 L 262.0 16.8 C 262.0 8.5 255.1 2.0 246.9 2.0 L 16.9 2.0 C 8.7 2.0 1.9 8.5 1.9 16.8 Z M 1.9 16.8 " fill="#00B7BC"></path><g><clipPath id="clip0x6180006be0c0"><path d="M -3.4 1.8 L 267.1 1.8 L 267.1 101.8 L -3.4 101.8 Z M -3.4 1.8 "></path></clipPath><g clip-path="url(#clip0x6180006be0c0)"><text xml:space="preserve" font-family="Avenir-Medium,Avenir" font-size="32.0" fill="#FEFFFE" transform="matrix(1.00, 0.00, -0.00, -1.00, 106.0, 41.7)">L</text><text xml:space="preserve" font-family="Avenir-Medium,Avenir" font-size="32.0" fill="#FEFFFE" transform="matrix(1.00, 0.00, -0.00, -1.00, 127.7, 41.7)">G</text></g></g></g></svg>