<?xml version="1.0" encoding="UTF-8" standalone="no"?><svg xmlns="http://www.w3.org/2000/svg" xmlns:xlink="http://www.w3.org/1999/xlink" clip-rule="evenodd" stroke-miterlimit="10" viewBox="0 0 263 103"><desc>SVG generated by Keynote</desc><defs></defs><g transform="matrix(1.00, 0.00, -0.00, -1.00, 0.0, 103.0)"><path d="M 1.8 16.8 L 2.0 86.8 C 2.0 95.1 8.5 102.0 16.8 102.0 L 246.7 102.0 C 255.0 102.0 262.0 95.1 262.0 86.8 L 262.0 16.8 C 262.0 8.5 255.0 2.0 246.7 2.0 L 16.8 2.0 C 8.5 2.0 1.8 8.5 1.8 16.8 Z M 1.8 16.8 " fill="#00B7BC"></path><g><clipPath id="clip0x600000ab7e80"><path d="M -3.5 1.8 L 267.0 1.8 L 267.0 101.8 L -3.5 101.8 Z M -3.5 1.8 "></path></clipPath><g clip-path="url(#clip0x600000ab7e80)"><text xml:space="preserve" font-family="Avenir-Medium,Avenir" font-size="32.0" fill="#FEFFFE" transform="matrix(1.00, 0.00, -0.00, -1.00, 100.3, 41.7)">M</text><text xml:space="preserve" font-family="Avenir-Medium,Avenir" font-size="32.0" fill="#FEFFFE" transform="matrix(1.00, 0.00, -0.00, -1.00, 134.4, 41.7)">D</text></g></g></g></svg>