<?xml version="1.0" encoding="UTF-8" standalone="no"?><svg xmlns="http://www.w3.org/2000/svg" xmlns:xlink="http://www.w3.org/1999/xlink" clip-rule="evenodd" stroke-miterlimit="10" viewBox="0 0 493 89"><desc>SVG generated by Keynote</desc><defs></defs><g transform="matrix(1.00, 0.00, -0.00, -1.00, 0.0, 89.0)"><text xml:space="preserve" font-family="Avenir-Light,Avenir" font-size="111.0" fill="#000000" transform="matrix(1.00, 0.00, -0.00, -1.00, -1.7, 3.4)">6</text><text xml:space="preserve" font-family="Avenir-Light,Avenir" font-size="111.0" fill="#000000" transform="matrix(1.00, 0.00, -0.00, -1.00, 56.1, 3.4)"> </text><text xml:space="preserve" font-family="Avenir-Light,Avenir" font-size="111.0" fill="#000000" transform="matrix(1.00, 0.00, -0.00, -1.00, 84.9, 3.4)">c</text><text xml:space="preserve" font-family="Avenir-Light,Avenir" font-size="111.0" fill="#000000" transform="matrix(1.00, 0.00, -0.00, -1.00, 138.3, 3.4)">o</text><text xml:space="preserve" font-family="Avenir-Light,Avenir" font-size="111.0" fill="#000000" transform="matrix(1.00, 0.00, -0.00, -1.00, 204.2, 3.4)">l</text><text xml:space="preserve" font-family="Avenir-Light,Avenir" font-size="111.0" fill="#000000" transform="matrix(1.00, 0.00, -0.00, -1.00, 230.9, 3.4)">u</text><text xml:space="preserve" font-family="Avenir-Light,Avenir" font-size="111.0" fill="#000000" transform="matrix(1.00, 0.00, -0.00, -1.00, 292.6, 3.4)">m</text><text xml:space="preserve" font-family="Avenir-Light,Avenir" font-size="111.0" fill="#000000" transform="matrix(1.00, 0.00, -0.00, -1.00, 387.2, 3.4)">n</text><text xml:space="preserve" font-family="Avenir-Light,Avenir" font-size="111.0" fill="#000000" transform="matrix(1.00, 0.00, -0.00, -1.00, 448.9, 3.4)">s</text></g></svg>