<?xml version="1.0" encoding="UTF-8" standalone="no"?><svg xmlns="http://www.w3.org/2000/svg" xmlns:xlink="http://www.w3.org/1999/xlink" clip-rule="evenodd" stroke-miterlimit="10" viewBox="0 0 263 103"><desc>SVG generated by Keynote</desc><defs></defs><g transform="matrix(1.00, 0.00, -0.00, -1.00, 0.0, 103.0)"><path d="M 1.6 16.8 L 2.0 86.8 C 2.0 95.1 8.3 102.0 16.6 102.0 L 246.5 102.0 C 254.8 102.0 262.0 95.1 262.0 86.8 L 262.0 16.8 C 262.0 8.5 254.8 2.0 246.5 2.0 L 16.6 2.0 C 8.3 2.0 1.6 8.5 1.6 16.8 Z M 1.6 16.8 " fill="#00B7BC"></path><g><clipPath id="clip0x600000abbea0"><path d="M -3.7 1.8 L 266.8 1.8 L 266.8 101.8 L -3.7 101.8 Z M -3.7 1.8 "></path></clipPath><g clip-path="url(#clip0x600000abbea0)"><text xml:space="preserve" font-family="Avenir-Medium,Avenir" font-size="32.0" fill="#FEFFFE" transform="matrix(1.00, 0.00, -0.00, -1.00, 103.0, 41.7)">S</text><text xml:space="preserve" font-family="Avenir-Medium,Avenir" font-size="32.0" fill="#FEFFFE" transform="matrix(1.00, 0.00, -0.00, -1.00, 126.0, 41.7)">M</text></g></g></g></svg>