<?xml version="1.0" encoding="UTF-8" standalone="no"?><svg xmlns="http://www.w3.org/2000/svg" xmlns:xlink="http://www.w3.org/1999/xlink" clip-rule="evenodd" stroke-miterlimit="10" viewBox="0 0 1338 119"><desc>SVG generated by Keynote</desc><defs></defs><g transform="matrix(1.00, 0.00, -0.00, -1.00, 0.0, 119.0)"><image xlink:href="BE3EFC99F3F7066A8A366E4C20C35009.png" width="1336.00" height="116.00" transform="matrix(1.00, 0.00, -0.00, -1.00, 1.0, 118.0)"></image><text xml:space="preserve" font-family="Helvetica,Helvetica" font-size="100.0" fill="#FFFFFF" transform="matrix(1.00, 0.00, -0.00, -1.00, 3.6, 38.5)">"</text><text xml:space="preserve" font-family="Helvetica,Helvetica" font-size="100.0" fill="#FFFFFF" transform="matrix(1.00, 0.00, -0.00, -1.00, 39.1, 38.5)">A</text><text xml:space="preserve" font-family="Helvetica,Helvetica" font-size="100.0" fill="#FFFFFF" transform="matrix(1.00, 0.00, -0.00, -1.00, 105.8, 38.5)">n</text><text xml:space="preserve" font-family="Helvetica,Helvetica" font-size="100.0" fill="#FFFFFF" transform="matrix(1.00, 0.00, -0.00, -1.00, 161.5, 38.5)"> </text><text xml:space="preserve" font-family="Helvetica,Helvetica" font-size="100.0" fill="#FFFFFF" transform="matrix(1.00, 0.00, -0.00, -1.00, 189.2, 38.5)">e</text><text xml:space="preserve" font-family="Helvetica,Helvetica" font-size="100.0" fill="#FFFFFF" transform="matrix(1.00, 0.00, -0.00, -1.00, 244.9, 38.5)">n</text><text xml:space="preserve" font-family="Helvetica,Helvetica" font-size="100.0" fill="#FFFFFF" transform="matrix(1.00, 0.00, -0.00, -1.00, 300.5, 38.5)">g</text><text xml:space="preserve" font-family="Helvetica,Helvetica" font-size="100.0" fill="#FFFFFF" transform="matrix(1.00, 0.00, -0.00, -1.00, 356.1, 38.5)">i</text><text xml:space="preserve" font-family="Helvetica,Helvetica" font-size="100.0" fill="#FFFFFF" transform="matrix(1.00, 0.00, -0.00, -1.00, 378.4, 38.5)">n</text><text xml:space="preserve" font-family="Helvetica,Helvetica" font-size="100.0" fill="#FFFFFF" transform="matrix(1.00, 0.00, -0.00, -1.00, 434.0, 38.5)">e</text><text xml:space="preserve" font-family="Helvetica,Helvetica" font-size="100.0" fill="#FFFFFF" transform="matrix(1.00, 0.00, -0.00, -1.00, 489.6, 38.5)">e</text><text xml:space="preserve" font-family="Helvetica,Helvetica" font-size="100.0" fill="#FFFFFF" transform="matrix(1.00, 0.00, -0.00, -1.00, 545.3, 38.5)">r</text><text xml:space="preserve" font-family="Helvetica,Helvetica" font-size="100.0" fill="#FFFFFF" transform="matrix(1.00, 0.00, -0.00, -1.00, 578.6, 38.5)"> </text><text xml:space="preserve" font-family="Helvetica,Helvetica" font-size="100.0" fill="#FFFFFF" transform="matrix(1.00, 0.00, -0.00, -1.00, 606.3, 38.5)">i</text><text xml:space="preserve" font-family="Helvetica,Helvetica" font-size="100.0" fill="#FFFFFF" transform="matrix(1.00, 0.00, -0.00, -1.00, 628.6, 38.5)">s</text><text xml:space="preserve" font-family="Helvetica,Helvetica" font-size="100.0" fill="#FFFFFF" transform="matrix(1.00, 0.00, -0.00, -1.00, 678.6, 38.5)"> </text><text xml:space="preserve" font-family="Helvetica,Helvetica" font-size="100.0" fill="#FFFFFF" transform="matrix(1.00, 0.00, -0.00, -1.00, 706.3, 38.5)">a</text><text xml:space="preserve" font-family="Helvetica,Helvetica" font-size="100.0" fill="#FFFFFF" transform="matrix(1.00, 0.00, -0.00, -1.00, 762.0, 38.5)"> </text><text xml:space="preserve" font-family="Helvetica,Helvetica" font-size="100.0" fill="#FFFFFF" transform="matrix(1.00, 0.00, -0.00, -1.00, 789.7, 38.5)">p</text><text xml:space="preserve" font-family="Helvetica,Helvetica" font-size="100.0" fill="#FFFFFF" transform="matrix(1.00, 0.00, -0.00, -1.00, 845.4, 38.5)">r</text><text xml:space="preserve" font-family="Helvetica,Helvetica" font-size="100.0" fill="#FFFFFF" transform="matrix(1.00, 0.00, -0.00, -1.00, 878.7, 38.5)">o</text><text xml:space="preserve" font-family="Helvetica,Helvetica" font-size="100.0" fill="#FFFFFF" transform="matrix(1.00, 0.00, -0.00, -1.00, 934.3, 38.5)">f</text><text xml:space="preserve" font-family="Helvetica,Helvetica" font-size="100.0" fill="#FFFFFF" transform="matrix(1.00, 0.00, -0.00, -1.00, 962.1, 38.5)">e</text><text xml:space="preserve" font-family="Helvetica,Helvetica" font-size="100.0" fill="#FFFFFF" transform="matrix(1.00, 0.00, -0.00, -1.00, 1017.7, 38.5)">s</text><text xml:space="preserve" font-family="Helvetica,Helvetica" font-size="100.0" fill="#FFFFFF" transform="matrix(1.00, 0.00, -0.00, -1.00, 1067.7, 38.5)">s</text><text xml:space="preserve" font-family="Helvetica,Helvetica" font-size="100.0" fill="#FFFFFF" transform="matrix(1.00, 0.00, -0.00, -1.00, 1117.7, 38.5)">i</text><text xml:space="preserve" font-family="Helvetica,Helvetica" font-size="100.0" fill="#FFFFFF" transform="matrix(1.00, 0.00, -0.00, -1.00, 1139.9, 38.5)">o</text><text xml:space="preserve" font-family="Helvetica,Helvetica" font-size="100.0" fill="#FFFFFF" transform="matrix(1.00, 0.00, -0.00, -1.00, 1195.6, 38.5)">n</text><text xml:space="preserve" font-family="Helvetica,Helvetica" font-size="100.0" fill="#FFFFFF" transform="matrix(1.00, 0.00, -0.00, -1.00, 1251.2, 38.5)">a</text><text xml:space="preserve" font-family="Helvetica,Helvetica" font-size="100.0" fill="#FFFFFF" transform="matrix(1.00, 0.00, -0.00, -1.00, 1306.8, 38.5)">l</text></g></svg>