<?xml version="1.0" encoding="UTF-8" standalone="no"?><svg xmlns="http://www.w3.org/2000/svg" xmlns:xlink="http://www.w3.org/1999/xlink" clip-rule="evenodd" stroke-miterlimit="10" viewBox="0 0 1537 119"><desc>SVG generated by Keynote</desc><defs></defs><g transform="matrix(1.00, 0.00, -0.00, -1.00, 0.0, 119.0)"><image xlink:href="E63900EBB54663A84D6D3EA07112FAD8.png" width="1534.00" height="116.00" transform="matrix(1.00, 0.00, -0.00, -1.00, 1.0, 118.0)"></image><text xml:space="preserve" font-family="Helvetica,Helvetica" font-size="100.0" fill="#FFFFFF" transform="matrix(1.00, 0.00, -0.00, -1.00, 6.7, 38.5)">w</text><text xml:space="preserve" font-family="Helvetica,Helvetica" font-size="100.0" fill="#FFFFFF" transform="matrix(1.00, 0.00, -0.00, -1.00, 78.9, 38.5)">i</text><text xml:space="preserve" font-family="Helvetica,Helvetica" font-size="100.0" fill="#FFFFFF" transform="matrix(1.00, 0.00, -0.00, -1.00, 101.2, 38.5)">t</text><text xml:space="preserve" font-family="Helvetica,Helvetica" font-size="100.0" fill="#FFFFFF" transform="matrix(1.00, 0.00, -0.00, -1.00, 128.9, 38.5)">h</text><text xml:space="preserve" font-family="Helvetica,Helvetica" font-size="100.0" fill="#FFFFFF" transform="matrix(1.00, 0.00, -0.00, -1.00, 184.6, 38.5)"> </text><text xml:space="preserve" font-family="Helvetica,Helvetica" font-size="100.0" fill="#FFFFFF" transform="matrix(1.00, 0.00, -0.00, -1.00, 212.3, 38.5)">a</text><text xml:space="preserve" font-family="Helvetica,Helvetica" font-size="100.0" fill="#FFFFFF" transform="matrix(1.00, 0.00, -0.00, -1.00, 268.0, 38.5)">p</text><text xml:space="preserve" font-family="Helvetica,Helvetica" font-size="100.0" fill="#FFFFFF" transform="matrix(1.00, 0.00, -0.00, -1.00, 323.6, 38.5)">p</text><text xml:space="preserve" font-family="Helvetica,Helvetica" font-size="100.0" fill="#FFFFFF" transform="matrix(1.00, 0.00, -0.00, -1.00, 379.2, 38.5)">l</text><text xml:space="preserve" font-family="Helvetica,Helvetica" font-size="100.0" fill="#FFFFFF" transform="matrix(1.00, 0.00, -0.00, -1.00, 401.5, 38.5)">y</text><text xml:space="preserve" font-family="Helvetica,Helvetica" font-size="100.0" fill="#FFFFFF" transform="matrix(1.00, 0.00, -0.00, -1.00, 451.5, 38.5)">i</text><text xml:space="preserve" font-family="Helvetica,Helvetica" font-size="100.0" fill="#FFFFFF" transform="matrix(1.00, 0.00, -0.00, -1.00, 473.7, 38.5)">n</text><text xml:space="preserve" font-family="Helvetica,Helvetica" font-size="100.0" fill="#FFFFFF" transform="matrix(1.00, 0.00, -0.00, -1.00, 529.4, 38.5)">g</text><text xml:space="preserve" font-family="Helvetica,Helvetica" font-size="100.0" fill="#FFFFFF" transform="matrix(1.00, 0.00, -0.00, -1.00, 585.0, 38.5)"> </text><text xml:space="preserve" font-family="Helvetica,Helvetica" font-size="100.0" fill="#FFFFFF" transform="matrix(1.00, 0.00, -0.00, -1.00, 612.8, 38.5)">s</text><text xml:space="preserve" font-family="Helvetica,Helvetica" font-size="100.0" fill="#FFFFFF" transform="matrix(1.00, 0.00, -0.00, -1.00, 662.8, 38.5)">c</text><text xml:space="preserve" font-family="Helvetica,Helvetica" font-size="100.0" fill="#FFFFFF" transform="matrix(1.00, 0.00, -0.00, -1.00, 712.8, 38.5)">i</text><text xml:space="preserve" font-family="Helvetica,Helvetica" font-size="100.0" fill="#FFFFFF" transform="matrix(1.00, 0.00, -0.00, -1.00, 735.0, 38.5)">e</text><text xml:space="preserve" font-family="Helvetica,Helvetica" font-size="100.0" fill="#FFFFFF" transform="matrix(1.00, 0.00, -0.00, -1.00, 790.6, 38.5)">n</text><text xml:space="preserve" font-family="Helvetica,Helvetica" font-size="100.0" fill="#FFFFFF" transform="matrix(1.00, 0.00, -0.00, -1.00, 846.3, 38.5)">t</text><text xml:space="preserve" font-family="Helvetica,Helvetica" font-size="100.0" fill="#FFFFFF" transform="matrix(1.00, 0.00, -0.00, -1.00, 874.0, 38.5)">i</text><text xml:space="preserve" font-family="Helvetica,Helvetica" font-size="100.0" fill="#FFFFFF" transform="matrix(1.00, 0.00, -0.00, -1.00, 896.3, 38.5)">ï¬</text><text xml:space="preserve" font-family="Helvetica,Helvetica" font-size="100.0" fill="#FFFFFF" transform="matrix(1.00, 0.00, -0.00, -1.00, 946.3, 38.5)">c</text><text xml:space="preserve" font-family="Helvetica,Helvetica" font-size="100.0" fill="#FFFFFF" transform="matrix(1.00, 0.00, -0.00, -1.00, 996.3, 38.5)"> </text><text xml:space="preserve" font-family="Helvetica,Helvetica" font-size="100.0" fill="#FFFFFF" transform="matrix(1.00, 0.00, -0.00, -1.00, 1024.0, 38.5)">k</text><text xml:space="preserve" font-family="Helvetica,Helvetica" font-size="100.0" fill="#FFFFFF" transform="matrix(1.00, 0.00, -0.00, -1.00, 1074.0, 38.5)">n</text><text xml:space="preserve" font-family="Helvetica,Helvetica" font-size="100.0" fill="#FFFFFF" transform="matrix(1.00, 0.00, -0.00, -1.00, 1129.7, 38.5)">o</text><text xml:space="preserve" font-family="Helvetica,Helvetica" font-size="100.0" fill="#FFFFFF" transform="matrix(1.00, 0.00, -0.00, -1.00, 1185.3, 38.5)">w</text><text xml:space="preserve" font-family="Helvetica,Helvetica" font-size="100.0" fill="#FFFFFF" transform="matrix(1.00, 0.00, -0.00, -1.00, 1257.5, 38.5)">l</text><text xml:space="preserve" font-family="Helvetica,Helvetica" font-size="100.0" fill="#FFFFFF" transform="matrix(1.00, 0.00, -0.00, -1.00, 1279.8, 38.5)">e</text><text xml:space="preserve" font-family="Helvetica,Helvetica" font-size="100.0" fill="#FFFFFF" transform="matrix(1.00, 0.00, -0.00, -1.00, 1335.4, 38.5)">d</text><text xml:space="preserve" font-family="Helvetica,Helvetica" font-size="100.0" fill="#FFFFFF" transform="matrix(1.00, 0.00, -0.00, -1.00, 1391.0, 38.5)">g</text><text xml:space="preserve" font-family="Helvetica,Helvetica" font-size="100.0" fill="#FFFFFF" transform="matrix(1.00, 0.00, -0.00, -1.00, 1446.7, 38.5)">e</text><text xml:space="preserve" font-family="Helvetica,Helvetica" font-size="100.0" fill="#FFFFFF" transform="matrix(1.00, 0.00, -0.00, -1.00, 1502.3, 38.5)">,</text></g></svg>