<?xml version="1.0" encoding="UTF-8" standalone="no"?><svg xmlns="http://www.w3.org/2000/svg" xmlns:xlink="http://www.w3.org/1999/xlink" clip-rule="evenodd" stroke-miterlimit="10" viewBox="0 0 1691 119"><desc>SVG generated by Keynote</desc><defs></defs><g transform="matrix(1.00, 0.00, -0.00, -1.00, 0.0, 119.0)"><image xlink:href="8199D938D183B41F365E28988D755B2E.png" width="1688.00" height="116.00" transform="matrix(1.00, 0.00, -0.00, -1.00, 1.0, 118.0)"></image><text xml:space="preserve" font-family="Helvetica,Helvetica" font-size="100.0" fill="#FFFFFF" transform="matrix(1.00, 0.00, -0.00, -1.00, 1.8, 38.5)">p</text><text xml:space="preserve" font-family="Helvetica,Helvetica" font-size="100.0" fill="#FFFFFF" transform="matrix(1.00, 0.00, -0.00, -1.00, 57.4, 38.5)">r</text><text xml:space="preserve" font-family="Helvetica,Helvetica" font-size="100.0" fill="#FFFFFF" transform="matrix(1.00, 0.00, -0.00, -1.00, 90.7, 38.5)">a</text><text xml:space="preserve" font-family="Helvetica,Helvetica" font-size="100.0" fill="#FFFFFF" transform="matrix(1.00, 0.00, -0.00, -1.00, 146.4, 38.5)">c</text><text xml:space="preserve" font-family="Helvetica,Helvetica" font-size="100.0" fill="#FFFFFF" transform="matrix(1.00, 0.00, -0.00, -1.00, 196.4, 38.5)">t</text><text xml:space="preserve" font-family="Helvetica,Helvetica" font-size="100.0" fill="#FFFFFF" transform="matrix(1.00, 0.00, -0.00, -1.00, 224.1, 38.5)">i</text><text xml:space="preserve" font-family="Helvetica,Helvetica" font-size="100.0" fill="#FFFFFF" transform="matrix(1.00, 0.00, -0.00, -1.00, 246.4, 38.5)">t</text><text xml:space="preserve" font-family="Helvetica,Helvetica" font-size="100.0" fill="#FFFFFF" transform="matrix(1.00, 0.00, -0.00, -1.00, 274.1, 38.5)">i</text><text xml:space="preserve" font-family="Helvetica,Helvetica" font-size="100.0" fill="#FFFFFF" transform="matrix(1.00, 0.00, -0.00, -1.00, 296.4, 38.5)">o</text><text xml:space="preserve" font-family="Helvetica,Helvetica" font-size="100.0" fill="#FFFFFF" transform="matrix(1.00, 0.00, -0.00, -1.00, 352.0, 38.5)">n</text><text xml:space="preserve" font-family="Helvetica,Helvetica" font-size="100.0" fill="#FFFFFF" transform="matrix(1.00, 0.00, -0.00, -1.00, 407.6, 38.5)">e</text><text xml:space="preserve" font-family="Helvetica,Helvetica" font-size="100.0" fill="#FFFFFF" transform="matrix(1.00, 0.00, -0.00, -1.00, 463.3, 38.5)">r</text><text xml:space="preserve" font-family="Helvetica,Helvetica" font-size="100.0" fill="#FFFFFF" transform="matrix(1.00, 0.00, -0.00, -1.00, 496.6, 38.5)"> </text><text xml:space="preserve" font-family="Helvetica,Helvetica" font-size="100.0" fill="#FFFFFF" transform="matrix(1.00, 0.00, -0.00, -1.00, 524.3, 38.5)">o</text><text xml:space="preserve" font-family="Helvetica,Helvetica" font-size="100.0" fill="#FFFFFF" transform="matrix(1.00, 0.00, -0.00, -1.00, 580.0, 38.5)">f</text><text xml:space="preserve" font-family="Helvetica,Helvetica" font-size="100.0" fill="#FFFFFF" transform="matrix(1.00, 0.00, -0.00, -1.00, 607.7, 38.5)"> </text><text xml:space="preserve" font-family="Helvetica,Helvetica" font-size="100.0" fill="#FFFFFF" transform="matrix(1.00, 0.00, -0.00, -1.00, 635.5, 38.5)">e</text><text xml:space="preserve" font-family="Helvetica,Helvetica" font-size="100.0" fill="#FFFFFF" transform="matrix(1.00, 0.00, -0.00, -1.00, 691.1, 38.5)">n</text><text xml:space="preserve" font-family="Helvetica,Helvetica" font-size="100.0" fill="#FFFFFF" transform="matrix(1.00, 0.00, -0.00, -1.00, 746.8, 38.5)">g</text><text xml:space="preserve" font-family="Helvetica,Helvetica" font-size="100.0" fill="#FFFFFF" transform="matrix(1.00, 0.00, -0.00, -1.00, 802.4, 38.5)">i</text><text xml:space="preserve" font-family="Helvetica,Helvetica" font-size="100.0" fill="#FFFFFF" transform="matrix(1.00, 0.00, -0.00, -1.00, 824.6, 38.5)">n</text><text xml:space="preserve" font-family="Helvetica,Helvetica" font-size="100.0" fill="#FFFFFF" transform="matrix(1.00, 0.00, -0.00, -1.00, 880.3, 38.5)">e</text><text xml:space="preserve" font-family="Helvetica,Helvetica" font-size="100.0" fill="#FFFFFF" transform="matrix(1.00, 0.00, -0.00, -1.00, 935.9, 38.5)">e</text><text xml:space="preserve" font-family="Helvetica,Helvetica" font-size="100.0" fill="#FFFFFF" transform="matrix(1.00, 0.00, -0.00, -1.00, 991.6, 38.5)">r</text><text xml:space="preserve" font-family="Helvetica,Helvetica" font-size="100.0" fill="#FFFFFF" transform="matrix(1.00, 0.00, -0.00, -1.00, 1024.9, 38.5)">i</text><text xml:space="preserve" font-family="Helvetica,Helvetica" font-size="100.0" fill="#FFFFFF" transform="matrix(1.00, 0.00, -0.00, -1.00, 1047.1, 38.5)">n</text><text xml:space="preserve" font-family="Helvetica,Helvetica" font-size="100.0" fill="#FFFFFF" transform="matrix(1.00, 0.00, -0.00, -1.00, 1102.7, 38.5)">g</text><text xml:space="preserve" font-family="Helvetica,Helvetica" font-size="100.0" fill="#FFFFFF" transform="matrix(1.00, 0.00, -0.00, -1.00, 1158.4, 38.5)">,</text><text xml:space="preserve" font-family="Helvetica,Helvetica" font-size="100.0" fill="#FFFFFF" transform="matrix(1.00, 0.00, -0.00, -1.00, 1186.1, 38.5)"> </text><text xml:space="preserve" font-family="Helvetica,Helvetica" font-size="100.0" fill="#FFFFFF" transform="matrix(1.00, 0.00, -0.00, -1.00, 1213.9, 38.5)">c</text><text xml:space="preserve" font-family="Helvetica,Helvetica" font-size="100.0" fill="#FFFFFF" transform="matrix(1.00, 0.00, -0.00, -1.00, 1263.9, 38.5)">o</text><text xml:space="preserve" font-family="Helvetica,Helvetica" font-size="100.0" fill="#FFFFFF" transform="matrix(1.00, 0.00, -0.00, -1.00, 1319.5, 38.5)">n</text><text xml:space="preserve" font-family="Helvetica,Helvetica" font-size="100.0" fill="#FFFFFF" transform="matrix(1.00, 0.00, -0.00, -1.00, 1375.2, 38.5)">c</text><text xml:space="preserve" font-family="Helvetica,Helvetica" font-size="100.0" fill="#FFFFFF" transform="matrix(1.00, 0.00, -0.00, -1.00, 1425.2, 38.5)">e</text><text xml:space="preserve" font-family="Helvetica,Helvetica" font-size="100.0" fill="#FFFFFF" transform="matrix(1.00, 0.00, -0.00, -1.00, 1480.8, 38.5)">r</text><text xml:space="preserve" font-family="Helvetica,Helvetica" font-size="100.0" fill="#FFFFFF" transform="matrix(1.00, 0.00, -0.00, -1.00, 1514.1, 38.5)">n</text><text xml:space="preserve" font-family="Helvetica,Helvetica" font-size="100.0" fill="#FFFFFF" transform="matrix(1.00, 0.00, -0.00, -1.00, 1569.7, 38.5)">e</text><text xml:space="preserve" font-family="Helvetica,Helvetica" font-size="100.0" fill="#FFFFFF" transform="matrix(1.00, 0.00, -0.00, -1.00, 1625.4, 38.5)">d</text></g></svg>