<?xml version="1.0" encoding="UTF-8" standalone="no"?><svg xmlns="http://www.w3.org/2000/svg" xmlns:xlink="http://www.w3.org/1999/xlink" clip-rule="evenodd" stroke-miterlimit="10" viewBox="0 0 568 79"><desc>SVG generated by Keynote</desc><defs></defs><g transform="matrix(1.00, 0.00, -0.00, -1.00, 0.0, 79.0)"><image xlink:href="0CA1D82A95596FCC6823C0F860664ECF.png" width="565.00" height="75.00" transform="matrix(1.00, 0.00, -0.00, -1.00, 1.0, 77.0)"></image><text xml:space="preserve" font-family="Helvetica,Helvetica" font-size="58.0" fill="#FFFFFF" transform="matrix(1.00, 0.00, -0.00, -1.00, 7.7, 25.0)">B</text><text xml:space="preserve" font-family="Helvetica,Helvetica" font-size="58.0" fill="#FFFFFF" transform="matrix(1.00, 0.00, -0.00, -1.00, 46.3, 25.0)">r</text><text xml:space="preserve" font-family="Helvetica,Helvetica" font-size="58.0" fill="#FFFFFF" transform="matrix(1.00, 0.00, -0.00, -1.00, 65.7, 25.0)">a</text><text xml:space="preserve" font-family="Helvetica,Helvetica" font-size="58.0" fill="#FFFFFF" transform="matrix(1.00, 0.00, -0.00, -1.00, 97.9, 25.0)">d</text><text xml:space="preserve" font-family="Helvetica,Helvetica" font-size="58.0" fill="#FFFFFF" transform="matrix(1.00, 0.00, -0.00, -1.00, 130.2, 25.0)">e</text><text xml:space="preserve" font-family="Helvetica,Helvetica" font-size="58.0" fill="#FFFFFF" transform="matrix(1.00, 0.00, -0.00, -1.00, 162.5, 25.0)">n</text><text xml:space="preserve" font-family="Helvetica,Helvetica" font-size="58.0" fill="#FFFFFF" transform="matrix(1.00, 0.00, -0.00, -1.00, 194.7, 25.0)"> </text><text xml:space="preserve" font-family="Helvetica,Helvetica" font-size="58.0" fill="#FFFFFF" transform="matrix(1.00, 0.00, -0.00, -1.00, 210.8, 25.0)">R</text><text xml:space="preserve" font-family="Helvetica,Helvetica" font-size="58.0" fill="#FFFFFF" transform="matrix(1.00, 0.00, -0.00, -1.00, 252.7, 25.0)">o</text><text xml:space="preserve" font-family="Helvetica,Helvetica" font-size="58.0" fill="#FFFFFF" transform="matrix(1.00, 0.00, -0.00, -1.00, 285.0, 25.0)">s</text><text xml:space="preserve" font-family="Helvetica,Helvetica" font-size="58.0" fill="#FFFFFF" transform="matrix(1.00, 0.00, -0.00, -1.00, 314.0, 25.0)">e</text><text xml:space="preserve" font-family="Helvetica,Helvetica" font-size="58.0" fill="#FFFFFF" transform="matrix(1.00, 0.00, -0.00, -1.00, 346.3, 25.0)">b</text><text xml:space="preserve" font-family="Helvetica,Helvetica" font-size="58.0" fill="#FFFFFF" transform="matrix(1.00, 0.00, -0.00, -1.00, 378.5, 25.0)">o</text><text xml:space="preserve" font-family="Helvetica,Helvetica" font-size="58.0" fill="#FFFFFF" transform="matrix(1.00, 0.00, -0.00, -1.00, 410.8, 25.0)">r</text><text xml:space="preserve" font-family="Helvetica,Helvetica" font-size="58.0" fill="#FFFFFF" transform="matrix(1.00, 0.00, -0.00, -1.00, 430.1, 25.0)">o</text><text xml:space="preserve" font-family="Helvetica,Helvetica" font-size="58.0" fill="#FFFFFF" transform="matrix(1.00, 0.00, -0.00, -1.00, 462.4, 25.0)">u</text><text xml:space="preserve" font-family="Helvetica,Helvetica" font-size="58.0" fill="#FFFFFF" transform="matrix(1.00, 0.00, -0.00, -1.00, 494.7, 25.0)">g</text><text xml:space="preserve" font-family="Helvetica,Helvetica" font-size="58.0" fill="#FFFFFF" transform="matrix(1.00, 0.00, -0.00, -1.00, 526.9, 25.0)">h</text></g></svg>