<?xml version="1.0" encoding="UTF-8" standalone="no"?><svg xmlns="http://www.w3.org/2000/svg" xmlns:xlink="http://www.w3.org/1999/xlink" clip-rule="evenodd" stroke-miterlimit="10" viewBox="0 0 1920 1080"><desc>SVG generated by Keynote</desc><defs></defs><g transform="matrix(1.00, 0.00, -0.00, -1.00, 0.0, 1080.0)"><path d="M 0.0 1080.0 L 1920.0 1080.0 L 1920.0 0.0 L 0.0 0.0 Z M 0.0 1080.0 " fill="#000000"></path><image xlink:href="../../69BB1A0B-65D1-4BF8-B1E7-C23CB3BAB16D/assets/6BCF1F6ADE1D588377AA318DCD8AD2CF.jpeg" width="1440.00" height="810.00" transform="matrix(1.33, 0.00, -0.00, -1.33, 1.0, 1080.0)"></image><g><clipPath id="clip0x600000aadb00"><path d="M -3.0 1079.0 L 1924.0 1079.0 L 1924.0 1.0 L -3.0 1.0 Z M -3.0 1079.1 "></path></clipPath><g clip-path="url(#clip0x600000aadb00)"><image xlink:href="../../69BB1A0B-65D1-4BF8-B1E7-C23CB3BAB16D/assets/851B10C36865ABDE55C6F1C3D8A6D490.jpeg" width="1440.00" height="810.00" transform="matrix(1.35, 0.00, -0.00, -1.35, -8.0, 1085.0)"></image></g></g><path d="M 1.0 1080.0 L 1921.0 1080.0 L 1921.0 0.0 L 1.0 0.0 Z M 0.6 1080.2 " fill="#ECECEC"></path><path d="M 135.0 1082.0 L 235.0 1082.0 L 235.0 -2.0 L 135.0 -2.0 Z M 135.2 1082.4 " fill="#BFBFBF"></path><path d="M 276.0 1082.0 L 376.0 1082.0 L 376.0 -2.0 L 276.0 -2.0 Z M 276.1 1082.4 " fill="#BFBFBF"></path><path d="M 417.0 1082.0 L 517.0 1082.0 L 517.0 -2.0 L 417.0 -2.0 Z M 417.0 1082.4 " fill="#BFBFBF"></path><path d="M 558.0 1082.0 L 658.0 1082.0 L 658.0 -2.0 L 558.0 -2.0 Z M 557.8 1082.4 " fill="#BFBFBF"></path><path d="M 699.0 1082.0 L 799.0 1082.0 L 799.0 -2.0 L 699.0 -2.0 Z M 698.7 1082.4 " fill="#BFBFBF"></path><path d="M 840.0 1082.0 L 940.0 1082.0 L 940.0 -2.0 L 840.0 -2.0 Z M 839.6 1082.4 " fill="#BFBFBF"></path><path d="M 980.0 1082.0 L 1080.0 1082.0 L 1080.0 -2.0 L 980.0 -2.0 Z M 980.4 1082.4 " fill="#BFBFBF"></path><path d="M 1121.0 1082.0 L 1221.0 1082.0 L 1221.0 -2.0 L 1121.0 -2.0 Z M 1121.3 1082.4 " fill="#BFBFBF"></path><g><clipPath id="clip0x6180006ba7c0"><path d="M 1116.0 -2.4 L 1226.6 -2.4 L 1226.6 1082.4 L 1116.0 1082.4 Z M 1116.0 -2.4 "></path></clipPath><g clip-path="url(#clip0x6180006ba7c0)"><text xml:space="preserve" font-family="Avenir-Medium,Avenir" font-size="32.0" fill="#FEFFFE" transform="matrix(1.00, 0.00, -0.00, -1.00, 1159.8, 529.5)">8</text></g></g><path d="M 1262.0 1082.0 L 1362.0 1082.0 L 1362.0 -2.0 L 1262.0 -2.0 Z M 1262.2 1082.4 " fill="#BFBFBF"></path><g><clipPath id="clip0x6180006baa60"><path d="M 1256.9 -2.4 L 1367.5 -2.4 L 1367.5 1082.4 L 1256.9 1082.4 Z M 1256.9 -2.4 "></path></clipPath><g clip-path="url(#clip0x6180006baa60)"><text xml:space="preserve" font-family="Avenir-Medium,Avenir" font-size="32.0" fill="#FEFFFE" transform="matrix(1.00, 0.00, -0.00, -1.00, 1300.7, 529.5)">9</text></g></g><path d="M 1403.0 1082.0 L 1503.0 1082.0 L 1503.0 -2.0 L 1403.0 -2.0 Z M 1403.0 1082.4 " fill="#BFBFBF"></path><g><clipPath id="clip0x6180006bad00"><path d="M 1397.7 -2.4 L 1508.3 -2.4 L 1508.3 1082.4 L 1397.7 1082.4 Z M 1397.7 -2.4 "></path></clipPath><g clip-path="url(#clip0x6180006bad00)"><text xml:space="preserve" font-family="Avenir-Medium,Avenir" font-size="32.0" fill="#FEFFFE" transform="matrix(1.00, 0.00, -0.00, -1.00, 1430.1, 529.5)">1</text><text xml:space="preserve" font-family="Avenir-Medium,Avenir" font-size="32.0" fill="#FEFFFE" transform="matrix(1.00, 0.00, -0.00, -1.00, 1453.0, 529.5)">0</text></g></g><path d="M 1544.0 1082.0 L 1644.0 1082.0 L 1644.0 -2.0 L 1544.0 -2.0 Z M 1543.9 1082.4 " fill="#BFBFBF"></path><g><clipPath id="clip0x6180006bb060"><path d="M 1538.6 -2.4 L 1649.2 -2.4 L 1649.2 1082.4 L 1538.6 1082.4 Z M 1538.6 -2.4 "></path></clipPath><g clip-path="url(#clip0x6180006bb060)"><text xml:space="preserve" font-family="Avenir-Medium,Avenir" font-size="32.0" fill="#FEFFFE" transform="matrix(1.00, 0.00, -0.00, -1.00, 1571.0, 529.5)">1</text><text xml:space="preserve" font-family="Avenir-Medium,Avenir" font-size="32.0" fill="#FEFFFE" transform="matrix(1.00, 0.00, -0.00, -1.00, 1593.9, 529.5)">1</text></g></g><path d="M 1685.0 1082.0 L 1785.0 1082.0 L 1785.0 -2.0 L 1685.0 -2.0 Z M 1684.8 1082.4 " fill="#BFBFBF"></path><g><clipPath id="clip0x6180006bb3c0"><path d="M 1679.5 -2.4 L 1790.1 -2.4 L 1790.1 1082.4 L 1679.5 1082.4 Z M 1679.5 -2.4 "></path></clipPath><g clip-path="url(#clip0x6180006bb3c0)"><text xml:space="preserve" font-family="Avenir-Medium,Avenir" font-size="32.0" fill="#FEFFFE" transform="matrix(1.00, 0.00, -0.00, -1.00, 1711.9, 529.5)">1</text><text xml:space="preserve" font-family="Avenir-Medium,Avenir" font-size="32.0" fill="#FEFFFE" transform="matrix(1.00, 0.00, -0.00, -1.00, 1734.8, 529.5)">2</text></g></g><path d="M 135.0 590.0 L 1080.0 590.0 L 1080.0 490.0 L 135.0 490.0 Z M 135.2 590.0 " fill="#00B7BC" fill-opacity="0.64"></path><g><clipPath id="clip0x6180006bb720"><path d="M 129.9 490.0 L 1085.7 490.0 L 1085.7 590.0 L 129.9 590.0 Z M 129.9 490.0 "></path></clipPath><g clip-path="url(#clip0x6180006bb720)"><text xml:space="preserve" font-family="Avenir-Medium,Avenir" font-size="32.0" fill="#FEFFFE" transform="matrix(1.00, 0.00, -0.00, -1.00, 516.2, 530.1)">C</text><text xml:space="preserve" font-family="Avenir-Medium,Avenir" font-size="32.0" fill="#FEFFFE" transform="matrix(1.00, 0.00, -0.00, -1.00, 543.8, 530.1)">O</text><text xml:space="preserve" font-family="Avenir-Medium,Avenir" font-size="32.0" fill="#FEFFFE" transform="matrix(1.00, 0.00, -0.00, -1.00, 575.6, 530.1)">L</text><text xml:space="preserve" font-family="Avenir-Medium,Avenir" font-size="32.0" fill="#FEFFFE" transform="matrix(1.00, 0.00, -0.00, -1.00, 597.3, 530.1)">-</text><text xml:space="preserve" font-family="Avenir-Medium,Avenir" font-size="32.0" fill="#FEFFFE" transform="matrix(1.00, 0.00, -0.00, -1.00, 612.5, 530.1)">X</text><text xml:space="preserve" font-family="Avenir-Medium,Avenir" font-size="32.0" fill="#FEFFFE" transform="matrix(1.00, 0.00, -0.00, -1.00, 638.4, 530.1)">S</text><text xml:space="preserve" font-family="Avenir-Medium,Avenir" font-size="32.0" fill="#FEFFFE" transform="matrix(1.00, 0.00, -0.00, -1.00, 661.3, 530.1)">-</text><text xml:space="preserve" font-family="Avenir-Medium,Avenir" font-size="32.0" fill="#FEFFFE" transform="matrix(1.00, 0.00, -0.00, -1.00, 676.5, 530.1)">7</text></g></g></g></svg>