<?xml version="1.0" encoding="UTF-8" standalone="no"?><svg xmlns="http://www.w3.org/2000/svg" xmlns:xlink="http://www.w3.org/1999/xlink" clip-rule="evenodd" stroke-miterlimit="10" viewBox="0 0 229 134"><desc>SVG generated by Keynote</desc><defs></defs><g transform="matrix(1.00, 0.00, -0.00, -1.00, 0.0, 134.0)"><path d="M 59.9 10.0 C 59.5 10.2 59.1 10.4 58.5 10.6 C 58.8 10.6 59.1 10.7 59.1 10.9 C 59.6 10.6 60.3 10.3 61.4 10.0 C 61.4 9.9 60.8 10.1 60.4 10.1 C 60.0 10.3 60.0 10.1 59.9 10.0 C 59.9 10.0 59.9 10.0 59.9 10.0 Z M 40.9 115.2 C 40.1 114.7 40.8 115.7 41.1 115.8 C 41.2 115.8 41.3 115.7 41.6 115.9 C 41.5 116.3 40.7 116.1 40.1 115.9 C 37.8 114.5 39.9 114.6 40.9 115.2 C 40.9 115.2 40.9 115.2 40.9 115.2 Z M 172.0 121.7 C 174.1 121.0 171.7 121.2 171.4 121.2 C 172.3 120.7 171.3 120.2 172.4 119.8 C 172.7 119.9 173.2 119.9 173.5 120.1 C 173.0 120.3 172.2 120.5 172.2 120.7 C 172.9 120.5 173.9 120.1 174.1 120.2 C 172.6 120.9 174.0 120.8 174.4 121.1 C 173.0 121.5 172.7 122.1 172.0 121.7 C 172.0 121.7 172.0 121.7 172.0 121.7 Z M 213.6 38.8 C 214.0 39.3 214.4 39.8 214.0 39.9 C 213.6 39.3 213.3 38.9 213.1 38.6 C 212.9 38.6 212.8 38.9 212.4 38.5 C 212.2 37.7 213.0 37.5 213.4 37.6 C 213.1 37.9 214.8 39.6 213.6 38.8 C 213.6 38.8 213.6 38.8 213.6 38.8 Z M 162.4 11.4 C 160.7 10.7 162.2 12.1 160.4 11.4 C 160.6 10.9 160.4 10.3 161.7 10.6 C 161.7 10.9 162.4 11.1 162.4 11.4 C 162.4 11.4 162.4 11.4 162.4 11.4 Z M 115.9 126.6 C 115.9 127.0 117.3 126.8 117.0 127.3 C 116.3 127.3 115.6 127.3 114.9 127.3 C 114.8 126.9 115.0 126.7 115.9 126.6 C 115.9 126.6 115.9 126.6 115.9 126.6 Z M 183.3 111.9 C 185.4 111.6 187.0 109.9 186.6 110.6 C 187.6 110.8 186.0 112.6 185.8 112.0 C 185.4 111.6 181.8 112.6 183.3 111.9 C 183.3 111.9 183.3 111.9 183.3 111.9 Z M 54.1 111.4 C 55.9 112.5 56.1 111.0 57.1 112.2 C 56.7 112.0 56.4 112.1 56.2 112.2 C 56.5 112.3 57.0 112.5 57.0 112.6 C 56.0 112.4 54.8 112.1 54.1 111.4 C 54.1 111.4 54.1 111.4 54.1 111.4 Z M 93.6 4.3 C 94.0 4.2 94.2 4.1 94.1 3.9 C 95.7 3.8 95.6 3.4 96.6 3.6 C 96.8 4.3 95.4 4.2 94.1 4.2 C 94.1 4.3 93.7 4.4 93.6 4.3 C 93.6 4.3 93.6 4.3 93.6 4.3 Z M 138.6 6.4 C 138.6 6.0 137.7 5.8 139.2 5.8 C 140.8 6.6 139.2 6.9 137.5 7.0 C 137.5 7.2 137.4 7.4 137.4 7.7 C 138.1 7.7 138.5 7.9 138.9 8.0 C 139.3 7.3 140.2 8.8 142.8 8.7 C 141.6 8.9 142.8 9.7 141.3 9.2 C 141.6 9.7 140.5 9.5 140.7 10.0 C 141.4 9.8 143.0 10.1 142.7 9.4 C 143.6 9.5 144.3 9.7 144.7 9.9 C 145.2 10.5 143.1 9.7 143.6 10.4 C 144.1 10.5 144.2 10.6 144.5 10.7 C 144.7 10.5 144.5 10.2 145.1 10.3 C 146.6 10.7 144.7 10.8 146.9 11.3 C 147.1 11.0 146.5 10.8 146.6 10.5 C 147.6 10.4 147.5 10.8 148.5 10.7 C 148.7 11.0 147.8 11.0 148.4 11.2 C 149.2 10.5 150.4 12.0 151.9 11.7 C 151.1 10.4 152.0 11.9 153.5 11.1 C 153.7 11.5 152.7 12.0 153.7 12.2 C 153.6 10.9 157.9 12.2 154.6 10.4 C 156.5 10.8 157.3 9.9 155.9 9.4 C 159.0 10.4 158.1 9.5 159.4 9.7 C 160.6 10.0 158.6 9.8 159.2 10.4 C 157.9 10.0 158.2 10.4 157.3 9.9 C 157.2 10.1 157.0 10.2 156.7 10.3 C 158.0 10.2 159.4 11.3 158.3 11.7 C 157.7 11.5 158.4 11.1 157.6 10.8 C 157.7 11.7 156.7 10.5 156.5 11.0 C 157.0 11.8 155.0 11.9 156.7 12.4 C 156.8 12.1 156.8 11.8 156.9 11.6 C 157.4 11.7 157.8 11.8 158.3 11.9 C 158.6 12.5 158.2 12.8 158.5 13.0 C 159.3 13.2 159.8 13.2 160.0 13.0 C 159.1 12.7 158.1 12.0 159.7 12.3 C 158.9 13.1 161.9 13.1 160.5 13.3 C 162.1 14.1 163.2 13.5 163.2 14.2 C 164.1 14.5 163.6 13.8 164.7 14.1 C 166.3 15.1 166.2 14.3 168.3 15.4 C 168.8 14.7 168.5 15.6 169.2 15.9 C 169.3 15.6 169.3 15.3 169.4 15.0 C 170.1 15.7 171.8 16.5 173.8 16.7 C 174.2 17.0 173.7 17.4 175.0 17.7 C 176.5 17.5 177.7 18.8 179.5 18.7 C 179.5 19.2 180.5 19.6 181.1 19.6 C 181.3 20.0 180.3 20.2 181.3 20.6 C 182.1 20.4 181.0 19.8 182.4 20.2 C 182.1 20.6 183.8 20.3 183.6 20.9 C 183.1 20.9 182.6 20.8 182.1 20.8 C 182.7 21.1 182.4 21.3 182.8 21.5 C 183.1 20.8 183.8 21.8 184.1 22.1 C 184.2 21.8 184.4 21.6 184.8 21.6 C 185.5 22.0 186.1 22.2 186.5 22.3 C 187.3 22.9 185.8 22.4 186.6 22.9 C 187.7 22.0 187.8 23.7 190.1 24.0 C 190.3 24.5 191.5 25.4 193.0 26.4 C 193.4 26.2 191.5 25.3 191.7 25.0 C 194.0 26.5 191.4 24.5 192.9 25.4 C 196.2 27.6 198.3 28.9 201.1 31.5 C 201.2 31.2 203.8 32.7 203.6 32.8 C 203.0 32.4 204.4 34.3 205.3 35.1 C 206.1 34.7 207.9 35.3 208.3 35.1 C 208.3 35.7 208.2 35.6 207.9 36.3 C 209.1 37.9 210.4 38.1 210.6 39.5 C 210.8 39.2 211.5 39.7 212.1 40.2 C 211.7 40.3 211.1 40.2 210.6 40.1 C 211.3 40.8 211.3 41.1 211.8 41.7 C 213.5 41.5 213.0 43.7 214.5 43.4 C 215.3 44.5 214.8 44.6 215.5 45.7 C 215.7 45.5 216.0 45.5 216.3 45.7 C 215.7 45.1 215.0 44.8 215.2 44.1 C 216.4 45.6 214.1 40.3 216.6 42.5 C 216.4 42.7 215.9 42.7 216.3 43.3 C 217.5 44.6 217.3 43.5 216.8 42.9 C 217.8 43.8 218.3 45.0 218.3 43.8 C 220.0 46.0 218.7 44.8 219.0 45.8 C 221.9 49.8 224.7 55.5 224.9 61.8 C 225.7 61.9 225.4 65.4 225.0 66.4 C 225.5 68.2 225.5 70.1 224.8 70.6 C 225.4 70.9 224.1 72.6 224.7 72.9 C 224.7 72.1 225.1 71.7 225.1 72.5 C 224.4 75.0 223.2 78.7 223.1 80.3 C 222.1 80.9 221.6 82.5 221.4 83.8 C 221.1 83.8 221.3 82.9 221.0 83.5 C 221.1 83.9 220.3 86.3 219.7 86.7 C 220.1 86.0 219.9 85.0 219.3 85.9 C 219.6 86.1 218.9 87.2 219.4 87.1 C 218.4 88.4 218.1 89.4 217.1 90.4 C 217.7 89.4 217.9 88.7 217.7 88.4 C 217.4 89.3 217.1 90.1 216.3 90.4 C 217.0 90.7 215.7 91.7 215.0 93.2 C 214.5 93.4 214.1 93.5 213.2 94.5 C 213.1 95.3 215.0 93.3 214.1 94.6 C 213.9 94.4 212.7 95.3 213.4 95.4 C 212.0 96.6 211.6 97.6 210.2 98.3 C 211.7 97.1 210.1 97.5 209.7 97.8 C 209.4 98.1 209.0 98.5 209.1 98.6 C 209.2 98.8 209.9 98.1 210.1 98.1 C 209.0 98.9 209.3 99.8 208.6 99.8 C 209.0 99.4 208.9 99.1 208.4 99.5 C 208.8 100.2 205.4 102.4 206.2 101.2 C 206.3 101.4 207.5 100.4 207.5 100.1 C 207.0 100.2 205.4 101.9 205.4 101.2 C 206.4 100.3 206.6 100.7 207.6 99.5 C 207.5 99.1 208.1 98.5 208.4 97.9 C 206.6 99.6 206.6 100.4 205.9 100.1 C 205.2 100.9 206.1 100.9 204.5 101.9 C 202.4 103.4 203.8 101.7 203.2 102.0 C 201.5 103.6 202.5 103.8 203.6 103.5 C 202.1 104.7 201.8 105.3 199.9 106.5 C 199.8 106.2 199.9 105.8 200.5 105.2 C 200.6 105.3 202.4 104.5 202.0 104.3 C 201.4 103.8 200.0 104.5 197.9 105.7 C 198.8 106.0 198.7 105.6 196.6 107.0 C 197.4 107.4 195.5 107.5 195.7 108.0 C 195.9 108.1 196.7 107.6 197.4 107.1 C 197.5 107.4 197.4 107.8 196.7 108.3 C 196.1 108.4 195.9 108.9 194.5 109.5 C 194.2 109.2 195.1 108.5 195.1 108.2 C 194.4 108.6 194.4 108.9 193.7 109.4 C 192.8 109.4 192.5 108.7 192.2 108.1 C 192.9 107.5 194.2 106.7 193.0 107.0 C 196.1 105.1 193.2 107.7 194.5 107.1 C 195.4 105.7 195.2 107.0 197.1 105.7 C 197.7 105.2 197.8 105.0 198.0 104.7 C 197.8 104.7 196.4 105.0 197.6 104.1 C 198.1 104.2 198.8 104.0 199.9 103.4 C 199.7 103.2 197.6 104.3 199.6 103.0 C 200.6 102.3 200.1 103.5 201.4 102.5 C 201.3 102.3 201.6 102.0 201.6 101.9 C 199.8 103.3 201.7 101.3 200.3 102.0 C 201.8 100.6 200.9 102.3 201.9 101.4 C 201.8 101.1 203.8 100.3 203.5 99.7 C 203.0 100.5 201.7 101.4 201.5 100.8 C 202.7 100.0 207.3 95.4 206.0 97.7 C 206.5 96.9 209.2 93.2 209.2 93.7 C 208.3 94.6 208.6 94.8 208.7 95.2 C 210.0 93.0 211.2 92.3 212.3 89.8 C 210.4 92.0 211.1 89.8 209.7 90.8 C 209.3 91.4 208.5 92.1 208.5 92.4 C 209.2 92.5 209.8 91.5 209.8 90.9 C 210.2 91.2 210.5 91.5 210.9 91.8 C 208.4 93.9 207.5 95.5 206.2 96.4 C 207.2 95.4 203.8 97.6 204.9 96.5 C 205.6 96.3 206.8 95.2 207.8 94.4 C 207.7 94.3 207.6 94.1 207.5 94.0 C 207.9 93.6 208.5 93.0 208.3 92.9 C 207.2 94.2 206.1 94.5 205.5 95.7 C 205.4 95.6 205.4 95.5 205.3 95.4 C 205.1 95.6 204.8 95.8 204.8 95.7 C 205.2 95.2 205.9 94.7 205.8 94.5 C 204.8 95.3 204.3 95.1 203.1 96.0 C 202.9 95.4 201.0 96.1 202.5 94.5 C 203.1 94.7 204.1 94.1 204.2 94.3 C 204.8 94.0 205.6 93.1 205.9 92.5 C 205.2 92.7 204.2 93.4 203.8 93.1 C 204.5 92.3 204.9 91.6 205.6 91.5 C 204.4 93.2 206.7 91.1 207.6 90.9 C 207.3 90.9 206.9 91.1 206.5 91.1 C 207.5 90.0 208.3 89.7 207.8 89.2 C 208.8 87.6 209.0 88.3 209.7 87.3 C 208.7 87.5 209.9 86.5 208.9 86.7 C 210.0 85.0 209.8 86.6 210.2 86.1 C 210.5 85.5 210.4 85.3 210.6 84.8 C 211.5 84.3 212.4 82.8 213.1 82.9 C 213.4 82.2 213.7 82.2 214.0 81.5 C 213.9 81.3 213.8 81.0 213.9 80.6 C 214.1 80.6 214.5 80.2 214.4 79.9 C 212.8 81.5 213.0 80.9 211.5 82.5 C 211.6 82.8 211.5 83.0 211.9 82.8 C 211.3 84.1 210.8 84.3 210.0 85.4 C 209.6 85.3 208.8 85.1 208.5 86.4 C 208.2 85.8 207.9 86.0 208.1 85.5 C 208.7 85.2 209.4 84.6 210.0 83.9 C 209.9 83.7 209.6 83.7 209.8 83.3 C 210.3 83.1 210.7 82.6 210.8 82.0 C 211.0 82.2 211.0 82.4 211.0 82.7 C 212.2 81.0 211.2 81.3 212.2 80.2 C 211.8 80.2 211.4 81.0 211.4 80.2 C 211.9 79.0 212.3 78.9 212.7 78.4 C 212.6 78.2 212.4 78.2 212.5 77.9 C 213.2 77.2 212.6 80.1 213.9 78.9 C 213.5 78.6 214.2 77.2 214.6 77.1 C 214.8 77.7 213.9 78.4 214.2 78.6 C 215.4 75.9 215.1 78.9 216.2 76.1 C 216.0 76.0 215.8 75.9 215.6 75.9 C 215.3 77.0 214.9 76.9 214.4 76.7 C 214.1 77.6 213.3 77.7 213.3 78.6 C 212.5 77.9 213.6 77.8 214.0 76.9 C 213.5 76.7 213.1 77.6 212.6 77.5 C 213.9 75.6 213.3 74.9 214.6 73.0 C 213.9 73.4 214.7 71.8 214.3 71.9 C 214.1 73.7 212.8 72.6 212.5 72.9 C 212.3 74.0 213.4 73.7 213.5 74.5 C 212.9 74.7 212.7 74.4 212.0 74.1 C 212.5 73.2 212.4 73.3 212.3 72.5 C 212.9 71.9 213.9 71.5 214.0 72.5 C 214.0 72.3 213.9 70.9 214.3 70.9 C 214.1 72.2 214.6 70.8 214.7 71.6 C 215.2 70.6 214.8 68.8 215.3 67.6 C 214.9 67.7 214.9 67.2 214.6 67.2 C 215.1 68.5 213.9 68.7 213.8 69.8 C 213.8 69.3 213.4 69.5 213.3 69.7 C 213.6 68.7 213.2 68.0 213.7 67.2 C 213.6 67.2 213.4 67.2 213.2 67.2 C 213.7 65.9 213.5 66.1 213.0 65.1 C 213.3 64.6 214.2 65.1 214.7 65.2 C 214.5 64.7 214.4 62.9 213.9 64.0 C 213.8 62.9 214.5 63.1 214.3 61.9 C 213.8 62.0 214.0 63.0 213.2 62.8 C 213.0 61.8 213.8 62.2 213.1 61.5 C 213.6 61.4 214.0 61.2 213.8 60.3 C 213.5 61.1 213.5 60.3 213.2 60.1 C 213.2 60.5 213.2 60.9 213.1 61.2 C 212.8 59.6 212.7 59.2 212.1 58.0 C 212.8 58.3 212.8 57.5 213.3 58.3 C 212.7 57.6 212.9 56.3 212.4 55.9 C 212.5 56.5 212.8 57.4 212.6 57.8 C 211.5 55.2 210.3 54.2 209.6 51.6 C 209.8 51.9 210.1 52.5 210.3 52.5 C 210.2 52.2 209.9 51.8 210.1 51.7 C 210.5 52.5 210.9 53.3 211.3 53.6 C 211.5 54.5 210.8 53.4 211.0 54.2 C 211.4 54.2 211.8 55.7 212.1 54.9 C 211.1 53.8 210.9 52.4 211.3 51.4 C 209.7 50.7 210.5 51.8 208.9 51.1 C 209.1 51.0 209.0 50.6 208.9 50.2 C 208.5 51.0 207.7 49.2 207.6 49.1 C 208.3 49.4 210.1 51.4 209.9 49.9 C 209.2 51.2 208.3 47.1 208.0 48.3 C 206.8 47.0 207.8 47.0 206.6 46.7 C 206.8 46.5 207.1 46.4 206.8 46.0 C 206.4 45.6 206.2 45.6 205.9 45.6 C 207.4 47.7 206.4 47.6 207.3 48.8 C 207.1 48.6 206.9 48.5 206.9 48.6 C 206.8 48.7 206.7 48.7 206.5 48.4 C 207.0 47.9 205.6 47.5 205.7 46.9 C 206.1 47.2 206.4 47.6 206.5 47.3 C 205.1 45.8 205.9 45.6 203.9 43.2 C 204.4 44.1 203.4 43.3 202.6 42.6 C 201.5 41.4 202.5 41.2 201.0 40.0 C 200.3 41.1 199.5 38.5 197.1 37.7 C 197.7 37.3 195.2 35.1 194.3 35.2 C 194.3 35.0 193.3 34.4 192.5 33.9 C 192.5 33.5 193.5 34.0 192.8 33.5 C 192.1 33.1 192.4 34.0 191.5 33.4 C 190.6 32.7 191.1 32.3 189.4 31.4 C 189.2 31.8 190.1 32.2 189.1 32.0 C 187.8 31.0 186.4 30.3 187.4 31.4 C 185.2 30.3 186.8 30.1 185.3 29.3 C 185.6 29.8 185.5 29.9 184.7 29.6 C 184.4 28.9 184.4 28.8 184.3 28.5 C 183.7 28.6 183.8 28.8 182.7 28.0 C 182.6 28.2 182.5 28.4 182.4 28.6 C 181.8 28.3 181.0 28.0 180.9 27.7 C 181.9 28.3 181.8 27.8 182.3 27.8 C 181.3 27.2 179.5 25.8 180.8 27.1 C 179.2 26.6 180.2 26.3 178.9 25.9 C 179.4 26.8 178.9 26.0 177.7 25.5 C 177.5 26.2 176.8 25.3 176.0 25.0 C 176.0 25.4 175.7 25.6 174.9 25.3 C 175.1 25.1 174.7 24.8 173.8 24.5 C 173.7 24.8 175.4 25.7 173.7 25.0 C 172.9 24.5 173.1 24.0 171.9 23.4 C 171.7 22.8 173.1 23.6 173.0 23.0 C 171.8 23.0 171.6 22.5 170.0 21.9 C 170.4 23.0 166.5 22.0 168.2 23.1 C 167.7 22.9 166.7 23.3 166.5 22.7 C 167.1 22.7 166.2 22.0 166.2 21.9 C 165.5 21.7 163.8 20.9 163.6 21.3 C 165.3 21.6 165.2 22.1 165.6 22.6 C 163.1 22.1 161.0 21.3 161.4 20.8 C 161.3 20.9 161.0 20.9 160.8 21.0 C 161.7 21.2 162.0 22.1 161.0 21.9 C 161.4 21.5 160.7 21.1 160.0 20.8 C 159.8 21.2 156.7 19.7 157.2 20.6 C 158.6 20.5 159.4 21.5 158.3 21.6 C 157.6 20.9 155.9 20.2 156.4 19.9 C 155.9 19.9 155.4 20.0 154.9 20.0 C 154.4 20.4 155.4 20.6 155.2 21.0 C 154.5 20.8 153.5 20.6 153.4 20.4 C 155.2 20.7 152.6 19.9 154.5 19.9 C 153.3 19.7 153.1 19.3 152.3 19.1 C 152.2 19.2 151.9 19.2 151.7 19.3 C 152.6 19.2 153.3 19.6 153.0 20.1 C 151.4 19.9 151.8 19.3 150.4 19.0 C 149.9 19.3 147.9 19.6 147.0 19.1 C 148.9 19.4 146.9 18.8 148.1 18.8 C 149.7 19.4 150.2 19.0 150.9 18.6 C 150.3 18.2 148.9 17.7 148.6 18.3 C 149.5 18.6 149.5 18.3 150.1 18.3 C 149.9 18.6 149.6 18.8 149.0 18.8 C 148.3 18.2 146.5 18.3 147.8 17.8 C 146.5 17.9 145.3 17.2 144.0 17.3 C 145.4 17.6 146.3 18.0 146.7 18.5 C 145.5 18.5 144.5 17.7 144.3 18.1 C 144.4 18.6 146.2 18.7 146.5 19.2 C 145.0 19.4 143.0 17.6 144.7 19.0 C 143.9 18.8 142.7 18.6 142.4 18.3 C 143.4 18.4 142.4 17.6 142.0 17.4 C 141.2 17.3 140.5 17.3 140.1 17.4 C 141.5 17.4 142.4 18.3 141.4 18.2 C 141.3 17.8 140.9 18.2 140.5 18.2 C 140.5 17.9 138.9 17.9 138.7 17.6 C 138.7 17.9 139.4 18.0 139.5 18.2 C 138.6 18.3 137.3 18.9 136.7 18.0 C 137.3 18.1 138.0 18.2 138.1 18.0 C 135.8 17.0 135.0 16.3 132.1 15.7 C 132.5 15.7 132.7 15.6 132.6 15.4 C 130.8 15.1 129.6 14.8 129.8 14.5 C 128.6 14.4 128.0 14.7 127.4 15.0 C 128.6 15.3 129.0 14.9 129.7 15.3 C 129.3 15.4 130.6 16.4 131.1 16.8 C 133.2 16.4 133.2 17.3 135.4 17.2 C 134.7 17.7 136.9 17.5 136.2 18.0 C 134.4 17.0 132.4 17.4 129.6 16.8 C 130.0 16.4 130.4 16.1 129.2 15.8 C 127.4 15.4 128.3 16.2 126.8 15.9 C 126.2 15.5 127.1 15.4 126.3 15.2 C 125.8 15.4 124.4 15.3 124.0 14.7 C 125.9 14.9 123.6 14.3 124.9 14.1 C 124.3 14.1 123.9 14.0 123.5 13.9 C 125.4 14.6 121.5 14.5 122.9 15.0 C 120.2 15.2 122.8 13.7 120.6 13.8 C 121.7 14.2 120.2 14.4 118.6 14.2 C 118.2 13.7 116.5 13.6 115.2 13.3 C 115.9 13.7 116.4 13.7 115.2 14.0 C 115.8 14.2 117.0 14.3 117.6 14.0 C 117.6 14.3 117.8 14.4 118.1 14.6 C 116.5 14.6 117.2 14.9 116.6 15.1 C 116.2 14.8 115.0 14.8 114.7 14.5 C 114.7 14.7 114.3 14.7 114.2 14.9 C 116.3 14.9 113.9 15.6 115.2 15.7 C 116.1 15.7 115.5 15.2 116.6 15.2 C 117.7 15.9 115.7 15.9 115.2 16.4 C 116.1 16.8 117.2 16.1 117.6 16.8 C 116.3 17.3 114.4 16.9 112.8 16.8 C 112.9 17.5 110.1 16.6 109.9 17.5 C 109.6 17.3 109.4 17.1 108.9 17.0 C 108.5 17.6 107.9 16.9 107.5 16.9 C 107.4 17.2 107.6 17.4 108.0 17.6 C 106.0 17.3 105.5 17.4 103.2 17.8 C 102.8 17.5 102.4 17.2 102.2 16.8 C 102.7 16.7 103.2 16.6 103.6 16.4 C 100.4 16.5 102.6 17.8 100.3 17.1 C 100.4 17.4 102.0 17.9 100.8 18.1 C 98.8 17.6 96.0 18.5 96.0 17.0 C 94.1 16.7 93.1 17.8 92.1 17.3 C 91.6 17.4 91.4 17.6 91.2 17.8 C 91.8 18.0 92.5 18.2 93.2 18.4 C 94.2 18.0 94.7 18.4 93.7 17.8 C 95.2 17.5 95.7 17.9 96.5 18.0 C 94.4 18.6 92.4 18.4 92.4 19.1 C 91.6 18.9 91.0 18.6 90.4 18.4 C 90.2 18.8 87.8 19.3 87.5 18.8 C 89.2 18.7 90.8 17.8 89.3 17.7 C 85.3 18.6 82.9 18.1 79.6 19.3 C 79.4 19.1 79.6 18.7 79.0 18.7 C 79.0 19.0 79.0 19.3 78.6 19.5 C 77.6 19.7 76.9 19.6 75.5 20.0 C 75.4 19.5 75.1 19.2 74.3 19.2 C 74.0 19.9 72.8 21.2 71.9 21.2 C 72.8 21.0 71.5 20.6 70.9 20.8 C 71.6 21.4 66.8 21.3 68.3 21.7 C 66.5 22.2 65.6 22.2 65.5 21.9 C 64.9 22.2 64.5 22.5 63.9 22.8 C 63.3 22.2 60.5 23.7 59.9 23.6 C 61.1 23.5 61.0 22.6 60.2 22.9 C 59.7 23.5 57.2 24.9 56.7 24.9 C 56.8 24.7 56.8 24.1 58.0 23.5 C 55.8 24.2 56.1 25.0 55.6 25.7 C 55.4 25.0 54.6 26.0 54.4 26.2 C 53.6 26.2 54.3 26.0 54.1 25.6 C 53.3 25.8 52.9 25.7 52.0 26.1 C 52.5 26.5 51.3 26.7 50.9 26.8 C 50.8 27.2 50.4 27.6 49.6 28.1 C 50.4 26.7 44.3 29.5 46.0 29.4 C 45.1 30.4 44.5 29.5 43.1 30.3 C 43.0 30.8 42.1 31.0 43.0 31.0 C 41.9 31.7 42.1 30.8 40.3 32.1 C 41.5 32.2 38.4 33.1 39.2 33.6 C 37.9 33.2 37.1 35.2 35.2 35.5 C 35.3 35.6 35.0 35.9 35.0 36.1 C 34.9 36.5 36.9 35.3 35.7 36.2 C 34.0 36.9 34.7 36.2 34.3 36.1 C 30.5 39.2 26.3 42.5 23.4 45.6 C 23.9 45.4 24.0 45.5 23.5 46.3 C 22.0 46.5 19.6 50.7 19.5 51.5 C 18.8 51.5 18.2 53.8 17.8 54.0 C 18.0 53.6 17.9 52.6 17.5 53.4 C 17.8 54.2 17.0 54.7 17.1 55.7 C 16.3 55.8 16.1 58.5 15.5 57.1 C 15.3 57.5 15.1 57.8 15.0 58.0 C 15.6 58.2 15.3 58.7 15.9 57.9 C 14.7 60.0 15.1 60.7 14.4 62.3 C 14.7 62.7 15.2 61.4 15.1 62.4 C 15.0 62.4 14.9 62.4 14.7 62.4 C 14.7 62.7 14.9 62.9 14.6 63.0 C 14.4 62.9 14.5 62.4 13.9 62.2 C 14.0 63.1 13.2 63.6 13.7 64.0 C 13.9 62.8 14.7 63.7 14.1 64.3 C 13.9 63.7 14.0 67.1 14.4 68.1 C 13.8 68.6 14.2 66.9 13.8 67.1 C 14.0 69.1 13.8 68.9 14.4 69.1 C 14.4 70.2 14.1 70.6 14.6 71.8 C 14.5 72.6 14.1 71.5 14.2 72.3 C 14.4 72.7 14.8 72.9 15.0 73.5 C 14.3 75.6 17.6 79.3 17.4 82.2 C 17.2 81.1 18.1 82.1 18.8 83.2 C 18.6 83.4 18.3 83.4 18.5 83.8 C 18.8 83.6 19.2 83.8 19.6 84.6 C 19.5 84.8 19.2 84.8 19.4 85.2 C 20.2 85.2 20.3 86.4 21.0 86.7 C 20.7 87.3 19.8 85.7 19.4 85.8 C 20.4 87.8 21.1 87.7 22.1 89.2 C 21.5 88.5 22.1 90.0 22.2 90.4 C 22.4 89.6 23.5 90.6 23.1 89.6 C 23.5 90.1 24.3 90.8 24.2 91.0 C 23.9 90.8 23.6 90.3 23.4 90.4 C 24.1 91.0 24.4 92.2 25.1 92.1 C 24.7 91.7 24.6 91.3 24.8 91.1 C 25.1 91.1 25.4 91.2 25.8 91.4 C 23.9 91.4 27.2 93.7 27.6 93.6 C 27.4 94.5 27.5 94.6 27.2 94.8 C 28.5 96.0 28.7 95.4 29.6 96.0 C 29.0 96.2 28.4 96.4 29.5 97.6 C 29.7 96.9 31.2 98.2 31.2 97.2 C 34.8 99.7 35.2 100.9 37.7 102.3 C 37.9 102.2 37.1 101.7 37.9 102.0 C 39.0 102.9 39.9 103.7 40.6 104.4 C 41.4 104.4 40.6 103.8 41.4 104.1 C 43.1 105.6 42.2 105.8 43.2 106.8 C 44.9 107.2 44.2 107.2 45.4 107.1 C 45.0 106.9 44.6 106.4 45.2 106.7 C 45.9 107.6 46.0 108.3 46.2 108.5 C 45.5 108.2 45.0 107.9 44.7 107.6 C 44.4 107.8 43.4 107.3 44.1 108.0 C 43.1 107.4 42.4 106.9 40.4 105.9 C 40.8 106.7 38.6 105.0 39.0 105.9 C 41.3 107.0 41.4 107.5 42.9 108.2 C 42.9 107.5 44.3 108.6 44.6 108.8 C 44.7 108.5 45.8 109.2 45.7 108.6 C 46.9 109.1 46.7 109.4 48.0 109.9 C 48.0 110.1 47.7 110.3 48.2 110.5 C 48.8 110.2 48.9 111.1 49.3 111.2 C 49.3 110.6 51.0 111.6 51.2 111.3 C 50.8 111.1 50.1 110.8 50.1 110.6 C 52.0 111.5 50.6 110.3 50.4 109.8 C 50.4 110.1 49.4 110.4 49.4 110.0 C 51.2 110.3 47.5 108.1 48.9 109.0 C 50.1 109.6 50.1 109.2 51.4 109.9 C 52.5 111.4 50.5 111.1 51.8 112.4 C 52.9 112.4 53.5 112.7 53.7 112.3 C 53.9 112.6 54.0 112.9 54.4 113.1 C 54.9 113.0 53.3 112.1 54.6 112.5 C 55.2 112.9 54.2 113.2 55.7 113.6 C 56.4 113.4 54.2 112.5 55.5 112.8 C 56.5 114.1 55.3 112.5 56.8 113.0 C 56.9 113.1 57.2 113.3 57.7 113.4 C 57.7 113.7 57.3 114.0 57.9 114.2 C 58.4 113.5 58.3 114.8 59.5 115.0 C 60.4 114.6 58.5 114.3 59.0 113.9 C 60.1 114.9 61.1 114.5 61.6 114.8 C 60.3 114.8 63.1 115.6 63.1 116.1 C 62.9 115.5 63.5 115.9 65.1 115.9 C 64.9 116.8 66.9 116.7 67.1 117.5 C 67.4 117.3 67.9 117.3 68.2 117.1 C 67.6 116.9 67.1 116.7 67.4 116.5 C 67.8 116.6 68.2 116.7 68.7 116.9 C 69.4 117.5 67.1 118.0 70.2 118.7 C 70.0 117.9 71.3 118.2 72.3 118.1 C 72.3 117.5 71.0 117.8 71.0 117.5 C 72.1 117.3 73.1 118.1 73.7 118.5 C 75.5 118.6 77.6 119.4 80.3 119.7 C 80.8 120.2 78.0 119.7 79.7 120.3 C 80.4 120.4 80.1 119.9 81.1 120.2 C 79.8 122.2 88.3 121.8 88.7 122.8 C 89.1 122.4 91.3 123.0 91.2 122.3 C 89.6 122.6 88.6 121.7 87.9 121.3 C 86.4 121.4 89.1 122.0 87.8 122.0 C 87.7 121.6 85.6 121.6 85.9 121.2 C 88.0 121.5 84.9 120.5 86.5 120.2 C 88.4 120.6 92.3 120.6 91.3 121.1 C 91.4 120.9 90.5 120.8 90.4 121.0 C 92.5 121.5 93.9 121.2 94.8 121.0 C 95.8 121.5 99.7 121.1 98.7 121.3 C 99.0 121.8 96.4 121.0 96.7 121.5 C 100.8 122.1 100.9 121.7 103.6 122.2 C 102.7 121.5 106.4 121.4 106.1 121.7 C 106.1 122.2 106.9 122.6 108.5 122.1 C 108.3 122.6 109.1 122.8 110.0 123.0 C 110.4 122.5 109.3 122.5 109.5 122.1 C 110.3 122.1 111.2 122.2 112.0 122.2 C 112.0 122.4 111.9 122.7 112.5 122.7 C 113.4 122.4 116.7 121.9 116.4 122.2 C 115.0 122.9 118.7 122.7 116.4 123.2 C 117.1 123.2 117.1 123.4 117.9 123.4 C 117.9 123.1 117.9 122.9 117.9 122.7 C 119.8 122.6 118.9 123.5 120.4 123.5 C 120.5 123.2 121.2 123.2 121.4 122.9 C 120.8 123.0 120.7 123.2 119.9 123.1 C 120.8 122.3 118.3 122.7 118.4 122.2 C 120.1 122.0 120.1 122.5 120.9 122.8 C 123.0 122.3 122.0 122.6 124.3 122.6 C 124.3 122.4 123.7 122.4 123.8 122.1 C 126.6 122.2 126.4 123.2 128.3 122.7 C 127.9 122.8 126.2 123.3 127.4 123.3 C 128.7 123.0 129.0 122.4 130.7 122.2 C 130.8 122.4 130.7 122.7 131.3 122.7 C 132.0 122.4 132.0 122.0 132.7 121.7 C 132.8 121.9 133.8 121.7 134.1 121.6 C 134.8 121.9 134.0 122.1 134.7 122.2 C 136.2 122.0 136.8 120.8 138.0 120.8 C 138.0 121.5 139.3 121.1 140.5 120.8 C 140.8 121.4 143.2 120.9 144.9 120.8 C 144.4 120.4 146.2 120.3 145.7 119.8 C 144.9 120.0 144.5 119.9 144.2 119.7 C 146.1 119.4 146.8 120.3 148.1 119.2 C 148.8 119.5 149.8 119.6 151.0 119.5 C 151.1 119.2 148.7 119.4 150.0 119.0 C 150.1 119.2 150.5 119.0 150.9 118.9 C 150.8 119.5 151.9 119.4 152.5 119.6 C 153.5 118.9 156.0 119.1 154.8 118.7 C 156.5 118.2 155.6 119.4 156.9 119.1 C 156.0 118.6 158.3 118.0 157.0 117.8 C 158.8 117.3 158.8 118.2 158.2 118.6 C 159.8 118.4 160.1 117.8 161.0 117.9 C 160.1 117.6 162.4 116.7 161.3 117.3 C 161.0 117.9 162.8 117.1 163.2 117.3 C 162.5 117.1 163.4 116.8 162.2 116.9 C 163.3 116.4 165.0 115.8 166.3 116.0 C 167.7 115.3 169.0 114.8 168.5 115.5 C 169.9 114.9 169.4 115.1 170.8 114.8 C 170.7 114.6 170.3 114.7 170.2 114.6 C 172.0 113.9 171.8 114.4 174.2 113.5 C 174.1 114.2 175.7 113.6 176.3 113.8 C 175.2 114.2 174.4 114.3 173.6 114.5 C 173.5 114.8 174.3 114.6 173.7 114.9 C 173.6 114.8 173.2 114.9 172.8 114.9 C 174.5 114.8 171.0 116.5 172.0 115.6 C 172.0 115.7 172.1 115.7 172.5 115.6 C 172.0 115.2 172.1 115.4 172.2 114.8 C 171.4 115.2 170.6 114.8 170.4 115.4 C 170.6 115.6 171.3 115.3 171.5 115.4 C 169.6 116.4 170.6 115.0 169.1 115.7 C 169.0 116.3 169.8 116.2 170.3 116.3 C 168.8 116.9 167.6 117.3 167.1 117.0 C 165.8 117.6 167.3 117.4 166.4 118.0 C 165.8 117.9 165.8 117.5 164.8 117.7 C 163.9 118.2 165.5 117.9 164.5 118.3 C 163.3 118.3 165.1 117.4 163.4 117.8 C 164.0 118.4 161.8 118.1 162.1 118.5 C 163.0 118.1 163.2 118.9 162.6 118.5 C 160.2 118.5 159.1 120.7 156.6 120.1 C 156.6 120.2 156.3 120.3 156.2 120.5 C 158.0 120.5 160.5 119.9 161.1 120.5 C 162.4 120.0 162.1 119.6 162.3 119.3 C 164.0 119.5 164.0 119.6 163.2 120.7 C 160.6 121.5 159.3 121.4 157.5 121.6 C 156.6 122.2 157.6 121.8 158.0 122.0 C 152.3 122.8 156.9 123.3 154.9 123.6 C 154.9 123.3 154.4 123.3 153.8 123.3 C 153.9 123.5 153.0 123.6 152.9 123.8 C 153.3 123.8 153.5 123.9 153.5 124.1 C 152.1 124.5 152.5 123.9 152.4 123.6 C 153.5 123.4 154.2 123.2 154.2 122.9 C 152.9 123.4 151.7 123.2 150.9 123.9 C 149.5 123.4 151.3 122.3 150.5 121.9 C 150.7 121.4 149.9 123.3 148.9 123.8 C 147.1 124.0 147.2 124.6 145.6 124.9 C 145.0 124.4 147.1 124.4 146.9 123.9 C 146.5 124.0 146.3 123.9 145.9 123.9 C 144.8 124.2 144.9 124.6 144.0 124.9 C 143.5 124.5 143.2 124.8 142.6 125.1 C 141.5 125.1 143.2 124.6 142.0 124.7 C 140.8 124.8 140.0 125.6 139.6 125.6 C 139.5 125.4 139.6 125.1 139.1 125.1 C 137.7 125.7 137.4 125.7 139.2 125.8 C 137.6 125.9 136.9 126.2 137.2 126.7 C 139.6 126.5 140.2 126.3 141.3 126.9 C 141.7 126.2 142.4 126.6 143.3 126.6 C 142.6 125.8 144.3 126.4 144.7 125.9 C 144.1 125.9 143.5 125.8 143.2 125.7 C 145.7 125.4 145.6 125.5 147.5 124.4 C 147.5 124.6 147.8 124.7 148.1 124.8 C 147.5 125.1 145.7 125.3 145.7 125.7 C 147.2 126.1 147.5 125.0 149.2 125.4 C 149.8 124.9 147.8 125.0 149.1 124.8 C 149.8 125.0 150.6 125.1 151.7 125.1 C 152.7 124.8 153.2 124.5 154.0 124.1 C 154.1 124.3 154.3 124.5 155.0 124.3 C 154.9 124.1 154.1 124.1 154.9 123.8 C 157.6 123.8 159.4 123.9 161.8 123.0 C 160.9 123.0 158.8 123.0 159.8 122.8 C 161.0 122.8 162.3 121.8 163.6 122.0 C 164.0 122.0 162.1 122.2 162.8 122.9 C 163.9 122.5 164.6 122.4 165.2 122.4 C 165.1 122.1 166.4 121.8 165.9 121.5 C 165.0 121.7 164.9 122.4 164.6 122.2 C 165.0 120.6 168.2 121.7 169.9 121.1 C 170.9 120.6 168.9 120.9 170.1 120.4 C 170.8 119.9 171.7 120.9 170.5 121.5 C 169.6 121.5 169.4 122.3 169.0 121.8 C 168.7 121.9 168.1 122.1 168.2 122.2 C 168.8 122.1 168.8 122.4 169.2 122.4 C 168.3 122.6 168.5 123.6 167.5 123.3 C 168.0 123.1 168.2 122.9 168.3 122.7 C 165.9 123.6 165.0 123.4 163.5 123.6 C 164.3 123.7 163.5 123.8 163.7 124.2 C 164.7 123.8 166.9 123.5 165.6 124.0 C 164.6 123.6 164.4 125.4 163.4 125.0 C 164.0 124.8 163.8 124.5 164.2 124.3 C 163.2 124.5 163.1 124.1 162.1 124.3 C 159.2 125.9 156.5 125.1 151.6 127.2 C 149.8 127.6 153.2 126.7 152.9 126.3 C 152.4 126.4 152.3 126.3 151.9 126.3 C 152.0 126.9 151.0 126.5 150.5 127.1 C 150.5 126.5 148.2 127.5 146.9 127.2 C 146.9 127.4 147.1 127.7 146.5 127.8 C 142.8 127.7 136.2 129.5 133.4 129.2 C 133.5 129.6 132.3 129.7 131.9 130.0 C 130.1 130.0 130.9 129.6 128.3 130.2 C 127.0 130.4 128.6 129.9 128.8 129.7 C 124.9 130.2 121.5 129.8 119.1 130.5 C 117.8 130.7 119.0 130.1 116.5 130.0 C 116.4 130.8 112.4 129.6 111.9 130.5 C 110.3 130.6 107.5 129.5 108.8 130.3 C 106.6 130.3 108.1 129.6 107.2 129.6 C 105.8 129.6 107.6 130.9 106.2 130.9 C 106.3 130.3 105.1 130.5 104.2 129.9 C 105.3 130.0 106.1 130.0 106.2 129.7 C 105.2 130.0 105.3 129.5 103.7 129.5 C 102.5 129.8 99.0 130.0 98.0 129.2 C 98.0 129.4 98.3 129.5 98.5 129.7 C 97.5 129.7 96.4 129.0 96.4 129.7 C 94.2 129.5 93.2 128.8 91.9 129.2 C 90.9 129.3 92.3 128.7 89.4 128.4 C 89.3 128.9 84.2 128.1 82.9 127.4 C 82.7 128.1 82.5 127.4 81.9 127.3 C 81.8 127.4 81.9 127.7 81.3 127.7 C 81.2 127.4 80.8 127.5 80.3 127.5 C 80.8 126.7 78.4 127.4 78.4 126.8 C 78.9 126.8 78.9 126.4 78.5 126.3 C 78.2 126.8 76.4 125.5 76.5 126.1 C 76.9 126.3 78.3 126.5 77.9 126.8 C 75.9 126.7 76.8 126.1 75.5 125.8 C 75.6 126.1 76.3 126.4 75.4 126.3 C 74.1 126.0 75.3 126.2 74.6 125.6 C 73.8 125.6 72.5 125.7 72.0 125.6 C 72.1 125.6 71.8 125.2 71.6 125.1 C 69.1 124.3 63.4 123.4 61.3 122.0 C 61.0 122.2 60.5 122.1 60.6 122.5 C 59.3 121.7 59.3 121.9 58.0 121.3 C 57.9 121.5 57.8 121.7 57.7 121.9 C 55.8 121.6 57.8 121.2 56.6 120.8 C 56.1 121.9 56.0 120.2 54.9 119.8 C 54.7 120.0 54.1 119.9 54.2 120.3 C 52.4 119.7 52.8 118.9 51.2 118.6 C 51.6 118.8 51.2 120.5 50.9 120.9 C 50.7 120.5 50.3 120.2 49.7 119.9 C 50.7 119.7 51.0 117.7 48.7 117.4 C 49.8 117.8 50.2 118.1 49.8 118.4 C 48.2 117.8 47.8 117.3 46.4 116.6 C 46.0 117.0 47.0 117.5 46.4 117.9 C 46.0 117.8 45.8 117.8 45.8 118.0 C 44.4 117.3 44.6 116.9 42.9 116.5 C 43.0 116.2 43.4 116.3 43.8 116.8 C 43.9 116.3 44.1 116.0 45.0 116.4 C 45.0 116.7 44.2 117.0 45.6 117.4 C 45.7 117.1 45.8 116.9 46.0 116.6 C 45.0 116.2 43.0 114.8 42.6 114.9 C 43.0 115.3 43.7 115.7 43.1 116.1 C 41.6 115.2 41.4 114.4 40.2 113.5 C 37.9 112.5 32.6 109.2 32.8 110.3 C 31.1 109.0 31.8 109.4 30.3 108.3 C 30.5 109.1 28.5 107.3 28.4 107.8 C 30.3 109.0 29.7 108.7 31.6 109.7 C 31.4 110.0 30.9 110.0 30.2 109.6 C 30.2 109.3 29.5 108.7 28.3 107.9 C 28.4 108.2 29.2 109.4 27.9 108.5 C 27.9 108.3 27.6 108.1 27.0 107.7 C 27.2 107.4 27.3 107.2 27.5 107.0 C 28.3 107.3 29.2 107.8 29.8 108.0 C 29.3 107.6 29.3 107.4 28.9 107.1 C 28.4 107.2 26.6 105.5 26.2 105.6 C 27.0 106.2 27.4 106.8 26.5 106.3 C 26.4 106.1 25.2 105.0 24.6 104.8 C 26.1 106.3 25.4 105.8 26.0 106.9 C 23.9 105.6 24.6 105.3 22.4 103.7 C 22.6 103.4 22.9 103.1 23.6 103.3 C 22.9 101.5 19.4 99.6 18.6 98.7 C 19.2 99.3 20.4 99.5 19.5 98.6 C 19.3 98.7 18.7 98.0 18.4 98.0 C 17.4 98.4 17.9 99.6 18.2 100.7 C 17.5 99.9 17.2 99.9 16.5 99.2 C 16.5 98.7 17.8 98.9 17.0 98.0 C 16.2 98.3 15.3 96.3 14.6 96.4 C 15.2 97.0 15.4 97.6 14.7 97.0 C 15.1 96.9 13.8 95.7 14.0 95.5 C 15.1 96.4 15.7 96.3 16.3 97.0 C 15.6 96.2 17.2 97.3 16.0 95.9 C 15.2 95.5 14.5 95.5 13.3 94.0 C 12.9 93.3 13.7 93.5 13.2 92.7 C 12.9 93.3 11.6 91.7 12.7 92.4 C 12.3 91.8 12.1 91.5 11.9 91.1 C 12.1 92.2 8.8 88.5 8.9 89.3 C 9.5 88.9 9.9 88.4 10.0 88.1 C 9.0 87.6 8.8 86.4 7.7 84.2 C 7.1 84.6 7.4 83.9 6.9 83.0 C 6.6 82.9 6.8 83.8 6.4 83.2 C 6.2 82.0 6.2 81.9 6.3 81.6 C 6.0 80.8 5.8 80.2 5.8 79.7 C 5.6 79.7 5.5 80.1 5.5 80.3 C 4.9 77.0 3.9 75.6 3.6 72.8 C 3.5 74.0 4.4 74.1 4.2 73.2 C 4.0 72.7 3.8 72.2 3.6 71.9 C 3.2 72.6 3.4 72.3 3.3 70.9 C 3.0 69.7 2.5 71.5 2.4 70.5 C 2.6 69.5 2.9 70.1 3.0 69.5 C 3.0 69.0 3.0 68.5 3.0 68.0 C 2.7 68.9 2.4 68.0 2.3 67.1 C 2.9 67.7 3.0 67.4 2.8 65.6 C 3.1 65.5 3.2 66.4 3.3 65.7 C 3.4 65.3 2.7 63.9 3.4 62.8 C 3.4 63.2 3.4 63.4 3.7 63.3 C 3.4 62.0 4.3 61.2 4.6 60.1 C 4.0 61.1 3.7 60.5 3.3 60.9 C 3.9 59.8 3.6 58.4 4.5 57.6 C 3.9 59.2 5.4 57.9 5.7 57.0 C 5.3 56.6 5.0 58.3 4.5 57.6 C 4.2 57.0 5.3 56.0 5.0 55.3 C 4.6 55.3 4.8 56.0 4.5 56.1 C 4.7 55.3 4.2 56.3 4.3 55.6 C 5.0 55.3 4.5 54.6 4.6 54.1 C 5.0 53.6 6.1 52.6 6.0 52.0 C 5.8 51.9 5.5 52.7 5.3 52.8 C 6.0 50.1 7.0 49.7 7.7 47.2 C 8.0 47.0 8.4 46.7 8.9 46.1 C 8.6 46.0 8.7 45.5 9.0 45.0 C 9.8 44.2 10.6 43.4 11.6 42.3 C 11.8 42.8 11.5 43.4 12.7 41.9 C 12.6 41.7 12.1 42.3 12.4 41.7 C 12.5 41.7 12.8 41.4 12.8 41.2 C 12.7 41.2 12.6 41.1 12.5 41.0 C 12.1 41.5 11.8 41.9 11.6 42.3 C 11.3 42.1 11.1 42.1 10.7 42.3 C 11.8 40.3 12.6 41.1 13.2 39.6 C 14.0 39.9 14.4 39.6 14.1 41.0 C 14.8 39.8 15.2 39.0 15.1 38.4 C 14.1 39.7 13.9 38.9 13.4 39.0 C 14.1 38.3 13.9 38.1 14.2 37.6 C 15.3 36.9 14.0 39.2 15.7 37.5 C 14.0 38.4 16.3 36.0 17.3 35.2 C 17.0 35.2 16.7 35.5 16.9 34.9 C 19.1 32.3 20.1 33.8 21.0 31.7 C 21.1 32.1 21.8 31.5 22.2 31.4 C 21.1 32.6 20.8 32.9 20.3 33.5 C 20.5 33.6 21.0 33.3 21.4 33.0 C 21.2 32.8 21.5 32.4 22.2 32.1 C 22.3 31.5 21.7 31.1 22.5 29.8 C 22.7 29.9 22.7 30.2 23.3 29.8 C 23.5 29.1 23.4 30.8 25.6 28.9 C 25.0 29.1 24.6 29.0 24.6 28.6 C 25.6 27.6 25.5 27.9 26.9 26.7 C 28.0 26.9 26.4 28.2 26.3 29.0 C 27.3 28.1 27.8 27.0 29.1 26.6 C 28.1 26.9 28.7 26.0 29.6 25.2 C 30.6 24.7 30.0 25.9 31.2 25.2 C 31.9 24.5 32.2 23.8 31.2 24.1 C 33.3 23.0 32.5 22.8 34.3 21.9 C 34.5 22.1 34.1 22.4 33.3 22.7 C 33.5 22.8 33.4 23.1 34.1 22.8 C 35.0 21.7 37.5 20.3 38.4 19.4 C 40.6 19.3 42.3 17.2 44.3 16.7 C 43.8 17.5 46.9 15.6 48.1 15.8 C 48.6 15.4 50.1 13.6 49.5 14.3 C 50.0 14.9 51.1 14.2 52.0 14.0 C 52.0 13.8 51.9 13.7 51.9 13.5 C 53.8 12.7 54.5 13.0 55.3 13.2 C 57.6 11.9 60.6 11.8 63.6 10.3 C 64.5 10.7 65.2 10.3 67.1 10.2 C 66.9 9.7 68.4 9.3 69.8 9.0 C 69.4 8.6 70.8 8.4 70.7 8.1 C 69.4 8.4 69.7 7.6 69.0 7.6 C 70.8 7.7 71.5 6.5 72.9 6.7 C 71.3 7.3 70.9 8.1 70.9 8.9 C 72.8 8.3 73.9 8.3 74.4 8.6 C 74.4 8.2 74.2 8.0 73.7 7.9 C 74.4 7.8 75.0 7.6 75.6 7.5 C 75.9 7.7 75.0 8.1 75.7 8.0 C 76.2 7.7 76.7 7.4 77.1 7.2 C 77.8 7.6 76.4 7.7 76.3 8.0 C 79.0 7.7 77.6 6.9 79.0 6.5 C 79.5 6.7 79.5 7.3 80.7 7.2 C 81.1 6.7 81.2 6.3 82.6 6.0 C 83.4 6.0 82.6 6.8 83.7 6.7 C 83.8 6.4 84.2 6.5 84.7 6.5 C 84.6 6.2 85.0 6.0 85.6 5.9 C 85.8 6.1 86.7 5.8 87.1 5.6 C 87.2 5.9 88.9 6.3 89.2 5.9 C 89.2 5.6 88.3 5.8 88.2 5.7 C 89.3 5.6 90.1 5.4 90.6 5.2 C 91.1 6.3 92.9 5.1 95.3 5.5 C 96.7 5.0 94.9 4.6 96.7 4.2 C 97.8 4.4 96.5 4.7 96.8 5.2 C 97.1 5.2 98.8 5.4 98.8 5.0 C 98.8 4.8 97.9 4.9 97.8 4.7 C 99.1 4.2 99.1 4.8 99.9 4.9 C 99.7 4.5 100.6 4.3 100.8 4.0 C 104.5 3.4 104.5 4.4 106.0 4.7 C 106.0 4.5 106.9 4.5 107.0 4.3 C 105.9 4.6 104.5 4.2 106.0 4.0 C 105.7 4.3 107.9 4.0 108.0 3.8 C 107.8 3.5 106.4 3.7 106.9 3.2 C 108.9 2.9 108.1 3.9 109.6 3.4 C 109.7 3.7 108.9 3.8 108.5 4.0 C 109.1 4.0 110.0 3.9 110.1 4.1 C 109.3 4.2 109.3 4.7 109.1 5.0 C 110.0 4.5 111.9 4.9 110.6 4.2 C 112.6 4.3 114.6 4.0 113.2 3.5 C 114.8 3.4 113.9 4.1 115.2 3.7 C 115.0 4.3 114.6 4.6 115.7 5.0 C 115.9 4.7 116.8 4.6 116.8 4.2 C 119.2 4.2 119.9 4.8 120.9 5.3 C 120.0 4.5 121.2 5.2 122.4 4.7 C 123.1 4.9 122.4 5.6 124.4 5.4 C 122.3 4.6 126.9 5.4 126.0 4.5 C 128.5 5.0 128.5 5.0 131.1 5.4 C 130.8 5.7 130.2 5.9 129.0 5.9 C 129.8 5.5 126.8 5.3 127.0 5.6 C 127.0 5.7 127.0 5.8 127.0 5.9 C 128.9 6.0 130.2 6.2 131.0 6.6 C 131.4 6.2 132.3 6.1 132.1 5.5 C 133.9 6.3 135.9 5.6 136.6 6.3 C 136.0 6.2 135.4 6.2 135.6 6.5 C 136.3 6.4 137.2 6.4 137.2 6.0 C 135.7 5.7 135.4 5.6 134.6 5.9 C 135.3 5.5 133.2 5.0 134.7 5.0 C 134.6 5.8 137.8 5.0 136.7 5.4 C 135.1 5.6 138.5 6.1 138.6 6.4 C 138.6 6.4 138.6 6.4 138.6 6.4 Z M 162.6 124.2 C 164.0 123.5 162.1 123.5 161.0 123.9 C 161.4 123.9 161.6 124.1 161.7 124.4 C 162.1 124.2 162.4 124.0 162.6 124.2 C 162.6 124.2 162.6 124.2 162.6 124.2 Z M 145.7 120.2 C 145.4 120.9 147.7 120.1 148.7 120.0 C 148.4 119.9 148.0 119.8 148.6 119.7 C 147.5 119.4 147.3 120.4 145.7 120.2 C 145.7 120.2 145.7 120.2 145.7 120.2 Z M 91.1 123.1 C 91.5 123.0 92.5 123.0 92.5 123.3 C 93.1 123.3 93.0 123.0 93.1 122.8 C 94.3 122.9 92.7 123.6 94.5 123.5 C 95.3 122.6 91.6 122.0 91.1 123.1 C 91.1 123.1 91.1 123.1 91.1 123.1 Z M 119.1 12.7 C 119.8 13.0 118.1 13.4 118.6 13.9 C 121.3 13.6 119.3 12.9 123.0 13.2 C 122.8 13.0 122.5 12.9 122.6 12.6 C 120.8 12.8 120.6 13.2 121.1 12.2 C 120.3 12.2 120.1 13.3 119.1 12.7 C 119.1 12.7 119.1 12.7 119.1 12.7 Z M 153.3 18.9 C 153.0 18.7 152.8 18.6 152.9 18.3 C 151.8 18.3 152.0 18.5 150.6 18.0 C 150.6 18.8 152.0 19.0 153.3 18.9 C 153.3 18.9 153.3 18.9 153.3 18.9 Z M 213.6 66.3 C 213.6 66.5 213.6 66.7 213.6 66.9 C 213.9 66.8 214.6 67.4 214.4 66.3 C 214.3 66.2 214.3 66.4 214.3 66.6 C 214.1 66.4 214.1 65.9 213.7 66.0 C 213.8 66.2 213.7 66.3 213.6 66.3 C 213.6 66.3 213.6 66.3 213.6 66.3 Z M 203.9 95.4 C 205.0 93.6 200.6 96.0 203.9 95.4 C 203.9 95.4 203.9 95.4 203.9 95.4 C 203.9 95.4 203.9 95.4 203.9 95.4 Z M 211.0 96.7 C 211.2 96.8 211.5 96.4 211.4 96.3 C 212.7 95.2 211.7 96.6 212.6 96.0 C 213.2 94.7 211.5 96.0 212.4 94.4 C 212.0 94.5 211.7 96.0 211.0 96.7 C 211.0 96.7 211.0 96.7 211.0 96.7 Z M 19.5 33.5 C 18.5 34.7 18.6 35.3 18.8 35.9 C 19.5 35.2 20.2 34.7 20.6 34.6 C 21.8 33.1 19.4 35.2 19.1 35.4 C 18.9 34.9 19.9 33.9 19.5 33.5 C 19.5 33.5 19.5 33.5 19.5 33.5 Z M 16.2 37.2 C 15.9 37.8 15.4 38.6 15.7 38.9 C 16.3 38.2 16.5 38.2 16.7 38.3 C 17.0 37.5 16.1 38.1 16.2 37.2 C 16.2 37.2 16.2 37.2 16.2 37.2 Z M 23.4 31.0 C 22.9 31.5 23.3 31.6 23.4 31.9 C 24.2 31.2 24.5 31.3 25.3 30.6 C 25.2 30.4 25.1 30.3 25.0 30.2 C 24.3 30.7 24.3 30.9 23.7 31.4 C 23.6 31.3 23.5 31.1 23.4 31.0 C 23.4 31.0 23.4 31.0 23.4 31.0 Z M 13.6 41.2 C 11.9 43.4 12.0 44.9 11.7 46.7 C 12.6 45.0 12.7 43.0 13.8 42.1 C 14.7 40.6 13.2 42.3 13.1 42.2 C 13.0 42.0 13.4 41.6 13.6 41.2 C 13.6 41.2 13.6 41.2 13.6 41.2 Z M 4.5 61.5 C 4.1 62.0 4.8 63.0 4.6 64.4 C 4.7 64.1 4.9 63.9 5.1 63.9 C 5.5 62.0 4.3 63.0 4.5 61.5 C 4.5 61.5 4.5 61.5 4.5 61.5 Z M 5.0 73.1 C 5.2 74.3 5.2 72.4 5.7 73.0 C 5.4 71.6 5.3 70.2 4.8 70.3 C 5.3 71.7 5.3 72.0 5.0 73.1 C 5.0 73.1 5.0 73.1 5.0 73.1 Z M 7.3 81.2 C 8.0 82.4 7.7 80.4 8.4 80.8 C 8.2 80.3 7.9 80.5 7.7 80.5 C 7.7 80.1 7.6 79.8 7.4 79.2 C 7.3 79.7 7.9 81.2 7.3 81.2 C 7.3 81.2 7.3 81.2 7.3 81.2 Z M 53.9 15.1 C 53.2 15.5 53.6 15.9 51.9 16.4 C 54.4 15.5 53.6 17.4 56.8 16.0 C 56.2 16.0 56.5 15.7 56.7 15.8 C 57.9 15.1 55.4 16.0 56.4 15.1 C 55.5 15.4 56.3 15.8 55.4 16.2 C 54.2 16.0 53.6 16.0 53.9 15.1 C 53.9 15.1 53.9 15.1 53.9 15.1 Z M 57.0 16.5 C 57.9 16.3 57.6 15.4 58.2 15.7 C 58.6 15.6 58.5 15.4 58.5 15.2 C 58.2 15.4 58.1 15.3 58.0 15.2 C 57.3 15.6 56.6 16.1 57.0 16.5 C 57.0 16.5 57.0 16.5 57.0 16.5 Z M 48.7 19.7 C 50.1 18.8 50.6 19.0 51.2 18.3 C 52.0 18.8 52.0 17.6 53.0 17.9 C 54.4 17.2 53.3 17.4 52.8 17.3 C 54.1 16.6 53.3 17.7 54.6 17.0 C 54.7 16.3 53.0 17.2 53.0 16.5 C 51.9 16.9 52.0 17.3 51.4 17.7 C 50.9 17.8 50.9 17.5 50.8 17.4 C 49.6 18.0 49.6 17.6 48.6 18.1 C 48.5 18.6 49.0 18.6 50.1 18.0 C 49.0 18.7 48.6 19.3 47.2 19.6 C 47.9 18.7 43.7 20.5 44.4 21.1 C 45.5 20.7 45.0 20.4 45.4 20.1 C 47.1 19.8 47.9 19.3 48.7 19.7 C 48.7 19.7 48.7 19.7 48.7 19.7 Z M 25.0 31.9 C 24.5 32.2 24.1 32.4 23.5 32.9 C 23.2 32.6 24.0 32.0 23.1 32.4 C 22.1 33.1 22.1 33.4 21.5 34.0 C 22.0 33.9 24.3 32.6 23.4 33.7 C 23.9 33.6 24.5 33.1 25.4 32.5 C 24.0 32.7 26.7 31.4 27.6 30.7 C 27.1 30.1 29.4 29.6 29.8 28.7 C 29.0 28.7 27.3 30.5 26.5 31.2 C 26.8 30.8 23.6 32.0 25.0 31.9 C 25.0 31.9 25.0 31.9 25.0 31.9 Z M 60.4 15.0 C 60.6 14.7 61.6 14.3 60.8 14.5 C 61.1 14.2 62.1 14.2 61.5 13.6 C 62.0 13.4 62.4 13.3 62.9 13.1 C 62.8 13.4 61.5 13.7 62.1 14.1 C 63.0 13.5 62.7 13.9 64.0 13.5 C 63.4 14.2 64.2 14.0 63.9 14.8 C 64.1 14.4 65.3 14.1 65.1 13.7 C 66.8 13.3 64.8 14.5 67.1 13.9 C 67.2 14.3 65.5 14.7 64.9 14.7 C 64.7 15.2 67.8 14.0 69.5 13.7 C 67.9 13.7 69.0 13.0 69.7 12.3 C 70.2 12.3 69.7 12.7 70.8 12.7 C 71.6 12.6 71.9 12.2 72.2 12.4 C 72.8 12.2 72.5 11.9 72.5 11.6 C 73.6 11.4 73.0 12.3 74.6 11.8 C 73.2 11.4 74.6 10.9 76.8 10.7 C 76.6 10.5 75.9 10.6 75.8 10.4 C 76.0 9.9 77.4 10.3 77.8 10.5 C 78.6 10.2 78.0 10.0 77.2 10.2 C 77.7 10.0 78.1 9.7 78.6 9.4 C 76.2 9.9 72.4 10.8 67.9 11.2 C 68.8 11.4 67.9 11.7 66.6 11.9 C 66.3 11.7 66.8 11.5 67.4 11.3 C 65.7 11.1 66.2 12.4 63.8 12.7 C 62.5 12.9 65.1 11.9 63.6 12.0 C 62.8 12.4 62.3 13.0 61.7 12.6 C 60.3 13.3 60.1 14.0 57.9 14.7 C 59.2 14.6 60.2 15.5 61.4 14.8 C 61.4 14.7 60.8 14.9 60.4 15.0 C 60.4 15.0 60.4 15.0 60.4 15.0 Z M 16.9 38.6 C 16.3 39.2 16.2 39.8 15.9 39.8 C 15.0 41.1 16.5 40.0 16.7 39.8 C 17.1 39.2 17.1 38.9 16.9 38.6 C 16.9 38.6 16.9 38.6 16.9 38.6 Z M 97.1 128.2 C 99.0 128.5 98.6 127.8 100.2 127.9 C 99.0 127.7 98.7 127.2 96.7 127.1 C 96.5 127.6 96.5 127.9 97.1 128.2 C 97.1 128.2 97.1 128.2 97.1 128.2 Z M 20.9 35.0 C 21.5 33.7 20.2 36.6 19.9 36.2 C 19.1 37.5 21.1 35.4 20.5 36.8 C 21.2 35.7 22.1 35.5 23.1 34.1 C 22.8 33.9 21.8 34.8 20.9 35.7 C 20.6 35.6 21.1 35.1 20.9 35.0 C 20.9 35.0 20.9 35.0 20.9 35.0 Z M 77.9 124.1 C 76.5 124.2 78.9 125.2 79.6 125.6 C 79.8 124.9 79.4 125.0 77.9 124.1 C 77.9 124.1 77.9 124.1 77.9 124.1 Z M 110.4 128.1 C 111.1 127.5 108.1 128.0 108.8 127.4 C 108.0 127.3 107.8 127.5 107.8 127.7 C 107.4 127.5 105.9 127.6 106.3 127.1 C 106.1 126.7 108.6 127.3 107.8 126.7 C 108.7 126.6 108.7 126.8 109.3 126.9 C 107.9 126.8 108.5 127.4 110.4 127.6 C 110.4 127.1 109.5 127.2 110.4 126.9 C 110.5 127.1 111.4 127.6 111.3 128.3 C 112.9 128.3 112.0 127.4 113.9 127.5 C 113.7 127.1 112.6 127.1 111.9 126.9 C 112.1 126.4 113.8 127.4 113.4 126.6 C 113.8 127.0 114.9 127.3 114.9 127.8 C 113.5 128.0 112.5 128.4 111.3 128.6 C 112.4 129.0 114.0 127.8 115.9 128.3 C 115.7 127.9 116.9 127.9 116.5 127.5 C 117.9 127.6 117.3 128.2 117.0 128.3 C 117.4 128.6 120.2 128.3 120.0 127.9 C 120.2 128.3 123.7 128.1 123.5 127.4 C 124.6 127.8 126.1 126.9 126.6 127.6 C 127.2 127.4 128.4 127.3 129.7 127.2 C 130.0 126.6 127.8 127.1 127.6 126.7 C 127.2 126.3 130.0 126.7 129.6 126.2 C 129.6 126.1 129.6 126.0 129.6 125.9 C 128.6 126.1 127.5 126.4 126.6 126.6 C 125.8 126.6 126.7 126.4 126.5 126.1 C 125.9 126.4 122.6 127.3 122.5 126.3 C 120.4 126.6 118.8 126.5 117.9 126.9 C 116.7 126.9 118.7 126.6 117.9 126.2 C 114.2 127.0 109.5 126.1 106.3 126.8 C 105.7 126.7 105.9 126.3 105.8 126.1 C 101.5 126.2 105.1 127.1 101.8 126.7 C 101.8 126.2 103.4 126.4 103.3 125.9 C 102.2 125.9 101.8 126.1 100.3 125.9 C 100.3 126.1 100.3 126.3 100.2 126.6 C 99.0 126.5 99.5 125.9 98.8 125.6 C 97.2 125.7 97.6 126.0 96.9 125.3 C 95.3 125.4 93.8 125.4 92.3 125.0 C 91.3 125.2 93.1 126.2 94.7 126.4 C 94.6 126.6 94.2 126.5 94.1 126.7 C 92.3 126.1 92.2 125.1 89.4 124.6 C 91.4 125.4 88.2 124.7 87.9 124.2 C 86.8 124.1 87.5 124.9 88.3 125.0 C 88.1 125.2 87.4 124.9 87.4 124.7 C 87.1 125.4 89.8 126.2 92.7 126.2 C 91.3 126.9 94.7 126.4 93.1 127.3 C 95.5 127.4 93.5 126.5 96.2 126.9 C 95.9 126.6 95.5 126.4 95.2 126.1 C 97.3 126.2 96.6 126.9 98.7 127.0 C 99.1 126.5 97.7 126.5 97.8 126.2 C 100.0 126.9 100.7 127.1 102.2 127.7 C 102.5 127.4 102.2 126.9 104.8 127.4 C 104.8 127.5 104.8 127.6 104.8 127.7 C 103.5 127.5 103.2 128.5 106.3 128.6 C 106.5 128.3 105.5 128.3 104.7 128.2 C 105.1 127.9 106.1 127.8 107.3 127.8 C 107.9 127.9 108.6 128.2 107.8 128.2 C 108.3 128.7 108.7 127.8 110.4 128.1 C 110.4 128.1 110.4 128.1 110.4 128.1 Z M 6.1 59.5 C 6.1 59.8 6.2 60.2 6.0 60.9 C 6.4 61.2 6.5 60.0 6.9 60.1 C 7.1 59.2 6.3 59.7 6.1 59.5 C 6.1 59.5 6.1 59.5 6.1 59.5 Z M 11.2 47.5 C 10.8 47.4 11.0 48.3 10.3 49.2 C 10.5 49.7 11.0 48.5 11.3 48.6 C 12.1 47.6 10.4 48.5 11.2 47.5 C 11.2 47.5 11.2 47.5 11.2 47.5 Z M 8.7 52.6 C 8.0 52.8 8.7 53.1 9.0 52.2 C 9.3 52.4 9.4 52.7 9.3 53.3 C 10.0 52.9 9.4 52.1 10.0 51.2 C 9.6 51.4 9.1 51.9 8.7 52.6 C 8.7 52.6 8.7 52.6 8.7 52.6 Z M 8.0 54.3 C 8.1 55.1 7.5 55.3 7.4 56.5 C 7.8 56.4 8.5 53.9 8.5 53.5 C 8.2 53.0 7.3 55.5 8.0 54.3 C 8.0 54.3 8.0 54.3 8.0 54.3 Z M 59.4 118.5 C 59.8 118.7 59.8 118.4 59.9 118.3 C 61.1 119.5 63.1 120.0 61.3 120.2 C 62.9 120.2 64.1 121.3 65.4 121.8 C 66.4 122.1 66.0 121.4 66.9 121.7 C 68.2 122.1 66.1 121.7 66.3 122.0 C 66.5 122.5 67.1 121.7 68.7 122.5 C 68.5 121.5 70.1 122.9 69.8 121.9 C 70.7 122.5 71.0 122.2 72.2 122.5 C 72.2 122.1 71.0 121.9 71.0 121.5 C 70.5 120.8 70.2 121.8 71.3 121.9 C 70.6 122.3 69.1 121.1 68.5 121.4 C 68.0 120.7 70.0 121.7 69.6 121.0 C 69.1 120.9 68.7 120.9 68.6 121.1 C 67.9 120.8 67.5 120.5 67.3 120.2 C 67.7 120.3 67.7 120.4 67.7 120.5 C 68.6 120.7 67.1 119.4 68.9 119.9 C 68.6 119.7 67.8 119.4 68.1 119.2 C 67.6 118.7 67.7 120.6 66.0 119.5 C 64.6 119.6 68.8 120.8 67.4 121.5 C 64.9 120.6 66.5 120.3 64.5 119.6 C 64.4 119.8 64.4 120.1 63.9 119.9 C 63.9 120.1 64.7 120.3 65.2 120.5 C 65.1 120.7 64.3 120.4 63.8 120.3 C 63.8 120.4 64.2 120.6 64.2 120.7 C 62.5 120.0 63.0 119.1 64.6 119.3 C 64.7 118.8 62.6 118.2 61.9 118.3 C 62.4 118.8 61.8 118.6 62.1 119.2 C 62.5 119.3 62.5 119.1 62.7 119.0 C 63.5 119.4 62.6 119.3 62.5 119.5 C 61.6 119.2 61.8 118.8 60.8 118.8 C 61.0 118.7 61.3 118.7 61.4 118.4 C 60.9 118.3 60.5 118.1 60.0 118.0 C 60.0 118.3 59.4 118.2 59.4 118.5 C 59.4 118.5 59.4 118.5 59.4 118.5 Z M 83.6 125.8 C 85.3 126.2 84.5 125.6 83.7 125.5 C 84.1 125.4 84.7 125.4 85.2 125.4 C 84.8 125.1 84.3 125.2 82.8 124.8 C 84.3 124.4 83.0 123.2 80.6 122.9 C 79.7 123.7 81.8 124.2 80.8 124.6 C 82.7 124.6 83.6 125.1 83.6 125.8 C 83.6 125.8 83.6 125.8 83.6 125.8 Z M 16.9 39.9 C 16.2 40.7 15.5 41.5 14.9 42.3 C 15.4 42.5 17.6 40.3 16.9 39.9 C 16.9 39.9 16.9 39.9 16.9 39.9 Z M 80.6 9.7 C 81.1 9.6 81.1 9.7 81.2 9.8 C 82.6 9.4 80.4 9.5 81.0 9.0 C 80.5 9.1 80.0 9.2 79.6 9.3 C 79.5 9.5 81.6 9.4 80.2 9.8 C 80.3 10.0 80.7 9.8 80.6 9.7 C 80.6 9.7 80.6 9.7 80.6 9.7 Z M 7.0 58.7 C 7.0 59.6 7.7 59.2 7.2 61.1 C 7.7 60.5 7.6 60.0 7.8 58.9 C 7.5 58.9 7.3 58.8 7.0 58.7 C 7.0 58.7 7.0 58.7 7.0 58.7 Z M 52.4 116.9 C 53.3 117.8 54.1 116.8 56.1 117.9 C 55.2 116.9 53.7 117.2 52.4 116.9 C 52.4 116.9 52.4 116.9 52.4 116.9 Z M 133.6 126.0 C 132.9 126.0 133.8 125.8 132.5 125.6 C 131.9 125.9 131.6 126.2 130.6 126.3 C 132.0 126.8 134.5 125.9 135.7 126.7 C 136.9 126.5 136.7 125.9 137.1 125.5 C 136.5 125.6 136.2 125.6 136.1 125.5 C 135.4 126.3 134.4 125.1 133.6 126.0 C 133.6 126.0 133.6 126.0 133.6 126.0 Z M 77.5 123.8 C 76.6 123.3 78.2 123.5 78.6 123.2 C 79.2 123.4 78.9 123.7 79.0 123.9 C 79.8 124.1 80.1 123.9 80.0 123.4 C 78.5 123.0 76.5 122.6 77.8 122.2 C 76.3 121.7 77.0 122.6 76.2 122.5 C 75.5 122.0 76.3 122.0 76.4 121.5 C 76.0 121.5 74.7 121.9 75.0 121.2 C 72.6 121.4 73.4 122.4 75.0 123.6 C 76.6 123.4 74.9 122.9 77.5 123.8 C 77.5 123.8 77.5 123.8 77.5 123.8 Z M 20.4 96.1 C 20.4 96.3 21.1 96.9 20.9 97.1 C 22.0 97.6 23.1 97.8 24.3 98.1 C 24.4 97.6 23.0 97.0 23.3 97.7 C 23.2 97.1 22.5 96.3 22.3 95.6 C 21.6 94.8 20.6 95.4 21.1 94.7 C 20.2 94.2 20.6 94.6 19.6 93.3 C 20.9 95.6 18.8 92.9 18.3 93.1 C 19.2 94.2 20.2 95.2 20.4 94.7 C 21.0 95.6 21.8 96.6 21.6 97.1 C 21.4 97.2 20.8 96.5 20.4 96.1 C 20.4 96.1 20.4 96.1 20.4 96.1 Z M 26.1 99.3 C 25.7 99.1 25.4 98.9 24.8 98.4 C 25.0 98.8 25.0 99.1 24.8 99.2 C 25.8 100.1 26.3 100.1 26.3 100.8 C 27.3 101.6 26.5 100.0 28.0 101.4 C 28.0 101.2 27.2 100.6 27.3 100.4 C 26.9 100.6 26.3 100.2 26.1 99.3 C 26.1 99.3 26.1 99.3 26.1 99.3 Z M 40.5 110.0 C 41.6 110.5 40.1 109.5 40.8 109.4 C 40.5 109.3 38.1 107.8 38.7 107.7 C 38.3 106.6 34.9 106.2 35.6 105.6 C 35.0 105.3 35.1 105.6 34.8 105.8 C 36.7 106.8 36.5 107.1 35.2 106.4 C 35.2 106.7 36.4 107.3 37.2 107.8 C 37.4 107.6 36.7 107.1 37.0 106.9 C 38.5 108.1 39.6 109.1 40.5 110.0 C 40.5 110.0 40.5 110.0 40.5 110.0 Z M 135.3 8.8 C 134.1 8.6 133.4 8.6 132.8 8.7 C 133.1 9.0 133.7 8.8 134.3 8.9 C 134.4 9.2 133.9 9.1 133.2 9.1 C 133.8 9.6 135.9 9.4 135.3 8.8 C 135.3 8.8 135.3 8.8 135.3 8.8 Z M 125.3 8.0 C 124.1 7.9 123.4 7.9 123.2 8.2 C 123.7 8.6 123.5 8.1 124.3 8.1 C 124.7 8.3 125.0 8.5 125.2 8.7 C 125.7 8.7 125.6 8.5 125.8 8.4 C 126.2 8.4 126.2 8.5 126.3 8.6 C 127.7 8.2 124.6 8.5 125.3 8.0 C 125.3 8.0 125.3 8.0 125.3 8.0 Z M 32.1 104.6 C 31.8 104.1 31.6 103.6 30.5 102.8 C 30.5 103.3 29.6 102.6 28.9 102.1 C 29.7 103.2 30.3 103.4 32.1 104.6 C 32.1 104.6 32.1 104.6 32.1 104.6 Z M 64.0 15.1 C 62.5 15.1 62.8 15.9 60.8 16.1 C 60.8 16.3 60.9 16.4 60.9 16.6 C 62.0 15.8 62.6 15.9 64.0 15.1 C 64.0 15.1 64.0 15.1 64.0 15.1 Z M 218.2 81.7 C 217.9 81.4 217.5 82.8 217.2 82.7 C 217.8 83.3 216.3 83.3 215.2 85.7 C 215.0 85.6 215.0 85.4 215.1 85.1 C 213.9 86.8 215.9 84.8 216.5 84.8 C 217.2 83.3 217.7 83.3 218.2 81.7 C 218.2 81.7 218.2 81.7 218.2 81.7 Z M 118.5 125.4 C 118.4 125.5 118.7 125.5 118.9 125.6 C 119.3 125.5 119.6 125.5 119.9 125.5 C 119.8 124.8 118.2 124.6 119.4 123.8 C 119.0 123.8 118.9 123.9 118.9 124.0 C 116.5 125.6 114.6 123.1 111.4 124.0 C 110.9 124.0 111.0 124.2 110.9 124.4 C 111.3 124.3 111.4 124.4 111.4 124.5 C 111.8 123.8 114.7 124.7 113.4 124.9 C 113.5 125.1 113.9 125.0 113.9 124.9 C 114.2 124.9 114.6 124.9 114.9 124.9 C 114.7 124.7 114.0 124.6 113.9 124.4 C 115.5 124.6 117.5 124.8 116.4 125.4 C 117.4 125.4 117.8 125.1 118.4 124.9 C 119.1 124.9 119.1 125.4 118.5 125.4 C 118.5 125.4 118.5 125.4 118.5 125.4 Z M 131.4 124.5 C 133.0 124.5 132.3 124.0 133.9 124.0 C 132.9 123.6 131.7 124.4 130.4 124.1 C 130.6 124.3 131.3 124.3 131.4 124.5 C 131.4 124.5 131.4 124.5 131.4 124.5 Z M 102.5 124.2 C 102.8 123.6 101.4 123.4 100.0 123.3 C 99.7 123.9 101.0 124.1 102.5 124.2 C 102.5 124.2 102.5 124.2 102.5 124.2 Z M 108.9 124.5 C 110.4 124.3 107.1 124.3 107.9 123.8 C 107.2 123.8 106.5 123.7 106.5 123.6 C 105.9 123.6 105.9 123.9 105.0 123.8 C 105.0 124.1 106.6 124.0 106.4 124.4 C 107.6 124.1 107.8 124.1 108.9 124.5 C 108.9 124.5 108.9 124.5 108.9 124.5 Z M 109.9 124.5 C 110.9 124.4 109.7 123.5 108.5 123.5 C 108.9 123.8 109.2 124.2 109.9 124.5 C 109.9 124.5 109.9 124.5 109.9 124.5 Z M 11.7 78.6 C 12.0 79.1 12.2 78.5 12.5 79.1 C 12.7 79.0 11.8 76.8 12.7 78.6 C 13.0 77.7 12.0 77.7 11.8 76.8 C 11.8 77.1 11.7 77.3 11.5 76.9 C 11.0 76.7 12.3 78.7 11.7 78.6 C 11.7 78.6 11.7 78.6 11.7 78.6 Z M 12.7 80.9 C 12.9 81.3 12.9 81.0 12.8 80.8 C 13.1 80.8 13.3 81.5 13.5 81.9 C 13.3 82.0 13.8 80.8 14.2 80.6 C 13.0 78.9 13.2 80.6 12.7 80.9 C 12.7 80.9 12.7 80.9 12.7 80.9 Z M 13.9 82.6 C 14.2 84.1 15.3 85.8 16.3 86.3 C 16.3 85.1 14.8 82.9 13.9 82.6 C 13.9 82.6 13.9 82.6 13.9 82.6 Z M 10.2 69.8 C 9.8 72.2 11.6 76.6 11.3 72.5 C 10.9 72.7 10.3 70.0 10.5 68.6 C 10.2 68.6 9.8 67.1 10.1 67.1 C 9.7 66.1 9.8 70.4 10.2 69.8 C 10.2 69.8 10.2 69.8 10.2 69.8 Z M 18.2 87.2 C 17.5 86.8 17.3 88.1 16.9 87.0 C 16.5 86.5 16.9 87.2 16.5 87.2 C 17.3 88.4 19.6 90.4 19.4 91.0 C 20.0 91.4 20.4 91.3 21.3 92.4 C 21.5 92.3 17.7 88.8 17.9 87.4 C 18.1 87.4 19.2 88.7 18.2 87.2 C 18.2 87.2 18.2 87.2 18.2 87.2 Z M 64.8 18.0 C 64.8 17.6 63.1 18.5 63.3 17.8 C 62.5 18.7 61.4 18.6 60.5 19.4 C 60.1 19.4 59.9 18.6 58.4 19.1 C 58.5 19.5 59.2 19.1 58.6 19.7 C 57.2 20.3 57.4 19.6 55.9 20.3 C 56.4 21.0 52.6 21.7 53.3 22.4 C 54.1 22.0 53.9 21.6 55.3 21.3 C 55.8 21.1 55.7 21.5 56.2 21.3 C 56.0 21.9 55.0 21.5 54.6 22.1 C 54.9 22.3 55.9 21.9 56.1 22.2 C 56.7 21.9 55.9 22.1 55.9 21.7 C 57.6 21.0 56.2 22.9 58.0 22.1 C 57.5 21.8 57.4 21.7 57.6 21.1 C 58.4 21.1 60.5 20.0 59.5 21.0 C 59.8 21.3 60.9 20.3 60.7 20.1 C 61.4 19.8 61.5 19.9 61.6 20.1 C 63.4 19.3 63.6 18.8 63.0 18.4 C 63.3 17.8 63.8 18.6 64.8 18.0 C 64.8 18.0 64.8 18.0 64.8 18.0 Z M 11.8 57.4 C 11.7 56.4 11.6 58.5 11.2 59.3 C 11.6 58.3 12.2 58.8 12.6 57.7 C 12.3 58.0 12.1 57.9 12.4 57.2 C 12.2 56.9 11.5 58.5 11.8 57.4 C 11.8 57.4 11.8 57.4 11.8 57.4 Z M 23.4 94.5 C 23.5 95.2 25.7 96.8 26.7 97.8 C 27.0 97.0 23.7 95.6 24.0 94.6 C 23.4 94.1 24.1 95.2 23.4 94.5 C 23.4 94.5 23.4 94.5 23.4 94.5 Z M 48.4 23.4 C 48.0 23.6 48.2 23.6 48.4 23.5 C 48.4 23.8 47.5 24.1 46.9 24.4 C 47.9 24.3 46.9 25.0 47.3 25.4 C 46.9 25.6 46.7 25.7 46.6 25.9 C 46.2 25.0 44.4 27.5 46.9 26.5 C 46.3 26.2 46.5 26.2 47.4 25.5 C 48.7 25.4 49.4 24.5 50.0 24.9 C 50.7 24.5 50.9 24.1 51.9 23.7 C 52.3 24.0 53.3 23.8 52.8 24.8 C 54.6 24.1 52.9 23.4 54.4 22.7 C 55.9 22.4 53.9 23.5 54.4 23.8 C 54.7 23.7 54.7 23.9 54.9 24.0 C 55.4 23.7 55.2 23.3 54.7 23.5 C 54.8 23.3 56.1 22.3 55.9 23.0 C 56.7 22.5 54.0 22.0 53.1 23.0 C 52.4 23.4 52.0 22.5 52.8 22.3 C 52.4 21.9 51.4 23.6 51.4 22.5 C 50.8 22.7 50.3 22.9 49.7 23.2 C 49.9 23.2 50.2 23.1 50.3 23.3 C 49.8 23.5 49.2 23.8 48.7 24.0 C 49.0 23.6 49.0 23.4 48.4 23.4 C 48.4 23.4 48.4 23.4 48.4 23.4 Z M 19.3 89.8 C 20.0 90.7 20.4 90.7 21.1 91.4 C 21.1 90.8 19.3 89.0 19.3 89.8 C 19.3 89.8 19.3 89.8 19.3 89.8 Z M 72.9 17.5 C 72.8 17.3 72.0 17.6 71.9 17.3 C 73.3 16.8 71.6 17.0 72.5 15.8 C 70.8 16.7 70.5 18.0 73.0 17.8 C 74.8 17.3 71.1 18.0 72.9 17.5 C 72.9 17.5 72.9 17.5 72.9 17.5 Z M 67.4 18.5 C 66.4 19.1 69.2 18.6 69.8 18.6 C 69.9 18.8 69.9 18.9 70.0 19.1 C 71.3 17.9 69.2 18.2 70.3 16.9 C 68.5 17.1 67.7 17.1 66.2 17.8 C 66.4 18.0 66.7 17.8 66.7 17.7 C 67.8 17.4 67.2 18.3 65.9 18.4 C 66.4 18.6 67.4 18.3 68.3 18.1 C 68.0 18.1 67.7 18.0 67.7 17.8 C 68.6 17.4 68.4 17.9 69.1 17.7 C 69.2 18.0 67.5 18.8 67.4 18.5 C 67.4 18.5 67.4 18.5 67.4 18.5 Z M 161.8 17.5 C 160.8 17.4 162.5 18.5 162.2 19.3 C 163.2 19.6 163.4 19.5 164.1 19.6 C 163.9 19.2 162.8 18.8 162.5 18.4 C 162.8 17.8 163.8 19.0 164.4 18.6 C 165.1 18.1 162.0 18.3 161.8 17.5 C 161.8 17.5 161.8 17.5 161.8 17.5 Z M 28.1 36.6 C 27.7 37.0 28.0 36.9 28.2 36.8 C 28.2 37.0 27.5 37.6 27.4 37.4 C 26.8 38.0 27.9 37.4 27.2 38.0 C 27.3 38.4 28.3 37.0 28.3 36.9 C 29.2 36.1 28.9 37.2 29.3 37.2 C 30.0 36.6 29.5 36.4 30.7 35.6 C 29.8 35.9 29.0 36.2 28.1 36.6 C 28.1 36.6 28.1 36.6 28.1 36.6 Z M 75.9 15.7 C 76.0 15.5 75.0 16.8 73.7 16.6 C 72.1 17.0 74.8 16.9 73.3 17.2 C 74.6 17.0 76.0 16.3 77.9 15.8 C 78.3 15.4 75.2 16.3 76.9 15.7 C 76.8 15.5 76.4 15.7 76.4 15.8 C 76.0 15.9 76.0 15.8 75.9 15.7 C 75.9 15.7 75.9 15.7 75.9 15.7 Z M 74.3 17.3 C 74.4 17.5 74.8 17.3 74.8 17.2 C 75.4 17.1 75.5 17.6 74.9 17.7 C 75.8 18.1 75.5 17.0 77.2 17.0 C 76.4 16.7 76.0 16.5 77.6 16.6 C 78.6 15.9 74.8 16.9 74.3 17.3 C 74.3 17.3 74.3 17.3 74.3 17.3 Z M 146.9 14.6 C 147.0 14.8 148.0 14.9 148.7 15.1 C 147.7 15.3 144.0 14.4 143.5 14.0 C 143.1 14.0 142.7 14.1 142.6 13.8 C 142.6 14.0 141.5 14.1 142.0 14.3 C 141.9 14.4 141.1 14.3 141.0 14.5 C 139.6 14.2 141.5 14.2 141.1 13.8 C 139.3 14.0 139.8 13.7 137.7 13.4 C 138.0 13.9 140.3 14.0 140.0 14.7 C 141.7 14.3 143.3 15.0 144.2 15.7 C 142.9 14.6 148.5 15.2 151.0 15.9 C 150.9 16.2 151.8 16.3 152.8 16.7 C 153.4 17.4 153.4 16.2 151.9 16.2 C 152.1 15.9 153.9 16.6 154.7 16.7 C 153.8 16.2 154.4 16.0 154.0 15.8 C 152.2 15.4 153.8 15.9 153.4 16.2 C 152.9 16.1 152.5 16.0 152.0 15.9 C 154.6 15.6 148.4 15.1 150.6 15.4 C 148.7 15.1 148.7 14.5 146.9 14.6 C 146.9 14.6 146.9 14.6 146.9 14.6 Z M 100.9 12.1 C 100.6 12.2 99.0 12.7 98.9 12.3 C 97.0 12.9 98.8 13.1 96.5 13.4 C 96.7 13.5 97.5 13.4 97.6 13.6 C 98.4 13.4 99.2 13.1 99.0 12.6 C 100.0 12.6 100.2 12.4 100.9 12.3 C 100.7 12.5 100.3 12.7 99.5 12.8 C 99.3 13.2 99.7 13.5 101.0 13.3 C 101.5 12.8 101.1 12.5 100.9 12.1 C 100.9 12.1 100.9 12.1 100.9 12.1 Z M 96.0 13.2 C 95.8 13.1 95.5 13.0 95.5 12.8 C 94.8 12.3 95.3 13.5 94.6 13.6 C 94.0 13.6 94.2 13.3 94.1 13.1 C 93.2 13.3 92.6 13.5 92.1 13.3 C 90.8 13.8 93.7 13.6 94.1 13.8 C 95.1 13.7 94.7 13.2 96.0 13.2 C 96.0 13.2 96.0 13.2 96.0 13.2 Z M 81.6 14.8 C 81.2 14.3 80.9 15.2 80.2 15.2 C 80.8 15.6 82.1 15.0 81.3 15.9 C 82.7 15.7 82.8 15.7 84.1 15.3 C 85.1 15.7 84.1 14.9 82.7 15.4 C 82.8 15.2 83.5 15.0 83.5 14.8 C 84.6 15.6 86.8 13.6 85.4 14.6 C 85.0 14.6 84.7 14.4 84.4 14.3 C 84.2 14.8 80.9 15.1 81.6 14.8 C 81.6 14.8 81.6 14.8 81.6 14.8 Z M 38.2 30.8 C 40.1 29.5 40.6 29.2 42.2 28.5 C 42.3 28.7 42.2 28.8 42.0 29.0 C 42.4 29.0 42.9 28.7 43.5 28.2 C 43.3 28.1 43.0 28.3 43.1 28.4 C 41.7 28.7 42.7 28.2 42.7 27.7 C 41.0 28.1 39.6 30.0 38.3 29.9 C 37.7 30.5 38.6 30.0 38.2 30.8 C 38.2 30.8 38.2 30.8 38.2 30.8 Z M 215.0 78.5 C 215.1 78.8 214.8 79.4 215.2 79.4 C 215.3 78.8 215.3 78.4 215.5 77.8 C 214.9 78.8 214.4 78.4 213.8 79.7 C 214.2 79.4 214.6 79.7 215.0 78.5 C 215.0 78.5 215.0 78.5 215.0 78.5 Z M 86.4 14.1 C 86.4 14.4 86.5 14.6 86.0 14.7 C 85.8 15.1 87.3 14.7 87.4 15.0 C 87.9 14.9 87.7 14.6 88.4 14.5 C 88.1 14.3 86.9 14.6 87.3 14.0 C 87.7 13.9 87.8 14.0 87.8 14.1 C 88.8 13.7 87.3 13.8 86.4 14.1 C 86.4 14.1 86.4 14.1 86.4 14.1 Z M 166.1 19.3 C 165.5 19.2 166.0 19.6 166.4 19.8 C 165.0 19.9 167.0 20.8 166.9 21.4 C 166.5 20.8 164.6 20.5 164.4 20.2 C 163.8 20.2 164.3 20.8 162.9 20.5 C 162.9 21.0 164.6 21.0 164.3 20.6 C 164.5 21.3 166.2 21.0 165.9 21.6 C 167.8 22.3 168.4 22.1 168.7 21.6 C 166.7 21.2 168.0 20.7 166.3 20.3 C 166.3 20.1 166.8 20.3 167.2 20.4 C 167.2 20.0 166.5 19.7 166.1 19.3 C 166.1 19.3 166.1 19.3 166.1 19.3 Z M 116.7 12.0 C 115.6 12.0 115.6 12.4 115.7 12.8 C 116.1 12.7 116.8 12.6 117.6 12.7 C 117.4 12.4 116.1 12.5 116.7 12.0 C 116.7 12.0 116.7 12.0 116.7 12.0 Z M 158.7 18.0 C 158.7 17.8 158.3 17.8 158.3 17.8 C 157.1 17.6 156.9 17.3 156.6 16.9 C 156.0 16.8 156.1 17.2 156.0 17.5 C 157.2 17.3 156.8 17.9 158.2 18.2 C 158.2 18.0 158.4 17.9 158.7 18.0 C 158.7 18.0 158.7 18.0 158.7 18.0 Z M 127.0 12.7 C 126.4 12.7 126.7 12.9 127.0 12.9 C 126.3 13.4 124.3 12.8 123.5 13.0 C 123.4 13.4 125.9 13.5 123.0 13.5 C 123.5 13.9 126.1 13.7 127.4 13.9 C 127.1 14.4 125.3 14.2 125.4 14.8 C 126.9 14.6 128.6 14.4 128.9 13.7 C 126.7 13.5 127.5 13.1 127.0 12.7 C 127.0 12.7 127.0 12.7 127.0 12.7 Z M 129.4 13.2 C 129.2 12.9 128.8 13.2 128.0 13.1 C 129.1 13.8 129.8 13.6 132.3 14.0 C 132.3 13.9 132.3 13.7 132.3 13.6 C 132.8 13.7 133.3 13.7 133.8 13.8 C 131.7 13.0 131.1 13.3 128.9 13.3 C 128.8 13.2 129.1 13.2 129.4 13.2 C 129.4 13.2 129.4 13.2 129.4 13.2 Z M 65.3 19.5 C 66.0 19.6 66.6 19.7 67.7 19.5 C 67.4 19.1 66.7 19.0 65.3 19.5 C 65.3 19.5 65.3 19.5 65.3 19.5 Z M 160.5 18.8 C 161.8 18.8 159.3 18.4 159.9 19.1 C 160.8 19.6 161.8 20.0 161.9 20.6 C 163.8 20.4 160.1 19.3 160.5 18.8 C 160.5 18.8 160.5 18.8 160.5 18.8 Z M 152.0 18.0 C 151.5 17.8 151.7 17.1 152.1 17.6 C 153.4 17.9 151.1 16.9 153.1 17.5 C 152.3 17.1 150.4 16.4 149.4 16.6 C 149.4 17.0 151.2 17.2 151.1 17.6 C 151.2 17.8 150.9 17.7 150.6 17.7 C 150.8 18.0 151.2 17.7 152.0 18.0 C 152.0 18.0 152.0 18.0 152.0 18.0 Z M 145.2 15.8 C 145.9 16.2 146.8 16.6 148.4 16.9 C 147.4 16.4 146.9 15.8 145.2 15.8 C 145.2 15.8 145.2 15.8 145.2 15.8 Z M 214.6 59.7 C 214.4 58.9 214.1 59.8 214.0 59.9 C 214.1 60.7 214.5 60.6 214.5 61.6 C 215.1 61.1 214.2 60.4 214.6 59.7 C 214.6 59.7 214.6 59.7 214.6 59.7 Z M 214.9 62.8 C 214.6 63.0 215.0 64.1 214.6 64.2 C 215.7 64.8 214.1 66.0 214.9 65.9 C 214.8 66.2 214.8 66.4 214.8 66.9 C 215.7 66.0 215.2 63.9 214.9 62.8 C 214.9 62.8 214.9 62.8 214.9 62.8 Z M 136.9 15.7 C 135.7 15.4 137.2 16.5 135.9 16.2 C 135.8 16.5 138.3 16.9 136.8 16.8 C 138.7 17.4 136.8 15.8 136.9 15.7 C 136.9 15.7 136.9 15.7 136.9 15.7 Z M 113.2 14.9 C 113.3 14.5 111.5 14.8 110.8 14.7 C 110.8 14.9 111.4 14.9 111.8 14.9 C 111.6 15.0 111.3 15.2 110.8 15.2 C 111.2 15.6 112.5 14.9 113.2 14.9 C 113.2 14.9 113.2 14.9 113.2 14.9 Z M 140.5 7.2 C 141.3 7.8 142.3 8.4 143.0 7.7 C 143.8 8.3 142.3 8.2 143.3 8.6 C 144.8 8.6 144.0 9.0 146.3 9.1 C 145.8 9.7 147.4 9.9 147.6 10.4 C 146.7 10.3 145.7 9.5 145.2 9.9 C 145.9 10.1 145.4 10.5 145.1 10.1 C 143.7 9.6 147.1 9.8 145.3 9.1 C 144.6 9.7 142.2 8.1 140.4 7.9 C 141.2 7.6 139.2 7.1 140.5 7.2 C 140.5 7.2 140.5 7.2 140.5 7.2 Z M 149.2 9.6 C 150.4 9.8 150.8 11.0 150.5 10.9 C 150.5 10.7 149.2 10.4 149.0 10.6 C 149.4 10.7 149.6 10.8 149.5 10.9 C 147.4 10.4 148.2 10.1 147.7 9.7 C 149.0 9.7 149.2 10.1 149.7 9.9 C 149.4 9.8 149.2 9.7 149.2 9.6 C 149.2 9.6 149.2 9.6 149.2 9.6 Z M 171.1 24.2 C 171.0 23.9 170.6 24.1 170.2 24.1 C 170.4 23.4 167.9 23.6 167.7 23.1 C 168.3 23.0 169.4 23.4 170.0 23.3 C 169.5 23.0 169.4 22.9 168.7 22.9 C 169.0 22.5 170.3 22.9 170.7 22.7 C 170.7 23.0 171.4 22.8 171.5 23.1 C 169.8 22.8 172.0 24.6 171.1 24.2 C 171.1 24.2 171.1 24.2 171.1 24.2 Z M 125.9 15.4 C 125.6 15.9 127.6 17.2 125.7 17.7 C 125.3 17.3 125.1 16.8 125.3 16.2 C 124.1 16.4 123.6 15.9 122.9 16.4 C 120.7 14.8 124.6 16.6 125.9 15.4 C 125.9 15.4 125.9 15.4 125.9 15.4 Z M 118.1 15.6 C 118.5 15.1 117.4 15.1 117.6 14.7 C 118.5 15.1 121.6 14.7 120.5 15.0 C 119.5 15.1 119.5 15.6 118.1 15.6 C 118.1 15.6 118.1 15.6 118.1 15.6 Z M 49.2 110.4 C 47.7 110.2 47.5 109.0 48.3 109.1 C 47.8 109.5 49.9 110.0 49.2 110.4 C 49.2 110.4 49.2 110.4 49.2 110.4 Z M 3.6 74.8 C 3.6 76.3 4.1 77.0 3.6 77.3 C 3.1 76.0 3.6 76.0 3.2 74.9 C 3.0 74.8 2.7 74.1 2.9 74.0 C 3.1 74.6 3.4 74.4 3.6 74.8 C 3.6 74.8 3.6 74.8 3.6 74.8 Z M 87.1 5.4 C 86.9 5.2 86.3 5.2 86.5 4.8 C 88.0 4.8 89.7 4.2 91.0 3.7 C 91.0 3.9 91.0 4.2 91.0 4.4 C 88.6 4.5 88.0 5.0 87.1 5.4 C 87.1 5.4 87.1 5.4 87.1 5.4 Z M 83.9 4.9 C 83.7 5.2 84.6 5.6 83.5 5.8 C 83.5 5.4 81.5 5.2 82.4 4.9 C 82.7 5.3 83.2 5.2 83.9 4.9 C 83.9 4.9 83.9 4.9 83.9 4.9 Z M 168.1 12.8 C 169.2 13.1 167.7 12.2 167.8 12.0 C 168.6 12.4 169.7 12.7 170.0 13.1 C 169.2 12.8 168.4 13.4 168.1 12.8 C 168.1 12.8 168.1 12.8 168.1 12.8 Z M 150.3 9.6 C 147.7 9.2 149.0 8.5 146.5 7.9 C 147.6 7.8 149.8 8.3 150.6 8.0 C 150.4 8.3 151.0 8.4 150.9 8.7 C 150.0 8.6 149.9 8.3 149.0 8.2 C 149.2 8.8 149.3 8.6 148.8 9.0 C 149.5 9.2 150.0 9.1 150.4 9.1 C 150.1 9.4 151.0 9.7 150.3 9.6 C 150.3 9.6 150.3 9.6 150.3 9.6 Z M 167.2 14.0 C 168.2 14.1 168.8 15.1 168.0 14.8 C 168.0 14.4 167.2 14.6 167.1 14.3 C 168.5 14.6 166.1 13.7 166.9 13.5 C 167.7 13.8 168.0 13.7 167.9 13.3 C 168.5 13.5 169.3 13.7 169.3 13.9 C 168.9 13.8 168.4 13.6 168.3 13.8 C 168.6 13.9 168.8 14.0 168.7 14.1 C 167.9 13.8 167.5 13.9 167.2 14.0 C 167.2 14.0 167.2 14.0 167.2 14.0 Z M 160.8 12.2 C 162.0 12.5 162.1 13.0 162.4 13.5 C 160.7 12.8 160.6 12.1 159.4 11.5 C 160.8 12.0 162.4 11.7 162.8 12.2 C 162.1 12.2 160.9 11.8 160.8 12.2 C 160.8 12.2 160.8 12.2 160.8 12.2 Z M 172.5 117.2 C 171.4 117.3 170.4 117.3 169.2 117.4 C 168.9 118.1 171.4 118.3 170.4 118.3 C 169.2 118.8 169.8 117.8 168.8 118.1 C 170.0 118.5 164.8 120.1 164.3 119.5 C 165.1 119.2 165.4 119.0 165.1 118.7 C 167.2 118.1 167.9 117.5 169.4 116.8 C 170.8 117.1 174.1 116.1 175.6 114.8 C 177.1 115.3 178.7 113.5 180.5 113.5 C 180.8 113.1 179.0 113.5 180.3 112.9 C 181.3 113.1 180.7 113.5 181.9 113.3 C 181.9 113.0 181.5 112.8 182.0 112.5 C 182.1 112.8 182.8 112.5 183.1 112.6 C 180.8 113.5 183.5 113.2 181.8 114.1 C 180.9 114.2 182.2 113.0 180.2 113.9 C 179.5 114.3 178.9 114.8 179.2 115.2 C 178.6 115.4 178.3 115.6 178.0 115.9 C 178.6 115.0 175.1 117.2 176.5 115.9 C 176.7 115.8 177.9 115.4 178.6 114.9 C 177.7 114.7 176.9 115.3 175.6 116.1 C 174.9 115.9 175.7 115.5 174.9 115.6 C 174.0 116.3 175.6 116.2 174.9 116.7 C 175.2 116.6 175.7 116.4 175.8 116.5 C 173.8 116.8 173.2 117.6 172.3 117.8 C 172.8 117.3 171.0 117.8 172.5 117.2 C 172.5 117.2 172.5 117.2 172.5 117.2 Z M 187.4 110.1 C 187.8 109.9 188.2 109.7 188.6 109.5 C 188.9 109.9 187.4 110.8 188.6 110.6 C 186.9 111.5 188.4 110.0 187.4 110.1 C 187.4 110.1 187.4 110.1 187.4 110.1 Z M 178.5 112.2 C 177.7 111.9 178.5 112.9 177.9 113.2 C 178.9 112.6 179.8 112.1 180.1 112.6 C 178.9 112.9 178.3 113.2 177.2 113.8 C 178.1 112.6 175.6 113.8 175.0 113.4 C 176.0 112.9 176.6 112.4 177.9 111.9 C 177.8 112.2 179.6 111.6 178.5 112.2 C 178.5 112.2 178.5 112.2 178.5 112.2 Z M 181.5 110.1 C 181.9 110.3 183.5 109.2 183.4 110.0 C 182.3 110.4 182.0 110.7 182.4 111.0 C 181.6 111.4 181.4 111.3 180.7 111.6 C 180.0 111.2 181.3 110.7 181.6 110.3 C 181.3 110.4 181.0 110.4 181.5 110.1 C 181.5 110.1 181.5 110.1 181.5 110.1 Z M 209.0 85.7 C 209.7 85.8 208.4 87.0 208.1 87.2 C 208.8 87.1 208.8 87.3 208.2 88.3 C 208.0 87.6 207.1 89.0 205.9 89.3 C 206.1 89.8 207.1 88.9 206.2 90.2 C 205.2 90.9 204.7 91.9 203.4 93.3 C 202.7 93.2 203.2 92.5 203.4 92.0 C 202.6 93.0 202.5 92.4 201.8 93.1 C 202.1 93.2 201.7 93.8 201.2 93.8 C 202.4 92.6 199.1 94.8 200.3 93.5 C 200.5 93.6 200.8 93.3 201.0 92.9 C 201.1 93.7 202.7 92.0 203.3 91.9 C 203.2 90.4 205.1 89.1 207.0 87.4 C 207.4 87.4 207.0 88.1 207.4 87.7 C 207.3 87.5 207.9 86.9 208.0 86.5 C 208.2 86.7 208.5 86.5 208.9 86.1 C 208.8 86.0 208.8 85.9 209.0 85.7 C 209.0 85.7 209.0 85.7 209.0 85.7 Z M 93.0 119.6 C 93.2 118.7 90.0 118.8 89.1 118.9 C 89.4 118.0 94.8 118.9 93.0 119.6 C 93.0 119.6 93.0 119.6 93.0 119.6 Z M 112.0 120.1 C 111.2 120.1 111.7 120.6 111.0 120.6 C 111.0 120.1 109.1 121.1 109.0 120.6 C 110.0 120.1 110.5 120.2 112.0 120.1 C 112.0 120.1 112.0 120.1 112.0 120.1 Z M 129.6 119.8 C 128.2 120.0 130.4 120.0 130.1 120.2 C 128.9 120.3 127.6 120.4 127.6 119.9 C 128.7 120.1 129.4 119.3 129.6 119.8 C 129.6 119.8 129.6 119.8 129.6 119.8 Z M 103.2 119.3 C 102.1 119.0 104.1 118.5 104.2 118.8 C 102.9 118.9 105.0 119.4 106.1 119.3 C 106.1 119.9 105.6 119.7 106.1 120.3 C 104.4 120.5 105.8 119.7 104.6 119.7 C 103.8 120.0 104.7 119.9 104.6 120.4 C 104.1 120.4 103.7 120.3 103.2 120.3 C 103.2 120.0 103.2 119.7 103.2 119.5 C 103.8 119.5 104.4 119.5 104.2 119.2 C 103.7 119.1 103.6 119.3 103.2 119.3 C 103.2 119.3 103.2 119.3 103.2 119.3 Z M 189.1 101.4 C 188.3 101.9 189.1 101.8 189.7 101.5 C 189.7 101.2 189.7 100.0 190.8 100.0 C 189.2 101.5 191.8 100.3 190.9 101.2 C 190.2 101.0 189.4 102.2 188.4 102.6 C 187.8 102.5 188.4 101.3 189.1 101.4 C 189.1 101.4 189.1 101.4 189.1 101.4 Z M 192.6 99.7 C 192.5 99.6 192.1 99.8 191.6 100.1 C 191.9 99.4 191.1 99.8 191.7 99.2 C 191.7 99.5 194.2 98.0 192.9 99.1 C 191.5 99.7 193.4 99.1 194.0 98.8 C 193.4 99.1 192.6 100.4 192.2 100.1 C 192.5 99.9 192.8 99.7 192.6 99.7 C 192.6 99.7 192.6 99.7 192.6 99.7 Z M 211.7 78.3 C 211.5 78.1 211.2 78.6 211.0 78.8 C 211.8 77.2 212.3 75.7 212.7 75.0 C 212.5 75.7 212.8 75.9 213.2 75.5 C 212.7 76.2 212.9 76.5 212.6 76.7 C 212.5 75.9 212.2 77.3 211.7 78.3 C 211.7 78.3 211.7 78.3 211.7 78.3 Z M 211.7 78.3 " fill="#FF2E00"></path></g></svg>