<?xml version="1.0" encoding="UTF-8" standalone="no"?><svg xmlns="http://www.w3.org/2000/svg" xmlns:xlink="http://www.w3.org/1999/xlink" clip-rule="evenodd" stroke-miterlimit="10" viewBox="0 0 532 83"><desc>SVG generated by Keynote</desc><defs></defs><g transform="matrix(1.00, 0.00, -0.00, -1.00, 0.0, 83.0)"><text xml:space="preserve" font-family="GillSans,Gill Sans" font-size="86.0" fill="#FFFFFF" transform="matrix(1.00, 0.00, -0.00, -1.00, -3.9, 21.3)">L</text><text xml:space="preserve" font-family="GillSans,Gill Sans" font-size="86.0" fill="#FFFFFF" transform="matrix(1.00, 0.00, -0.00, -1.00, 38.3, 21.3)">e</text><text xml:space="preserve" font-family="GillSans,Gill Sans" font-size="86.0" fill="#FFFFFF" transform="matrix(1.00, 0.00, -0.00, -1.00, 79.5, 21.3)">a</text><text xml:space="preserve" font-family="GillSans,Gill Sans" font-size="86.0" fill="#FFFFFF" transform="matrix(1.00, 0.00, -0.00, -1.00, 116.2, 21.3)">r</text><text xml:space="preserve" font-family="GillSans,Gill Sans" font-size="86.0" fill="#FFFFFF" transform="matrix(1.00, 0.00, -0.00, -1.00, 150.2, 21.3)">n</text><text xml:space="preserve" font-family="GillSans,Gill Sans" font-size="86.0" fill="#FFFFFF" transform="matrix(1.00, 0.00, -0.00, -1.00, 193.2, 21.3)">i</text><text xml:space="preserve" font-family="GillSans,Gill Sans" font-size="86.0" fill="#FFFFFF" transform="matrix(1.00, 0.00, -0.00, -1.00, 212.1, 21.3)">n</text><text xml:space="preserve" font-family="GillSans,Gill Sans" font-size="86.0" fill="#FFFFFF" transform="matrix(1.00, 0.00, -0.00, -1.00, 255.1, 21.3)">g</text><text xml:space="preserve" font-family="GillSans,Gill Sans" font-size="86.0" fill="#FFFFFF" transform="matrix(1.00, 0.00, -0.00, -1.00, 291.8, 21.3)"> </text><text xml:space="preserve" font-family="GillSans,Gill Sans" font-size="86.0" fill="#FFFFFF" transform="matrix(1.00, 0.00, -0.00, -1.00, 315.7, 21.3)">C</text><text xml:space="preserve" font-family="GillSans,Gill Sans" font-size="86.0" fill="#FFFFFF" transform="matrix(1.00, 0.00, -0.00, -1.00, 376.5, 21.3)">u</text><text xml:space="preserve" font-family="GillSans,Gill Sans" font-size="86.0" fill="#FFFFFF" transform="matrix(1.00, 0.00, -0.00, -1.00, 419.5, 21.3)">r</text><text xml:space="preserve" font-family="GillSans,Gill Sans" font-size="86.0" fill="#FFFFFF" transform="matrix(1.00, 0.00, -0.00, -1.00, 456.2, 21.3)">v</text><text xml:space="preserve" font-family="GillSans,Gill Sans" font-size="86.0" fill="#FFFFFF" transform="matrix(1.00, 0.00, -0.00, -1.00, 492.1, 21.3)">e</text></g></svg>