<?xml version="1.0" encoding="UTF-8" standalone="no"?><svg xmlns="http://www.w3.org/2000/svg" xmlns:xlink="http://www.w3.org/1999/xlink" clip-rule="evenodd" stroke-miterlimit="10" viewBox="0 0 329 56"><desc>SVG generated by Keynote</desc><defs></defs><g transform="matrix(1.00, 0.00, -0.00, -1.00, 0.0, 56.0)"><text xml:space="preserve" font-family="Avenir-Light,Avenir" font-size="56.0" fill="#E45079" transform="matrix(1.00, 0.00, -0.00, -1.00, -3.3, 15.5)">&lt;</text><text xml:space="preserve" font-family="Avenir-Light,Avenir" font-size="56.0" fill="#E45079" transform="matrix(1.00, 0.00, -0.00, -1.00, 34.0, 15.5)">n</text><text xml:space="preserve" font-family="Avenir-Light,Avenir" font-size="56.0" fill="#E45079" transform="matrix(1.00, 0.00, -0.00, -1.00, 65.2, 15.5)">a</text><text xml:space="preserve" font-family="Avenir-Light,Avenir" font-size="56.0" fill="#E45079" transform="matrix(1.00, 0.00, -0.00, -1.00, 94.2, 15.5)">v</text><text xml:space="preserve" font-family="Avenir-Light,Avenir" font-size="56.0" fill="#E45079" transform="matrix(1.00, 0.00, -0.00, -1.00, 120.2, 15.5)">i</text><text xml:space="preserve" font-family="Avenir-Light,Avenir" font-size="56.0" fill="#E45079" transform="matrix(1.00, 0.00, -0.00, -1.00, 133.6, 15.5)">g</text><text xml:space="preserve" font-family="Avenir-Light,Avenir" font-size="56.0" fill="#E45079" transform="matrix(1.00, 0.00, -0.00, -1.00, 167.8, 15.5)">a</text><text xml:space="preserve" font-family="Avenir-Light,Avenir" font-size="56.0" fill="#E45079" transform="matrix(1.00, 0.00, -0.00, -1.00, 196.9, 15.5)">t</text><text xml:space="preserve" font-family="Avenir-Light,Avenir" font-size="56.0" fill="#E45079" transform="matrix(1.00, 0.00, -0.00, -1.00, 215.6, 15.5)">i</text><text xml:space="preserve" font-family="Avenir-Light,Avenir" font-size="56.0" fill="#E45079" transform="matrix(1.00, 0.00, -0.00, -1.00, 229.0, 15.5)">o</text><text xml:space="preserve" font-family="Avenir-Light,Avenir" font-size="56.0" fill="#E45079" transform="matrix(1.00, 0.00, -0.00, -1.00, 262.3, 15.5)">n</text><text xml:space="preserve" font-family="Avenir-Light,Avenir" font-size="56.0" fill="#E45079" transform="matrix(1.00, 0.00, -0.00, -1.00, 293.4, 15.5)">&gt;</text></g></svg>