<?xml version="1.0" encoding="UTF-8" standalone="no"?><svg xmlns="http://www.w3.org/2000/svg" xmlns:xlink="http://www.w3.org/1999/xlink" clip-rule="evenodd" stroke-miterlimit="10" viewBox="0 0 349 59"><desc>SVG generated by Keynote</desc><defs></defs><g transform="matrix(1.00, 0.00, -0.00, -1.00, 0.0, 59.0)"><text xml:space="preserve" font-family="Avenir-Light,Avenir" font-size="56.0" fill="#E45079" transform="matrix(1.00, 0.00, -0.00, -1.00, -3.3, 15.5)">&lt;</text><text xml:space="preserve" font-family="Avenir-Light,Avenir" font-size="56.0" fill="#E45079" transform="matrix(1.00, 0.00, -0.00, -1.00, 34.0, 15.5)">/</text><text xml:space="preserve" font-family="Avenir-Light,Avenir" font-size="56.0" fill="#E45079" transform="matrix(1.00, 0.00, -0.00, -1.00, 54.7, 15.5)">n</text><text xml:space="preserve" font-family="Avenir-Light,Avenir" font-size="56.0" fill="#E45079" transform="matrix(1.00, 0.00, -0.00, -1.00, 85.9, 15.5)">a</text><text xml:space="preserve" font-family="Avenir-Light,Avenir" font-size="56.0" fill="#E45079" transform="matrix(1.00, 0.00, -0.00, -1.00, 114.9, 15.5)">v</text><text xml:space="preserve" font-family="Avenir-Light,Avenir" font-size="56.0" fill="#E45079" transform="matrix(1.00, 0.00, -0.00, -1.00, 140.9, 15.5)">i</text><text xml:space="preserve" font-family="Avenir-Light,Avenir" font-size="56.0" fill="#E45079" transform="matrix(1.00, 0.00, -0.00, -1.00, 154.3, 15.5)">g</text><text xml:space="preserve" font-family="Avenir-Light,Avenir" font-size="56.0" fill="#E45079" transform="matrix(1.00, 0.00, -0.00, -1.00, 188.5, 15.5)">a</text><text xml:space="preserve" font-family="Avenir-Light,Avenir" font-size="56.0" fill="#E45079" transform="matrix(1.00, 0.00, -0.00, -1.00, 217.6, 15.5)">t</text><text xml:space="preserve" font-family="Avenir-Light,Avenir" font-size="56.0" fill="#E45079" transform="matrix(1.00, 0.00, -0.00, -1.00, 236.3, 15.5)">i</text><text xml:space="preserve" font-family="Avenir-Light,Avenir" font-size="56.0" fill="#E45079" transform="matrix(1.00, 0.00, -0.00, -1.00, 249.7, 15.5)">o</text><text xml:space="preserve" font-family="Avenir-Light,Avenir" font-size="56.0" fill="#E45079" transform="matrix(1.00, 0.00, -0.00, -1.00, 283.0, 15.5)">n</text><text xml:space="preserve" font-family="Avenir-Light,Avenir" font-size="56.0" fill="#E45079" transform="matrix(1.00, 0.00, -0.00, -1.00, 314.1, 15.5)">&gt;</text></g></svg>