<?xml version="1.0" encoding="UTF-8" standalone="no"?><svg xmlns="http://www.w3.org/2000/svg" xmlns:xlink="http://www.w3.org/1999/xlink" clip-rule="evenodd" stroke-miterlimit="10" viewBox="0 0 628 89"><desc>SVG generated by Keynote</desc><defs></defs><g transform="matrix(1.00, 0.00, -0.00, -1.00, 0.0, 89.0)"><text xml:space="preserve" font-family="Avenir-Light,Avenir" font-size="111.0" fill="#000000" transform="matrix(1.00, 0.00, -0.00, -1.00, -7.2, 3.6)">M</text><text xml:space="preserve" font-family="Avenir-Light,Avenir" font-size="111.0" fill="#000000" transform="matrix(1.00, 0.00, -0.00, -1.00, 91.5, 3.6)">o</text><text xml:space="preserve" font-family="Avenir-Light,Avenir" font-size="111.0" fill="#000000" transform="matrix(1.00, 0.00, -0.00, -1.00, 157.4, 3.6)">r</text><text xml:space="preserve" font-family="Avenir-Light,Avenir" font-size="111.0" fill="#000000" transform="matrix(1.00, 0.00, -0.00, -1.00, 192.4, 3.6)">e</text><text xml:space="preserve" font-family="Avenir-Light,Avenir" font-size="111.0" fill="#000000" transform="matrix(1.00, 0.00, -0.00, -1.00, 254.1, 3.6)"> </text><text xml:space="preserve" font-family="Avenir-Light,Avenir" font-size="111.0" fill="#000000" transform="matrix(1.00, 0.00, -0.00, -1.00, 282.9, 3.6)">R</text><text xml:space="preserve" font-family="Avenir-Light,Avenir" font-size="111.0" fill="#000000" transform="matrix(1.00, 0.00, -0.00, -1.00, 348.8, 3.6)">o</text><text xml:space="preserve" font-family="Avenir-Light,Avenir" font-size="111.0" fill="#000000" transform="matrix(1.00, 0.00, -0.00, -1.00, 414.7, 3.6)">b</text><text xml:space="preserve" font-family="Avenir-Light,Avenir" font-size="111.0" fill="#000000" transform="matrix(1.00, 0.00, -0.00, -1.00, 482.5, 3.6)">u</text><text xml:space="preserve" font-family="Avenir-Light,Avenir" font-size="111.0" fill="#000000" transform="matrix(1.00, 0.00, -0.00, -1.00, 544.2, 3.6)">s</text><text xml:space="preserve" font-family="Avenir-Light,Avenir" font-size="111.0" fill="#000000" transform="matrix(1.00, 0.00, -0.00, -1.00, 591.5, 3.6)">t</text></g></svg>