<?xml version="1.0" encoding="UTF-8" standalone="no"?><svg xmlns="http://www.w3.org/2000/svg" xmlns:xlink="http://www.w3.org/1999/xlink" clip-rule="evenodd" stroke-miterlimit="10" viewBox="0 0 480 56"><desc>SVG generated by Keynote</desc><defs></defs><g transform="matrix(1.00, 0.00, -0.00, -1.00, 0.0, 56.0)"><text xml:space="preserve" font-family="GillSans-Light,Gill Sans" font-size="58.0" fill="#FFFFFF" transform="matrix(1.00, 0.00, -0.00, -1.00, -2.1, 14.8)">B</text><text xml:space="preserve" font-family="GillSans-Light,Gill Sans" font-size="58.0" fill="#FFFFFF" transform="matrix(1.00, 0.00, -0.00, -1.00, 28.7, 14.8)">r</text><text xml:space="preserve" font-family="GillSans-Light,Gill Sans" font-size="58.0" fill="#FFFFFF" transform="matrix(1.00, 0.00, -0.00, -1.00, 49.5, 14.8)">a</text><text xml:space="preserve" font-family="GillSans-Light,Gill Sans" font-size="58.0" fill="#FFFFFF" transform="matrix(1.00, 0.00, -0.00, -1.00, 74.2, 14.8)">d</text><text xml:space="preserve" font-family="GillSans-Light,Gill Sans" font-size="58.0" fill="#FFFFFF" transform="matrix(1.00, 0.00, -0.00, -1.00, 103.8, 14.8)">e</text><text xml:space="preserve" font-family="GillSans-Light,Gill Sans" font-size="58.0" fill="#FFFFFF" transform="matrix(1.00, 0.00, -0.00, -1.00, 131.5, 14.8)">n</text><text xml:space="preserve" font-family="GillSans-Light,Gill Sans" font-size="58.0" fill="#FFFFFF" transform="matrix(1.00, 0.00, -0.00, -1.00, 160.0, 14.8)"> </text><text xml:space="preserve" font-family="GillSans-Light,Gill Sans" font-size="58.0" fill="#FFFFFF" transform="matrix(1.00, 0.00, -0.00, -1.00, 176.1, 14.8)">R</text><text xml:space="preserve" font-family="GillSans-Light,Gill Sans" font-size="58.0" fill="#FFFFFF" transform="matrix(1.00, 0.00, -0.00, -1.00, 209.4, 14.8)">o</text><text xml:space="preserve" font-family="GillSans-Light,Gill Sans" font-size="58.0" fill="#FFFFFF" transform="matrix(1.00, 0.00, -0.00, -1.00, 240.8, 14.8)">s</text><text xml:space="preserve" font-family="GillSans-Light,Gill Sans" font-size="58.0" fill="#FFFFFF" transform="matrix(1.00, 0.00, -0.00, -1.00, 261.3, 14.8)">e</text><text xml:space="preserve" font-family="GillSans-Light,Gill Sans" font-size="58.0" fill="#FFFFFF" transform="matrix(1.00, 0.00, -0.00, -1.00, 289.1, 14.8)">b</text><text xml:space="preserve" font-family="GillSans-Light,Gill Sans" font-size="58.0" fill="#FFFFFF" transform="matrix(1.00, 0.00, -0.00, -1.00, 318.7, 14.8)">o</text><text xml:space="preserve" font-family="GillSans-Light,Gill Sans" font-size="58.0" fill="#FFFFFF" transform="matrix(1.00, 0.00, -0.00, -1.00, 350.1, 14.8)">r</text><text xml:space="preserve" font-family="GillSans-Light,Gill Sans" font-size="58.0" fill="#FFFFFF" transform="matrix(1.00, 0.00, -0.00, -1.00, 369.4, 14.8)">o</text><text xml:space="preserve" font-family="GillSans-Light,Gill Sans" font-size="58.0" fill="#FFFFFF" transform="matrix(1.00, 0.00, -0.00, -1.00, 400.8, 14.8)">u</text><text xml:space="preserve" font-family="GillSans-Light,Gill Sans" font-size="58.0" fill="#FFFFFF" transform="matrix(1.00, 0.00, -0.00, -1.00, 429.3, 14.8)">g</text><text xml:space="preserve" font-family="GillSans-Light,Gill Sans" font-size="58.0" fill="#FFFFFF" transform="matrix(1.00, 0.00, -0.00, -1.00, 454.0, 14.8)">h</text></g></svg>