<?xml version="1.0" encoding="UTF-8" standalone="no"?><svg xmlns="http://www.w3.org/2000/svg" xmlns:xlink="http://www.w3.org/1999/xlink" clip-rule="evenodd" stroke-miterlimit="10" viewBox="0 0 1249 112"><desc>SVG generated by Keynote</desc><defs></defs><g transform="matrix(1.00, 0.00, -0.00, -1.00, 0.0, 112.0)"><text xml:space="preserve" font-family="Avenir-Light,Avenir" font-size="51.0" fill="#000000" transform="matrix(1.00, 0.00, -0.00, -1.00, -3.2, 72.3)">K</text><text xml:space="preserve" font-family="Avenir-Light,Avenir" font-size="51.0" fill="#000000" transform="matrix(1.00, 0.00, -0.00, -1.00, 36.1, 72.3)">E</text><text xml:space="preserve" font-family="Avenir-Light,Avenir" font-size="51.0" fill="#000000" transform="matrix(1.00, 0.00, -0.00, -1.00, 74.5, 72.3)">Y</text><text xml:space="preserve" font-family="Avenir-Light,Avenir" font-size="51.0" fill="#000000" transform="matrix(1.00, 0.00, -0.00, -1.00, 112.0, 72.3)"> </text><text xml:space="preserve" font-family="Avenir-Light,Avenir" font-size="51.0" fill="#000000" transform="matrix(1.00, 0.00, -0.00, -1.00, 133.4, 72.3)">C</text><text xml:space="preserve" font-family="Avenir-Light,Avenir" font-size="51.0" fill="#000000" transform="matrix(1.00, 0.00, -0.00, -1.00, 177.5, 72.3)">O</text><text xml:space="preserve" font-family="Avenir-Light,Avenir" font-size="51.0" fill="#000000" transform="matrix(1.00, 0.00, -0.00, -1.00, 228.1, 72.3)">N</text><text xml:space="preserve" font-family="Avenir-Light,Avenir" font-size="51.0" fill="#000000" transform="matrix(1.00, 0.00, -0.00, -1.00, 276.0, 72.3)">C</text><text xml:space="preserve" font-family="Avenir-Light,Avenir" font-size="51.0" fill="#000000" transform="matrix(1.00, 0.00, -0.00, -1.00, 320.0, 72.3)">E</text><text xml:space="preserve" font-family="Avenir-Light,Avenir" font-size="51.0" fill="#000000" transform="matrix(1.00, 0.00, -0.00, -1.00, 358.5, 72.3)">P</text><text xml:space="preserve" font-family="Avenir-Light,Avenir" font-size="51.0" fill="#000000" transform="matrix(1.00, 0.00, -0.00, -1.00, 395.9, 72.3)">T</text><text xml:space="preserve" font-family="Avenir-Light,Avenir" font-size="51.0" fill="#000000" transform="matrix(1.00, 0.00, -0.00, -1.00, 433.3, 72.3)">S</text><text xml:space="preserve" font-family="Avenir-Light,Avenir" font-size="51.0" fill="#000000" transform="matrix(1.00, 0.00, -0.00, -1.00, 469.8, 72.3)"> </text><text xml:space="preserve" font-family="Avenir-Light,Avenir" font-size="51.0" fill="#000000" transform="matrix(1.00, 0.00, -0.00, -1.00, 491.3, 72.3)">I</text><text xml:space="preserve" font-family="Avenir-Light,Avenir" font-size="51.0" fill="#000000" transform="matrix(1.00, 0.00, -0.00, -1.00, 512.7, 72.3)">N</text><text xml:space="preserve" font-family="Avenir-Light,Avenir" font-size="51.0" fill="#000000" transform="matrix(1.00, 0.00, -0.00, -1.00, 560.5, 72.3)"> </text><text xml:space="preserve" font-family="Avenir-Light,Avenir" font-size="51.0" fill="#000000" transform="matrix(1.00, 0.00, -0.00, -1.00, 581.9, 72.3)">R</text><text xml:space="preserve" font-family="Avenir-Light,Avenir" font-size="51.0" fill="#000000" transform="matrix(1.00, 0.00, -0.00, -1.00, 620.3, 72.3)">E</text><text xml:space="preserve" font-family="Avenir-Light,Avenir" font-size="51.0" fill="#000000" transform="matrix(1.00, 0.00, -0.00, -1.00, 658.7, 72.3)">S</text><text xml:space="preserve" font-family="Avenir-Light,Avenir" font-size="51.0" fill="#000000" transform="matrix(1.00, 0.00, -0.00, -1.00, 695.3, 72.3)">P</text><text xml:space="preserve" font-family="Avenir-Light,Avenir" font-size="51.0" fill="#000000" transform="matrix(1.00, 0.00, -0.00, -1.00, 732.7, 72.3)">O</text><text xml:space="preserve" font-family="Avenir-Light,Avenir" font-size="51.0" fill="#000000" transform="matrix(1.00, 0.00, -0.00, -1.00, 783.4, 72.3)">N</text><text xml:space="preserve" font-family="Avenir-Light,Avenir" font-size="51.0" fill="#000000" transform="matrix(1.00, 0.00, -0.00, -1.00, 831.2, 72.3)">S</text><text xml:space="preserve" font-family="Avenir-Light,Avenir" font-size="51.0" fill="#000000" transform="matrix(1.00, 0.00, -0.00, -1.00, 867.7, 72.3)">I</text><text xml:space="preserve" font-family="Avenir-Light,Avenir" font-size="51.0" fill="#000000" transform="matrix(1.00, 0.00, -0.00, -1.00, 889.2, 72.3)">V</text><text xml:space="preserve" font-family="Avenir-Light,Avenir" font-size="51.0" fill="#000000" transform="matrix(1.00, 0.00, -0.00, -1.00, 927.6, 72.3)">E</text><text xml:space="preserve" font-family="Avenir-Light,Avenir" font-size="51.0" fill="#000000" transform="matrix(1.00, 0.00, -0.00, -1.00, 966.0, 72.3)"> </text><text xml:space="preserve" font-family="Avenir-Light,Avenir" font-size="51.0" fill="#000000" transform="matrix(1.00, 0.00, -0.00, -1.00, 987.4, 72.3)">D</text><text xml:space="preserve" font-family="Avenir-Light,Avenir" font-size="51.0" fill="#000000" transform="matrix(1.00, 0.00, -0.00, -1.00, 1033.3, 72.3)">E</text><text xml:space="preserve" font-family="Avenir-Light,Avenir" font-size="51.0" fill="#000000" transform="matrix(1.00, 0.00, -0.00, -1.00, 1071.7, 72.3)">S</text><text xml:space="preserve" font-family="Avenir-Light,Avenir" font-size="51.0" fill="#000000" transform="matrix(1.00, 0.00, -0.00, -1.00, 1108.3, 72.3)">I</text><text xml:space="preserve" font-family="Avenir-Light,Avenir" font-size="51.0" fill="#000000" transform="matrix(1.00, 0.00, -0.00, -1.00, 1129.7, 72.3)">G</text><text xml:space="preserve" font-family="Avenir-Light,Avenir" font-size="51.0" fill="#000000" transform="matrix(1.00, 0.00, -0.00, -1.00, 1177.5, 72.3)">N</text><text xml:space="preserve" font-family="Avenir-Light,Avenir" font-size="51.0" fill="#000000" transform="matrix(1.00, 0.00, -0.00, -1.00, 1225.4, 72.3)"> </text><text xml:space="preserve" font-family="Avenir-Light,Avenir" font-size="51.0" fill="#000000" transform="matrix(1.00, 0.00, -0.00, -1.00, 1246.8, 72.3)"> </text><text xml:space="preserve" font-family="Avenir-Light,Avenir" font-size="51.0" fill="#000000" transform="matrix(1.00, 0.00, -0.00, -1.00, -3.2, 2.3)">B</text><text xml:space="preserve" font-family="Avenir-Light,Avenir" font-size="51.0" fill="#000000" transform="matrix(1.00, 0.00, -0.00, -1.00, 37.1, 2.3)">R</text><text xml:space="preserve" font-family="Avenir-Light,Avenir" font-size="51.0" fill="#000000" transform="matrix(1.00, 0.00, -0.00, -1.00, 75.5, 2.3)">E</text><text xml:space="preserve" font-family="Avenir-Light,Avenir" font-size="51.0" fill="#000000" transform="matrix(1.00, 0.00, -0.00, -1.00, 113.9, 2.3)">A</text><text xml:space="preserve" font-family="Avenir-Light,Avenir" font-size="51.0" fill="#000000" transform="matrix(1.00, 0.00, -0.00, -1.00, 157.0, 2.3)">K</text><text xml:space="preserve" font-family="Avenir-Light,Avenir" font-size="51.0" fill="#000000" transform="matrix(1.00, 0.00, -0.00, -1.00, 196.3, 2.3)">P</text><text xml:space="preserve" font-family="Avenir-Light,Avenir" font-size="51.0" fill="#000000" transform="matrix(1.00, 0.00, -0.00, -1.00, 233.8, 2.3)">O</text><text xml:space="preserve" font-family="Avenir-Light,Avenir" font-size="51.0" fill="#000000" transform="matrix(1.00, 0.00, -0.00, -1.00, 284.5, 2.3)">I</text><text xml:space="preserve" font-family="Avenir-Light,Avenir" font-size="51.0" fill="#000000" transform="matrix(1.00, 0.00, -0.00, -1.00, 305.9, 2.3)">N</text><text xml:space="preserve" font-family="Avenir-Light,Avenir" font-size="51.0" fill="#000000" transform="matrix(1.00, 0.00, -0.00, -1.00, 353.7, 2.3)">T</text><text xml:space="preserve" font-family="Avenir-Light,Avenir" font-size="51.0" fill="#000000" transform="matrix(1.00, 0.00, -0.00, -1.00, 391.1, 2.3)">S</text><text xml:space="preserve" font-family="Avenir-Light,Avenir" font-size="51.0" fill="#000000" transform="matrix(1.00, 0.00, -0.00, -1.00, 427.7, 2.3)"> </text><text xml:space="preserve" font-family="Avenir-Light,Avenir" font-size="51.0" fill="#000000" transform="matrix(1.00, 0.00, -0.00, -1.00, 449.1, 2.3)">A</text><text xml:space="preserve" font-family="Avenir-Light,Avenir" font-size="51.0" fill="#000000" transform="matrix(1.00, 0.00, -0.00, -1.00, 492.2, 2.3)">N</text><text xml:space="preserve" font-family="Avenir-Light,Avenir" font-size="51.0" fill="#000000" transform="matrix(1.00, 0.00, -0.00, -1.00, 540.0, 2.3)">D</text><text xml:space="preserve" font-family="Avenir-Light,Avenir" font-size="51.0" fill="#000000" transform="matrix(1.00, 0.00, -0.00, -1.00, 586.0, 2.3)"> </text><text xml:space="preserve" font-family="Avenir-Light,Avenir" font-size="51.0" fill="#000000" transform="matrix(1.00, 0.00, -0.00, -1.00, 607.4, 2.3)">"</text><text xml:space="preserve" font-family="Avenir-Light,Avenir" font-size="51.0" fill="#000000" transform="matrix(1.00, 0.00, -0.00, -1.00, 642.1, 2.3)">T</text><text xml:space="preserve" font-family="Avenir-Light,Avenir" font-size="51.0" fill="#000000" transform="matrix(1.00, 0.00, -0.00, -1.00, 679.5, 2.3)">H</text><text xml:space="preserve" font-family="Avenir-Light,Avenir" font-size="51.0" fill="#000000" transform="matrix(1.00, 0.00, -0.00, -1.00, 724.5, 2.3)">E</text><text xml:space="preserve" font-family="Avenir-Light,Avenir" font-size="51.0" fill="#000000" transform="matrix(1.00, 0.00, -0.00, -1.00, 762.9, 2.3)"> </text><text xml:space="preserve" font-family="Avenir-Light,Avenir" font-size="51.0" fill="#000000" transform="matrix(1.00, 0.00, -0.00, -1.00, 784.3, 2.3)">G</text><text xml:space="preserve" font-family="Avenir-Light,Avenir" font-size="51.0" fill="#000000" transform="matrix(1.00, 0.00, -0.00, -1.00, 832.1, 2.3)">R</text><text xml:space="preserve" font-family="Avenir-Light,Avenir" font-size="51.0" fill="#000000" transform="matrix(1.00, 0.00, -0.00, -1.00, 870.5, 2.3)">I</text><text xml:space="preserve" font-family="Avenir-Light,Avenir" font-size="51.0" fill="#000000" transform="matrix(1.00, 0.00, -0.00, -1.00, 892.0, 2.3)">D</text><text xml:space="preserve" font-family="Avenir-Light,Avenir" font-size="51.0" fill="#000000" transform="matrix(1.00, 0.00, -0.00, -1.00, 937.9, 2.3)">"</text></g></svg>