<?xml version="1.0" encoding="UTF-8" standalone="no"?><svg xmlns="http://www.w3.org/2000/svg" xmlns:xlink="http://www.w3.org/1999/xlink" clip-rule="evenodd" stroke-miterlimit="10" viewBox="0 0 461 63"><desc>SVG generated by Keynote</desc><defs></defs><g transform="matrix(1.00, 0.00, -0.00, -1.00, 0.0, 63.0)"><text xml:space="preserve" font-family="GillSans,Gill Sans" font-size="86.0" fill="#FFFFFF" transform="matrix(1.00, 0.00, -0.00, -1.00, -4.8, 2.3)">N</text><text xml:space="preserve" font-family="GillSans,Gill Sans" font-size="86.0" fill="#FFFFFF" transform="matrix(1.00, 0.00, -0.00, -1.00, 62.3, 2.3)">e</text><text xml:space="preserve" font-family="GillSans,Gill Sans" font-size="86.0" fill="#FFFFFF" transform="matrix(1.00, 0.00, -0.00, -1.00, 103.5, 2.3)">s</text><text xml:space="preserve" font-family="GillSans,Gill Sans" font-size="86.0" fill="#FFFFFF" transform="matrix(1.00, 0.00, -0.00, -1.00, 136.6, 2.3)">t</text><text xml:space="preserve" font-family="GillSans,Gill Sans" font-size="86.0" fill="#FFFFFF" transform="matrix(1.00, 0.00, -0.00, -1.00, 165.2, 2.3)">e</text><text xml:space="preserve" font-family="GillSans,Gill Sans" font-size="86.0" fill="#FFFFFF" transform="matrix(1.00, 0.00, -0.00, -1.00, 206.4, 2.3)">d</text><text xml:space="preserve" font-family="GillSans,Gill Sans" font-size="86.0" fill="#FFFFFF" transform="matrix(1.00, 0.00, -0.00, -1.00, 250.2, 2.3)"> </text><text xml:space="preserve" font-family="GillSans,Gill Sans" font-size="86.0" fill="#FFFFFF" transform="matrix(1.00, 0.00, -0.00, -1.00, 274.1, 2.3)">R</text><text xml:space="preserve" font-family="GillSans,Gill Sans" font-size="86.0" fill="#FFFFFF" transform="matrix(1.00, 0.00, -0.00, -1.00, 326.0, 2.3)">u</text><text xml:space="preserve" font-family="GillSans,Gill Sans" font-size="86.0" fill="#FFFFFF" transform="matrix(1.00, 0.00, -0.00, -1.00, 369.0, 2.3)">l</text><text xml:space="preserve" font-family="GillSans,Gill Sans" font-size="86.0" fill="#FFFFFF" transform="matrix(1.00, 0.00, -0.00, -1.00, 387.9, 2.3)">e</text><text xml:space="preserve" font-family="GillSans,Gill Sans" font-size="86.0" fill="#FFFFFF" transform="matrix(1.00, 0.00, -0.00, -1.00, 429.1, 2.3)">s</text></g></svg>