<?xml version="1.0" encoding="UTF-8" standalone="no"?><svg xmlns="http://www.w3.org/2000/svg" xmlns:xlink="http://www.w3.org/1999/xlink" clip-rule="evenodd" stroke-miterlimit="10" viewBox="0 0 362 49"><desc>SVG generated by Keynote</desc><defs></defs><g transform="matrix(1.00, 0.00, -0.00, -1.00, 0.0, 49.0)"><text xml:space="preserve" font-family="Avenir-Light,Avenir" font-size="56.0" fill="#8D4EBD" transform="matrix(1.00, 0.00, -0.00, -1.00, -2.8, 4.5)">&lt;</text><text xml:space="preserve" font-family="Avenir-Light,Avenir" font-size="56.0" fill="#8D4EBD" transform="matrix(1.00, 0.00, -0.00, -1.00, 34.5, 4.5)">l</text><text xml:space="preserve" font-family="Avenir-Light,Avenir" font-size="56.0" fill="#8D4EBD" transform="matrix(1.00, 0.00, -0.00, -1.00, 48.0, 4.5)">i</text><text xml:space="preserve" font-family="Avenir-Light,Avenir" font-size="56.0" fill="#8D4EBD" transform="matrix(1.00, 0.00, -0.00, -1.00, 61.4, 4.5)">&gt;</text><text xml:space="preserve" font-family="Avenir-Light,Avenir" font-size="56.0" fill="#8D4EBD" transform="matrix(1.00, 0.00, -0.00, -1.00, 98.7, 4.5)">L</text><text xml:space="preserve" font-family="Avenir-Light,Avenir" font-size="56.0" fill="#8D4EBD" transform="matrix(1.00, 0.00, -0.00, -1.00, 126.7, 4.5)">i</text><text xml:space="preserve" font-family="Avenir-Light,Avenir" font-size="56.0" fill="#8D4EBD" transform="matrix(1.00, 0.00, -0.00, -1.00, 140.2, 4.5)">n</text><text xml:space="preserve" font-family="Avenir-Light,Avenir" font-size="56.0" fill="#8D4EBD" transform="matrix(1.00, 0.00, -0.00, -1.00, 171.3, 4.5)">k</text><text xml:space="preserve" font-family="Avenir-Light,Avenir" font-size="56.0" fill="#8D4EBD" transform="matrix(1.00, 0.00, -0.00, -1.00, 198.2, 4.5)"> </text><text xml:space="preserve" font-family="Avenir-Light,Avenir" font-size="56.0" fill="#8D4EBD" transform="matrix(1.00, 0.00, -0.00, -1.00, 212.8, 4.5)">1</text><text xml:space="preserve" font-family="Avenir-Light,Avenir" font-size="56.0" fill="#8D4EBD" transform="matrix(1.00, 0.00, -0.00, -1.00, 241.9, 4.5)">&lt;</text><text xml:space="preserve" font-family="Avenir-Light,Avenir" font-size="56.0" fill="#8D4EBD" transform="matrix(1.00, 0.00, -0.00, -1.00, 279.2, 4.5)">/</text><text xml:space="preserve" font-family="Avenir-Light,Avenir" font-size="56.0" fill="#8D4EBD" transform="matrix(1.00, 0.00, -0.00, -1.00, 299.9, 4.5)">l</text><text xml:space="preserve" font-family="Avenir-Light,Avenir" font-size="56.0" fill="#8D4EBD" transform="matrix(1.00, 0.00, -0.00, -1.00, 313.4, 4.5)">i</text><text xml:space="preserve" font-family="Avenir-Light,Avenir" font-size="56.0" fill="#8D4EBD" transform="matrix(1.00, 0.00, -0.00, -1.00, 326.9, 4.5)">&gt;</text></g></svg>