<?xml version="1.0" encoding="UTF-8" standalone="no"?><svg xmlns="http://www.w3.org/2000/svg" xmlns:xlink="http://www.w3.org/1999/xlink" clip-rule="evenodd" stroke-miterlimit="10" viewBox="0 0 712 59"><desc>SVG generated by Keynote</desc><defs></defs><g transform="matrix(1.00, 0.00, -0.00, -1.00, 0.0, 59.0)"><text xml:space="preserve" font-family="Avenir-Light,Avenir" font-size="56.0" fill="#000000" transform="matrix(1.00, 0.00, -0.00, -1.00, -3.0, 14.5)">&lt;</text><text xml:space="preserve" font-family="Avenir-Light,Avenir" font-size="56.0" fill="#000000" transform="matrix(1.00, 0.00, -0.00, -1.00, 34.3, 14.5)">u</text><text xml:space="preserve" font-family="Avenir-Light,Avenir" font-size="56.0" fill="#000000" transform="matrix(1.00, 0.00, -0.00, -1.00, 65.4, 14.5)">l</text><text xml:space="preserve" font-family="Avenir-Light,Avenir" font-size="56.0" fill="#000000" transform="matrix(1.00, 0.00, -0.00, -1.00, 78.8, 14.5)"> </text><text xml:space="preserve" font-family="Avenir-Light,Avenir" font-size="56.0" fill="#000000" transform="matrix(1.00, 0.00, -0.00, -1.00, 93.4, 14.5)">c</text><text xml:space="preserve" font-family="Avenir-Light,Avenir" font-size="56.0" fill="#000000" transform="matrix(1.00, 0.00, -0.00, -1.00, 120.3, 14.5)">l</text><text xml:space="preserve" font-family="Avenir-Light,Avenir" font-size="56.0" fill="#000000" transform="matrix(1.00, 0.00, -0.00, -1.00, 133.8, 14.5)">a</text><text xml:space="preserve" font-family="Avenir-Light,Avenir" font-size="56.0" fill="#000000" transform="matrix(1.00, 0.00, -0.00, -1.00, 162.8, 14.5)">s</text><text xml:space="preserve" font-family="Avenir-Light,Avenir" font-size="56.0" fill="#000000" transform="matrix(1.00, 0.00, -0.00, -1.00, 186.7, 14.5)">s</text><text xml:space="preserve" font-family="Avenir-Light,Avenir" font-size="56.0" fill="#000000" transform="matrix(1.00, 0.00, -0.00, -1.00, 210.6, 14.5)">=</text><text xml:space="preserve" font-family="Avenir-Light,Avenir" font-size="56.0" fill="#000000" transform="matrix(1.00, 0.00, -0.00, -1.00, 247.8, 14.5)">“</text><text xml:space="preserve" font-family="Avenir-Light,Avenir" font-size="56.0" fill="#000000" transform="matrix(1.00, 0.00, -0.00, -1.00, 277.0, 14.5)">s</text><text xml:space="preserve" font-family="Avenir-Light,Avenir" font-size="56.0" fill="#000000" transform="matrix(1.00, 0.00, -0.00, -1.00, 300.8, 14.5)">n</text><text xml:space="preserve" font-family="Avenir-Light,Avenir" font-size="56.0" fill="#000000" transform="matrix(1.00, 0.00, -0.00, -1.00, 332.0, 14.5)">a</text><text xml:space="preserve" font-family="Avenir-Light,Avenir" font-size="56.0" fill="#000000" transform="matrix(1.00, 0.00, -0.00, -1.00, 361.0, 14.5)">p</text><text xml:space="preserve" font-family="Avenir-Light,Avenir" font-size="56.0" fill="#000000" transform="matrix(1.00, 0.00, -0.00, -1.00, 395.2, 14.5)">-</text><text xml:space="preserve" font-family="Avenir-Light,Avenir" font-size="56.0" fill="#000000" transform="matrix(1.00, 0.00, -0.00, -1.00, 413.9, 14.5)">c</text><text xml:space="preserve" font-family="Avenir-Light,Avenir" font-size="56.0" fill="#000000" transform="matrix(1.00, 0.00, -0.00, -1.00, 440.8, 14.5)">o</text><text xml:space="preserve" font-family="Avenir-Light,Avenir" font-size="56.0" fill="#000000" transform="matrix(1.00, 0.00, -0.00, -1.00, 474.1, 14.5)">n</text><text xml:space="preserve" font-family="Avenir-Light,Avenir" font-size="56.0" fill="#000000" transform="matrix(1.00, 0.00, -0.00, -1.00, 505.2, 14.5)">t</text><text xml:space="preserve" font-family="Avenir-Light,Avenir" font-size="56.0" fill="#000000" transform="matrix(1.00, 0.00, -0.00, -1.00, 523.9, 14.5)">a</text><text xml:space="preserve" font-family="Avenir-Light,Avenir" font-size="56.0" fill="#000000" transform="matrix(1.00, 0.00, -0.00, -1.00, 552.9, 14.5)">i</text><text xml:space="preserve" font-family="Avenir-Light,Avenir" font-size="56.0" fill="#000000" transform="matrix(1.00, 0.00, -0.00, -1.00, 566.4, 14.5)">n</text><text xml:space="preserve" font-family="Avenir-Light,Avenir" font-size="56.0" fill="#000000" transform="matrix(1.00, 0.00, -0.00, -1.00, 597.5, 14.5)">e</text><text xml:space="preserve" font-family="Avenir-Light,Avenir" font-size="56.0" fill="#000000" transform="matrix(1.00, 0.00, -0.00, -1.00, 628.6, 14.5)">r</text><text xml:space="preserve" font-family="Avenir-Light,Avenir" font-size="56.0" fill="#000000" transform="matrix(1.00, 0.00, -0.00, -1.00, 647.3, 14.5)">”</text><text xml:space="preserve" font-family="Avenir-Light,Avenir" font-size="56.0" fill="#000000" transform="matrix(1.00, 0.00, -0.00, -1.00, 676.4, 14.5)">&gt;</text></g></svg>