<?xml version="1.0" encoding="UTF-8" standalone="no"?><svg xmlns="http://www.w3.org/2000/svg" xmlns:xlink="http://www.w3.org/1999/xlink" clip-rule="evenodd" stroke-miterlimit="10" viewBox="0 0 1026 1083"><desc>SVG generated by Keynote</desc><defs></defs><g transform="matrix(1.00, 0.00, -0.00, -1.00, 0.0, 1083.0)"><g><clipPath id="clip0x600000cb1820"><path d="M 0.3 0.3 L 0.3 1082.3 L 4.3 1082.3 L 4.3 0.3 Z M 0.3 0.3 "></path></clipPath><g clip-path="url(#clip0x600000cb1820)"><path d="M -0.3 -0.3 L 1079.7 -0.3 " fill="none" stroke="#8D4EBD" stroke-width="2.00" transform="matrix(0.00, 1.00, 1.00, 0.00, 2.3, 1.3)"></path></g></g><g><clipPath id="clip0x600000cb3800"><path d="M 1021.7 0.3 L 1021.7 1082.3 L 1025.7 1082.3 L 1025.7 0.3 Z M 1021.7 0.3 "></path></clipPath><g clip-path="url(#clip0x600000cb3800)"><path d="M -0.3 0.3 L 1079.7 0.3 " fill="none" stroke="#8D4EBD" stroke-width="2.00" transform="matrix(0.00, 1.00, 1.00, 0.00, 1023.7, 1.3)"></path></g></g><g><clipPath id="clip0x600000cb3a40"><path d="M 936.6 0.3 L 936.6 1082.3 L 940.6 1082.3 L 940.6 0.3 Z M 936.6 0.3 "></path></clipPath><g clip-path="url(#clip0x600000cb3a40)"><path d="M -0.3 0.4 L 1079.7 0.4 " fill="none" stroke="#8D4EBD" stroke-width="2.00" transform="matrix(0.00, 1.00, 1.00, 0.00, 938.6, 1.3)"></path></g></g><g><clipPath id="clip0x600000cb3c80"><path d="M 851.5 0.3 L 851.5 1082.3 L 855.5 1082.3 L 855.5 0.3 Z M 851.5 0.3 "></path></clipPath><g clip-path="url(#clip0x600000cb3c80)"><path d="M -0.3 -0.5 L 1079.7 -0.5 " fill="none" stroke="#8D4EBD" stroke-width="2.00" transform="matrix(0.00, 1.00, 1.00, 0.00, 853.5, 1.3)"></path></g></g><g><clipPath id="clip0x600000cb3ec0"><path d="M 766.3 0.3 L 766.3 1082.3 L 770.3 1082.3 L 770.3 0.3 Z M 766.3 0.3 "></path></clipPath><g clip-path="url(#clip0x600000cb3ec0)"><path d="M -0.3 -0.3 L 1079.7 -0.3 " fill="none" stroke="#8D4EBD" stroke-width="2.00" transform="matrix(0.00, 1.00, 1.00, 0.00, 768.3, 1.3)"></path></g></g><g><clipPath id="clip0x600000cb4100"><path d="M 681.2 0.3 L 681.2 1082.3 L 685.2 1082.3 L 685.2 0.3 Z M 681.2 0.3 "></path></clipPath><g clip-path="url(#clip0x600000cb4100)"><path d="M -0.3 -0.2 L 1079.7 -0.2 " fill="none" stroke="#8D4EBD" stroke-width="2.00" transform="matrix(0.00, 1.00, 1.00, 0.00, 683.2, 1.3)"></path></g></g><g><clipPath id="clip0x600000cb4340"><path d="M 596.1 0.3 L 596.1 1082.3 L 600.1 1082.3 L 600.1 0.3 Z M 596.1 0.3 "></path></clipPath><g clip-path="url(#clip0x600000cb4340)"><path d="M -0.3 -0.1 L 1079.7 -0.1 " fill="none" stroke="#8D4EBD" stroke-width="2.00" transform="matrix(0.00, 1.00, 1.00, 0.00, 598.1, 1.3)"></path></g></g><g><clipPath id="clip0x600000cb4580"><path d="M 511.0 0.3 L 511.0 1082.3 L 515.0 1082.3 L 515.0 0.3 Z M 511.0 0.3 "></path></clipPath><g clip-path="url(#clip0x600000cb4580)"><path d="M -0.3 -0.0 L 1079.7 -0.0 " fill="none" stroke="#8D4EBD" stroke-width="2.00" transform="matrix(0.00, 1.00, 1.00, 0.00, 513.0, 1.3)"></path></g></g><g><clipPath id="clip0x600000cb47c0"><path d="M 425.9 0.3 L 425.9 1082.3 L 429.9 1082.3 L 429.9 0.3 Z M 425.9 0.3 "></path></clipPath><g clip-path="url(#clip0x600000cb47c0)"><path d="M -0.3 0.1 L 1079.7 0.1 " fill="none" stroke="#8D4EBD" stroke-width="2.00" transform="matrix(0.00, 1.00, 1.00, 0.00, 427.9, 1.3)"></path></g></g><g><clipPath id="clip0x600000cb4a00"><path d="M 340.8 0.3 L 340.8 1082.3 L 344.8 1082.3 L 344.8 0.3 Z M 340.8 0.3 "></path></clipPath><g clip-path="url(#clip0x600000cb4a00)"><path d="M -0.3 0.2 L 1079.7 0.2 " fill="none" stroke="#8D4EBD" stroke-width="2.00" transform="matrix(0.00, 1.00, 1.00, 0.00, 342.8, 1.3)"></path></g></g><g><clipPath id="clip0x600000cb4c40"><path d="M 255.7 0.3 L 255.7 1082.3 L 259.7 1082.3 L 259.7 0.3 Z M 255.7 0.3 "></path></clipPath><g clip-path="url(#clip0x600000cb4c40)"><path d="M -0.3 0.3 L 1079.7 0.3 " fill="none" stroke="#8D4EBD" stroke-width="2.00" transform="matrix(0.00, 1.00, 1.00, 0.00, 257.7, 1.3)"></path></g></g><g><clipPath id="clip0x600000cb4e80"><path d="M 170.6 0.3 L 170.6 1082.3 L 174.6 1082.3 L 174.6 0.3 Z M 170.6 0.3 "></path></clipPath><g clip-path="url(#clip0x600000cb4e80)"><path d="M -0.3 0.4 L 1079.7 0.4 " fill="none" stroke="#8D4EBD" stroke-width="2.00" transform="matrix(0.00, 1.00, 1.00, 0.00, 172.6, 1.3)"></path></g></g><g><clipPath id="clip0x600000cb50c0"><path d="M 85.5 0.3 L 85.5 1082.3 L 89.5 1082.3 L 89.5 0.3 Z M 85.5 0.3 "></path></clipPath><g clip-path="url(#clip0x600000cb50c0)"><path d="M -0.3 -0.5 L 1079.7 -0.5 " fill="none" stroke="#8D4EBD" stroke-width="2.00" transform="matrix(0.00, 1.00, 1.00, 0.00, 87.5, 1.3)"></path></g></g><g><clipPath id="clip0x600000cb5300"><path d="M 26.2 543.3 L 61.8 543.3 L 61.8 600.4 L 26.2 600.4 Z M 26.2 543.3 "></path></clipPath><g clip-path="url(#clip0x600000cb5300)"><text xml:space="preserve" font-family="Avenir-Light,Avenir" font-size="28.0" fill="#FEFFFF" transform="matrix(1.00, 0.00, -0.00, -1.00, 36.2, 563.1)">1</text></g></g><g><clipPath id="clip0x600000cb5540"><path d="M 112.0 543.3 L 147.7 543.3 L 147.7 600.4 L 112.0 600.4 Z M 112.0 543.3 "></path></clipPath><g clip-path="url(#clip0x600000cb5540)"><text xml:space="preserve" font-family="Avenir-Light,Avenir" font-size="28.0" fill="#FEFFFF" transform="matrix(1.00, 0.00, -0.00, -1.00, 122.1, 563.1)">2</text></g></g><g><clipPath id="clip0x600000cb5780"><path d="M 197.9 543.3 L 233.6 543.3 L 233.6 600.4 L 197.9 600.4 Z M 197.9 543.3 "></path></clipPath><g clip-path="url(#clip0x600000cb5780)"><text xml:space="preserve" font-family="Avenir-Light,Avenir" font-size="28.0" fill="#FEFFFF" transform="matrix(1.00, 0.00, -0.00, -1.00, 208.0, 563.1)">3</text></g></g><g><clipPath id="clip0x600000cb59c0"><path d="M 283.8 543.3 L 319.5 543.3 L 319.5 600.4 L 283.8 600.4 Z M 283.8 543.3 "></path></clipPath><g clip-path="url(#clip0x600000cb59c0)"><text xml:space="preserve" font-family="Avenir-Light,Avenir" font-size="28.0" fill="#FEFFFF" transform="matrix(1.00, 0.00, -0.00, -1.00, 293.8, 563.1)">4</text></g></g><g><clipPath id="clip0x600000cb5c00"><path d="M 369.7 543.3 L 405.3 543.3 L 405.3 600.4 L 369.7 600.4 Z M 369.7 543.3 "></path></clipPath><g clip-path="url(#clip0x600000cb5c00)"><text xml:space="preserve" font-family="Avenir-Light,Avenir" font-size="28.0" fill="#FEFFFF" transform="matrix(1.00, 0.00, -0.00, -1.00, 379.7, 563.1)">5</text></g></g><g><clipPath id="clip0x600000cb5e40"><path d="M 455.5 543.3 L 491.2 543.3 L 491.2 600.4 L 455.5 600.4 Z M 455.5 543.3 "></path></clipPath><g clip-path="url(#clip0x600000cb5e40)"><text xml:space="preserve" font-family="Avenir-Light,Avenir" font-size="28.0" fill="#FEFFFF" transform="matrix(1.00, 0.00, -0.00, -1.00, 465.6, 563.1)">6</text></g></g><g><clipPath id="clip0x600000cb6080"><path d="M 530.7 543.3 L 566.4 543.3 L 566.4 600.4 L 530.7 600.4 Z M 530.7 543.3 "></path></clipPath><g clip-path="url(#clip0x600000cb6080)"><text xml:space="preserve" font-family="Avenir-Light,Avenir" font-size="28.0" fill="#FEFFFF" transform="matrix(1.00, 0.00, -0.00, -1.00, 540.7, 563.1)">7</text></g></g><g><clipPath id="clip0x600000cb62c0"><path d="M 624.2 543.3 L 659.8 543.3 L 659.8 600.4 L 624.2 600.4 Z M 624.2 543.3 "></path></clipPath><g clip-path="url(#clip0x600000cb62c0)"><text xml:space="preserve" font-family="Avenir-Light,Avenir" font-size="28.0" fill="#FEFFFF" transform="matrix(1.00, 0.00, -0.00, -1.00, 634.2, 563.1)">8</text></g></g><g><clipPath id="clip0x600000cb6500"><path d="M 710.0 543.3 L 745.7 543.3 L 745.7 600.4 L 710.0 600.4 Z M 710.0 543.3 "></path></clipPath><g clip-path="url(#clip0x600000cb6500)"><text xml:space="preserve" font-family="Avenir-Light,Avenir" font-size="28.0" fill="#FEFFFF" transform="matrix(1.00, 0.00, -0.00, -1.00, 720.1, 563.1)">9</text></g></g><g><clipPath id="clip0x600000cb6740"><path d="M 783.3 543.3 L 833.5 543.3 L 833.5 600.4 L 783.3 600.4 Z M 783.3 543.3 "></path></clipPath><g clip-path="url(#clip0x600000cb6740)"><text xml:space="preserve" font-family="Avenir-Light,Avenir" font-size="28.0" fill="#FEFFFF" transform="matrix(1.00, 0.00, -0.00, -1.00, 793.3, 563.1)">1</text><text xml:space="preserve" font-family="Avenir-Light,Avenir" font-size="28.0" fill="#FEFFFF" transform="matrix(1.00, 0.00, -0.00, -1.00, 807.9, 563.1)">0</text></g></g><g><clipPath id="clip0x600000cb69e0"><path d="M 871.4 543.3 L 921.6 543.3 L 921.6 600.4 L 871.4 600.4 Z M 871.4 543.3 "></path></clipPath><g clip-path="url(#clip0x600000cb69e0)"><text xml:space="preserve" font-family="Avenir-Light,Avenir" font-size="28.0" fill="#FEFFFF" transform="matrix(1.00, 0.00, -0.00, -1.00, 881.4, 563.1)">1</text><text xml:space="preserve" font-family="Avenir-Light,Avenir" font-size="28.0" fill="#FEFFFF" transform="matrix(1.00, 0.00, -0.00, -1.00, 896.0, 563.1)">1</text></g></g><g><clipPath id="clip0x600000cb6c80"><path d="M 957.7 543.3 L 1007.9 543.3 L 1007.9 600.4 L 957.7 600.4 Z M 957.7 543.3 "></path></clipPath><g clip-path="url(#clip0x600000cb6c80)"><text xml:space="preserve" font-family="Avenir-Light,Avenir" font-size="28.0" fill="#FEFFFF" transform="matrix(1.00, 0.00, -0.00, -1.00, 967.7, 563.1)">1</text><text xml:space="preserve" font-family="Avenir-Light,Avenir" font-size="28.0" fill="#FEFFFF" transform="matrix(1.00, 0.00, -0.00, -1.00, 982.3, 563.1)">2</text></g></g></g></svg>