<?xml version="1.0" encoding="UTF-8" standalone="no"?><svg xmlns="http://www.w3.org/2000/svg" xmlns:xlink="http://www.w3.org/1999/xlink" clip-rule="evenodd" stroke-miterlimit="10" viewBox="0 0 1226 125"><desc>SVG generated by Keynote</desc><defs></defs><g transform="matrix(1.00, 0.00, -0.00, -1.00, 0.0, 125.0)"><image xlink:href="../../3896A820-00FA-48B0-83AB-21B99E881EBE/assets/70F7F2872921B58D59D5932FA4668F67.png" width="1222.00" height="123.00" transform="matrix(1.00, 0.00, -0.00, -1.00, 1.0, 124.0)"></image><text xml:space="preserve" font-family="Helvetica,Helvetica" font-size="134.0" fill="#FFFFFF" transform="matrix(1.00, 0.00, -0.00, -1.00, 1.3, 18.3)">C</text><text xml:space="preserve" font-family="Helvetica,Helvetica" font-size="134.0" fill="#FFFFFF" transform="matrix(1.00, 0.00, -0.00, -1.00, 98.1, 18.3)">S</text><text xml:space="preserve" font-family="Helvetica,Helvetica" font-size="134.0" fill="#FFFFFF" transform="matrix(1.00, 0.00, -0.00, -1.00, 187.5, 18.3)">S</text><text xml:space="preserve" font-family="Helvetica,Helvetica" font-size="134.0" fill="#FFFFFF" transform="matrix(1.00, 0.00, -0.00, -1.00, 276.9, 18.3)"> </text><text xml:space="preserve" font-family="Helvetica,Helvetica" font-size="134.0" fill="#FFFFFF" transform="matrix(1.00, 0.00, -0.00, -1.00, 314.1, 18.3)">-</text><text xml:space="preserve" font-family="Helvetica,Helvetica" font-size="134.0" fill="#FFFFFF" transform="matrix(1.00, 0.00, -0.00, -1.00, 358.7, 18.3)"> </text><text xml:space="preserve" font-family="Helvetica,Helvetica" font-size="134.0" fill="#FFFFFF" transform="matrix(1.00, 0.00, -0.00, -1.00, 395.9, 18.3)">L</text><text xml:space="preserve" font-family="Helvetica,Helvetica" font-size="134.0" fill="#FFFFFF" transform="matrix(1.00, 0.00, -0.00, -1.00, 470.4, 18.3)">E</text><text xml:space="preserve" font-family="Helvetica,Helvetica" font-size="134.0" fill="#FFFFFF" transform="matrix(1.00, 0.00, -0.00, -1.00, 559.8, 18.3)">S</text><text xml:space="preserve" font-family="Helvetica,Helvetica" font-size="134.0" fill="#FFFFFF" transform="matrix(1.00, 0.00, -0.00, -1.00, 649.2, 18.3)">S</text><text xml:space="preserve" font-family="Helvetica,Helvetica" font-size="134.0" fill="#FFFFFF" transform="matrix(1.00, 0.00, -0.00, -1.00, 738.6, 18.3)"> </text><text xml:space="preserve" font-family="Helvetica,Helvetica" font-size="134.0" fill="#FFFFFF" transform="matrix(1.00, 0.00, -0.00, -1.00, 775.8, 18.3)">-</text><text xml:space="preserve" font-family="Helvetica,Helvetica" font-size="134.0" fill="#FFFFFF" transform="matrix(1.00, 0.00, -0.00, -1.00, 820.4, 18.3)"> </text><text xml:space="preserve" font-family="Helvetica,Helvetica" font-size="134.0" fill="#FFFFFF" transform="matrix(1.00, 0.00, -0.00, -1.00, 857.6, 18.3)">S</text><text xml:space="preserve" font-family="Helvetica,Helvetica" font-size="134.0" fill="#FFFFFF" transform="matrix(1.00, 0.00, -0.00, -1.00, 947.0, 18.3)">A</text><text xml:space="preserve" font-family="Helvetica,Helvetica" font-size="134.0" fill="#FFFFFF" transform="matrix(1.00, 0.00, -0.00, -1.00, 1036.3, 18.3)">S</text><text xml:space="preserve" font-family="Helvetica,Helvetica" font-size="134.0" fill="#FFFFFF" transform="matrix(1.00, 0.00, -0.00, -1.00, 1125.7, 18.3)">S</text></g></svg>