<?xml version="1.0" encoding="UTF-8" standalone="no"?><svg xmlns="http://www.w3.org/2000/svg" xmlns:xlink="http://www.w3.org/1999/xlink" clip-rule="evenodd" stroke-miterlimit="10" viewBox="0 0 537 113"><desc>SVG generated by Keynote</desc><defs></defs><g transform="matrix(1.00, 0.00, -0.00, -1.00, 0.0, 113.0)"><text xml:space="preserve" font-family="GillSans,Gill Sans" font-size="117.0" fill="#FFFFFF" transform="matrix(1.00, 0.00, -0.00, -1.00, -5.5, 26.0)">n</text><text xml:space="preserve" font-family="GillSans,Gill Sans" font-size="117.0" fill="#FFFFFF" transform="matrix(1.00, 0.00, -0.00, -1.00, 53.0, 26.0)">a</text><text xml:space="preserve" font-family="GillSans,Gill Sans" font-size="117.0" fill="#FFFFFF" transform="matrix(1.00, 0.00, -0.00, -1.00, 98.8, 26.0)">v</text><text xml:space="preserve" font-family="GillSans,Gill Sans" font-size="117.0" fill="#FFFFFF" transform="matrix(1.00, 0.00, -0.00, -1.00, 150.0, 26.0)"> </text><text xml:space="preserve" font-family="GillSans,Gill Sans" font-size="117.0" fill="#FFFFFF" transform="matrix(1.00, 0.00, -0.00, -1.00, 182.5, 26.0)">u</text><text xml:space="preserve" font-family="GillSans,Gill Sans" font-size="117.0" fill="#FFFFFF" transform="matrix(1.00, 0.00, -0.00, -1.00, 241.0, 26.0)">l</text><text xml:space="preserve" font-family="GillSans,Gill Sans" font-size="117.0" fill="#FFFFFF" transform="matrix(1.00, 0.00, -0.00, -1.00, 266.7, 26.0)"> </text><text xml:space="preserve" font-family="GillSans,Gill Sans" font-size="117.0" fill="#FFFFFF" transform="matrix(1.00, 0.00, -0.00, -1.00, 299.2, 26.0)">l</text><text xml:space="preserve" font-family="GillSans,Gill Sans" font-size="117.0" fill="#FFFFFF" transform="matrix(1.00, 0.00, -0.00, -1.00, 324.8, 26.0)">i</text><text xml:space="preserve" font-family="GillSans,Gill Sans" font-size="117.0" fill="#FFFFFF" transform="matrix(1.00, 0.00, -0.00, -1.00, 350.5, 26.0)"> </text><text xml:space="preserve" font-family="GillSans,Gill Sans" font-size="117.0" fill="#FFFFFF" transform="matrix(1.00, 0.00, -0.00, -1.00, 383.0, 26.0)">{</text><text xml:space="preserve" font-family="GillSans,Gill Sans" font-size="117.0" fill="#FFFFFF" transform="matrix(1.00, 0.00, -0.00, -1.00, 421.9, 26.0)">.</text><text xml:space="preserve" font-family="GillSans,Gill Sans" font-size="117.0" fill="#FFFFFF" transform="matrix(1.00, 0.00, -0.00, -1.00, 447.6, 26.0)">.</text><text xml:space="preserve" font-family="GillSans,Gill Sans" font-size="117.0" fill="#FFFFFF" transform="matrix(1.00, 0.00, -0.00, -1.00, 473.3, 26.0)">.</text><text xml:space="preserve" font-family="GillSans,Gill Sans" font-size="117.0" fill="#FFFFFF" transform="matrix(1.00, 0.00, -0.00, -1.00, 499.0, 26.0)">}</text></g></svg>