<?xml version="1.0" encoding="UTF-8" standalone="no"?><svg xmlns="http://www.w3.org/2000/svg" xmlns:xlink="http://www.w3.org/1999/xlink" clip-rule="evenodd" stroke-miterlimit="10" viewBox="0 0 762 411"><desc>SVG generated by Keynote</desc><defs></defs><g transform="matrix(1.00, 0.00, -0.00, -1.00, 0.0, 411.0)"><g><clipPath id="clip0x600000eb9b00"><path d="M 0.0 0.9 L 761.0 0.9 L 761.0 411.0 L 0.0 411.0 Z M 0.0 0.9 "></path></clipPath><g clip-path="url(#clip0x600000eb9b00)"><path d="M 1.0 410.0 L 760.0 410.0 L 760.0 2.0 L 1.0 2.0 Z M 1.0 410.0 " fill="#00D895"></path></g></g><g><clipPath id="clip0x600000ebb0c0"><path d="M 26.7 41.2 L 356.3 41.2 L 356.3 370.8 L 26.7 370.8 Z M 26.7 41.2 "></path></clipPath><g clip-path="url(#clip0x600000ebb0c0)"><image xlink:href="../../EEE51801-0744-43C4-89C8-2DEF32EC8D45/assets/986D3370019BB6022F9C5FF4E04752BE.png" width="1000.00" height="1000.00" transform="matrix(0.33, 0.00, -0.00, -0.33, 27.0, 371.0)"></image></g></g><g><clipPath id="clip0x608000ab4be0"><path d="M 281.5 41.2 L 548.7 41.2 L 548.7 308.4 L 281.5 308.4 Z M 281.5 41.2 "></path></clipPath><g clip-path="url(#clip0x608000ab4be0)"><image xlink:href="../../EEE51801-0744-43C4-89C8-2DEF32EC8D45/assets/986D3370019BB6022F9C5FF4E04752BE.png" width="1000.00" height="1000.00" transform="matrix(0.27, 0.00, -0.00, -0.27, 282.0, 308.0)"></image></g></g><g><clipPath id="clip0x608000ab4d00"><path d="M 502.6 41.2 L 705.2 41.2 L 705.2 243.8 L 502.6 243.8 Z M 502.6 41.2 "></path></clipPath><g clip-path="url(#clip0x608000ab4d00)"><image xlink:href="../../EEE51801-0744-43C4-89C8-2DEF32EC8D45/assets/986D3370019BB6022F9C5FF4E04752BE.png" width="1000.00" height="1000.00" transform="matrix(0.20, 0.00, -0.00, -0.20, 503.0, 244.0)"></image></g></g><g><clipPath id="clip0x610000ab7520"><path d="M 156.4 284.3 L 178.6 284.3 L 178.6 306.5 L 156.4 306.5 Z M 156.4 284.3 "></path></clipPath><g clip-path="url(#clip0x610000ab7520)"><path d="M 174.7 302.6 C 178.6 298.6 178.6 292.2 174.7 288.3 C 170.7 284.3 164.3 284.3 160.4 288.3 C 156.4 292.2 156.4 298.6 160.4 302.6 C 164.3 306.5 170.7 306.5 174.7 302.6 " fill="#FFFFFF"></path></g></g><g><clipPath id="clip0x610000ab7760"><path d="M 198.6 284.3 L 220.8 284.3 L 220.8 306.5 L 198.6 306.5 Z M 198.6 284.3 "></path></clipPath><g clip-path="url(#clip0x610000ab7760)"><path d="M 216.8 302.6 C 220.7 298.6 220.7 292.2 216.8 288.3 C 212.9 284.3 206.5 284.3 202.5 288.3 C 198.6 292.2 198.6 298.6 202.5 302.6 C 206.5 306.5 212.9 306.5 216.8 302.6 " fill="#FFFFFF"></path></g></g><g><clipPath id="clip0x610000ab79a0"><path d="M 383.3 235.8 L 405.5 235.8 L 405.5 258.0 L 383.3 258.0 Z M 383.3 235.8 "></path></clipPath><g clip-path="url(#clip0x610000ab79a0)"><path d="M 401.5 254.1 C 405.4 250.1 405.4 243.7 401.5 239.8 C 397.6 235.9 391.2 235.9 387.2 239.8 C 383.3 243.7 383.3 250.1 387.2 254.1 C 391.2 258.0 397.6 258.0 401.5 254.1 " fill="#FFFFFF"></path></g></g><g><clipPath id="clip0x610000ab7160"><path d="M 425.4 235.8 L 447.6 235.8 L 447.6 258.0 L 425.4 258.0 Z M 425.4 235.8 "></path></clipPath><g clip-path="url(#clip0x610000ab7160)"><path d="M 443.6 254.1 C 447.6 250.1 447.6 243.7 443.6 239.8 C 439.7 235.9 433.3 235.9 429.3 239.8 C 425.4 243.7 425.4 250.1 429.3 254.1 C 433.3 258.0 439.7 258.0 443.6 254.1 " fill="#FFFFFF"></path></g></g><g><clipPath id="clip0x610000ab7040"><path d="M 584.1 187.9 L 601.1 187.9 L 601.1 204.9 L 584.1 204.9 Z M 584.1 187.9 "></path></clipPath><g clip-path="url(#clip0x610000ab7040)"><path d="M 597.9 201.7 C 600.9 198.8 600.9 194.1 597.9 191.1 C 595.0 188.2 590.2 188.2 587.3 191.1 C 584.4 194.1 584.4 198.8 587.3 201.7 C 590.2 204.7 595.0 204.7 597.9 201.7 " fill="#FFFFFF"></path></g></g><g><clipPath id="clip0x610000ab7be0"><path d="M 610.1 187.9 L 627.1 187.9 L 627.1 204.9 L 610.1 204.9 Z M 610.1 187.9 "></path></clipPath><g clip-path="url(#clip0x610000ab7be0)"><path d="M 623.9 201.7 C 626.8 198.8 626.8 194.1 623.9 191.1 C 621.0 188.2 616.2 188.2 613.3 191.1 C 610.4 194.1 610.4 198.8 613.3 201.7 C 616.2 204.7 621.0 204.7 623.9 201.7 " fill="#FFFFFF"></path></g></g></g></svg>