<?xml version="1.0" encoding="UTF-8" standalone="no"?><svg xmlns="http://www.w3.org/2000/svg" xmlns:xlink="http://www.w3.org/1999/xlink" clip-rule="evenodd" stroke-miterlimit="10" viewBox="0 0 653 59"><desc>SVG generated by Keynote</desc><defs></defs><g transform="matrix(1.00, 0.00, -0.00, -1.00, 0.0, 59.0)"><text xml:space="preserve" font-family="Avenir-Light,Avenir" font-size="56.0" fill="#000000" transform="matrix(1.00, 0.00, -0.00, -1.00, -1.2, 15.3)">@</text><text xml:space="preserve" font-family="Avenir-Light,Avenir" font-size="56.0" fill="#000000" transform="matrix(1.00, 0.00, -0.00, -1.00, 43.6, 15.3)">i</text><text xml:space="preserve" font-family="Avenir-Light,Avenir" font-size="56.0" fill="#000000" transform="matrix(1.00, 0.00, -0.00, -1.00, 57.1, 15.3)">n</text><text xml:space="preserve" font-family="Avenir-Light,Avenir" font-size="56.0" fill="#000000" transform="matrix(1.00, 0.00, -0.00, -1.00, 88.2, 15.3)">c</text><text xml:space="preserve" font-family="Avenir-Light,Avenir" font-size="56.0" fill="#000000" transform="matrix(1.00, 0.00, -0.00, -1.00, 115.2, 15.3)">l</text><text xml:space="preserve" font-family="Avenir-Light,Avenir" font-size="56.0" fill="#000000" transform="matrix(1.00, 0.00, -0.00, -1.00, 128.6, 15.3)">u</text><text xml:space="preserve" font-family="Avenir-Light,Avenir" font-size="56.0" fill="#000000" transform="matrix(1.00, 0.00, -0.00, -1.00, 159.7, 15.3)">d</text><text xml:space="preserve" font-family="Avenir-Light,Avenir" font-size="56.0" fill="#000000" transform="matrix(1.00, 0.00, -0.00, -1.00, 193.9, 15.3)">e</text><text xml:space="preserve" font-family="Avenir-Light,Avenir" font-size="56.0" fill="#000000" transform="matrix(1.00, 0.00, -0.00, -1.00, 225.1, 15.3)"> </text><text xml:space="preserve" font-family="Avenir-Light,Avenir" font-size="56.0" fill="#000000" transform="matrix(1.00, 0.00, -0.00, -1.00, 239.6, 15.3)">b</text><text xml:space="preserve" font-family="Avenir-Light,Avenir" font-size="56.0" fill="#000000" transform="matrix(1.00, 0.00, -0.00, -1.00, 273.9, 15.3)">r</text><text xml:space="preserve" font-family="Avenir-Light,Avenir" font-size="56.0" fill="#000000" transform="matrix(1.00, 0.00, -0.00, -1.00, 291.5, 15.3)">e</text><text xml:space="preserve" font-family="Avenir-Light,Avenir" font-size="56.0" fill="#000000" transform="matrix(1.00, 0.00, -0.00, -1.00, 322.6, 15.3)">a</text><text xml:space="preserve" font-family="Avenir-Light,Avenir" font-size="56.0" fill="#000000" transform="matrix(1.00, 0.00, -0.00, -1.00, 351.7, 15.3)">k</text><text xml:space="preserve" font-family="Avenir-Light,Avenir" font-size="56.0" fill="#000000" transform="matrix(1.00, 0.00, -0.00, -1.00, 378.6, 15.3)">p</text><text xml:space="preserve" font-family="Avenir-Light,Avenir" font-size="56.0" fill="#000000" transform="matrix(1.00, 0.00, -0.00, -1.00, 412.9, 15.3)">o</text><text xml:space="preserve" font-family="Avenir-Light,Avenir" font-size="56.0" fill="#000000" transform="matrix(1.00, 0.00, -0.00, -1.00, 446.1, 15.3)">i</text><text xml:space="preserve" font-family="Avenir-Light,Avenir" font-size="56.0" fill="#000000" transform="matrix(1.00, 0.00, -0.00, -1.00, 459.6, 15.3)">n</text><text xml:space="preserve" font-family="Avenir-Light,Avenir" font-size="56.0" fill="#000000" transform="matrix(1.00, 0.00, -0.00, -1.00, 490.7, 15.3)">t</text><text xml:space="preserve" font-family="Avenir-Light,Avenir" font-size="56.0" fill="#000000" transform="matrix(1.00, 0.00, -0.00, -1.00, 509.3, 15.3)">(</text><text xml:space="preserve" font-family="Avenir-Light,Avenir" font-size="56.0" fill="#000000" transform="matrix(1.00, 0.00, -0.00, -1.00, 523.9, 15.3)">m</text><text xml:space="preserve" font-family="Avenir-Light,Avenir" font-size="56.0" fill="#000000" transform="matrix(1.00, 0.00, -0.00, -1.00, 571.6, 15.3)">d</text><text xml:space="preserve" font-family="Avenir-Light,Avenir" font-size="56.0" fill="#000000" transform="matrix(1.00, 0.00, -0.00, -1.00, 605.8, 15.3)">)</text><text xml:space="preserve" font-family="Avenir-Light,Avenir" font-size="56.0" fill="#000000" transform="matrix(1.00, 0.00, -0.00, -1.00, 620.4, 15.3)"> </text><text xml:space="preserve" font-family="Avenir-Light,Avenir" font-size="56.0" fill="#000000" transform="matrix(1.00, 0.00, -0.00, -1.00, 634.9, 15.3)">{</text></g></svg>