<?xml version="1.0" encoding="UTF-8" standalone="no"?><svg xmlns="http://www.w3.org/2000/svg" xmlns:xlink="http://www.w3.org/1999/xlink" clip-rule="evenodd" stroke-miterlimit="10" viewBox="0 0 344 60"><desc>SVG generated by Keynote</desc><defs></defs><g transform="matrix(1.00, 0.00, -0.00, -1.00, 0.0, 60.0)"><text xml:space="preserve" font-family="Avenir-Light,Avenir" font-size="56.0" fill="#E45079" transform="matrix(1.00, 0.00, -0.00, -1.00, 0.8, 15.7)">#</text><text xml:space="preserve" font-family="Avenir-Light,Avenir" font-size="56.0" fill="#E45079" transform="matrix(1.00, 0.00, -0.00, -1.00, 30.0, 15.7)">M</text><text xml:space="preserve" font-family="Avenir-Light,Avenir" font-size="56.0" fill="#E45079" transform="matrix(1.00, 0.00, -0.00, -1.00, 79.7, 15.7)">y</text><text xml:space="preserve" font-family="Avenir-Light,Avenir" font-size="56.0" fill="#E45079" transform="matrix(1.00, 0.00, -0.00, -1.00, 105.7, 15.7)">E</text><text xml:space="preserve" font-family="Avenir-Light,Avenir" font-size="56.0" fill="#E45079" transform="matrix(1.00, 0.00, -0.00, -1.00, 138.9, 15.7)">l</text><text xml:space="preserve" font-family="Avenir-Light,Avenir" font-size="56.0" fill="#E45079" transform="matrix(1.00, 0.00, -0.00, -1.00, 152.3, 15.7)">e</text><text xml:space="preserve" font-family="Avenir-Light,Avenir" font-size="56.0" fill="#E45079" transform="matrix(1.00, 0.00, -0.00, -1.00, 183.5, 15.7)">m</text><text xml:space="preserve" font-family="Avenir-Light,Avenir" font-size="56.0" fill="#E45079" transform="matrix(1.00, 0.00, -0.00, -1.00, 231.2, 15.7)">e</text><text xml:space="preserve" font-family="Avenir-Light,Avenir" font-size="56.0" fill="#E45079" transform="matrix(1.00, 0.00, -0.00, -1.00, 262.3, 15.7)">n</text><text xml:space="preserve" font-family="Avenir-Light,Avenir" font-size="56.0" fill="#E45079" transform="matrix(1.00, 0.00, -0.00, -1.00, 293.4, 15.7)">t</text><text xml:space="preserve" font-family="Avenir-Light,Avenir" font-size="56.0" fill="#E45079" transform="matrix(1.00, 0.00, -0.00, -1.00, 312.1, 15.7)"> </text><text xml:space="preserve" font-family="Avenir-Light,Avenir" font-size="56.0" fill="#E45079" transform="matrix(1.00, 0.00, -0.00, -1.00, 326.7, 15.7)">{</text></g></svg>