<?xml version="1.0" encoding="UTF-8" standalone="no"?><svg xmlns="http://www.w3.org/2000/svg" xmlns:xlink="http://www.w3.org/1999/xlink" clip-rule="evenodd" stroke-miterlimit="10" viewBox="0 0 422 59"><desc>SVG generated by Keynote</desc><defs></defs><g transform="matrix(1.00, 0.00, -0.00, -1.00, 0.0, 59.0)"><text xml:space="preserve" font-family="Avenir-Light,Avenir" font-size="56.0" fill="#8D4EBD" transform="matrix(1.00, 0.00, -0.00, -1.00, -1.7, 15.3)">b</text><text xml:space="preserve" font-family="Avenir-Light,Avenir" font-size="56.0" fill="#8D4EBD" transform="matrix(1.00, 0.00, -0.00, -1.00, 32.5, 15.3)">a</text><text xml:space="preserve" font-family="Avenir-Light,Avenir" font-size="56.0" fill="#8D4EBD" transform="matrix(1.00, 0.00, -0.00, -1.00, 61.6, 15.3)">c</text><text xml:space="preserve" font-family="Avenir-Light,Avenir" font-size="56.0" fill="#8D4EBD" transform="matrix(1.00, 0.00, -0.00, -1.00, 88.5, 15.3)">k</text><text xml:space="preserve" font-family="Avenir-Light,Avenir" font-size="56.0" fill="#8D4EBD" transform="matrix(1.00, 0.00, -0.00, -1.00, 115.5, 15.3)">g</text><text xml:space="preserve" font-family="Avenir-Light,Avenir" font-size="56.0" fill="#8D4EBD" transform="matrix(1.00, 0.00, -0.00, -1.00, 149.7, 15.3)">r</text><text xml:space="preserve" font-family="Avenir-Light,Avenir" font-size="56.0" fill="#8D4EBD" transform="matrix(1.00, 0.00, -0.00, -1.00, 167.3, 15.3)">o</text><text xml:space="preserve" font-family="Avenir-Light,Avenir" font-size="56.0" fill="#8D4EBD" transform="matrix(1.00, 0.00, -0.00, -1.00, 200.6, 15.3)">u</text><text xml:space="preserve" font-family="Avenir-Light,Avenir" font-size="56.0" fill="#8D4EBD" transform="matrix(1.00, 0.00, -0.00, -1.00, 231.7, 15.3)">n</text><text xml:space="preserve" font-family="Avenir-Light,Avenir" font-size="56.0" fill="#8D4EBD" transform="matrix(1.00, 0.00, -0.00, -1.00, 262.9, 15.3)">d</text><text xml:space="preserve" font-family="Avenir-Light,Avenir" font-size="56.0" fill="#8D4EBD" transform="matrix(1.00, 0.00, -0.00, -1.00, 297.1, 15.3)">:</text><text xml:space="preserve" font-family="Avenir-Light,Avenir" font-size="56.0" fill="#8D4EBD" transform="matrix(1.00, 0.00, -0.00, -1.00, 311.6, 15.3)"> </text><text xml:space="preserve" font-family="Avenir-Light,Avenir" font-size="56.0" fill="#8D4EBD" transform="matrix(1.00, 0.00, -0.00, -1.00, 326.2, 15.3)">r</text><text xml:space="preserve" font-family="Avenir-Light,Avenir" font-size="56.0" fill="#8D4EBD" transform="matrix(1.00, 0.00, -0.00, -1.00, 343.8, 15.3)">e</text><text xml:space="preserve" font-family="Avenir-Light,Avenir" font-size="56.0" fill="#8D4EBD" transform="matrix(1.00, 0.00, -0.00, -1.00, 375.0, 15.3)">d</text><text xml:space="preserve" font-family="Avenir-Light,Avenir" font-size="56.0" fill="#8D4EBD" transform="matrix(1.00, 0.00, -0.00, -1.00, 409.2, 15.3)">;</text></g></svg>