<?xml version="1.0" encoding="UTF-8" standalone="no"?><svg xmlns="http://www.w3.org/2000/svg" xmlns:xlink="http://www.w3.org/1999/xlink" clip-rule="evenodd" stroke-miterlimit="10" viewBox="0 0 1920 1080"><desc>SVG generated by Keynote</desc><defs></defs><g transform="matrix(1.00, 0.00, -0.00, -1.00, 0.0, 1080.0)"><path d="M 0.0 1080.0 L 1920.0 1080.0 L 1920.0 0.0 L 0.0 0.0 Z M 0.0 1080.0 " fill="#FEFFFF"></path><image xlink:href="../../51F49D08-13DC-4B54-98D8-F4B5392853BE/assets/13A36B8193ECFFD90CEFB0B71EBC59C1.png" width="1920.00" height="1080.00" transform="matrix(1.00, 0.00, -0.00, -1.00, 0.0, 1080.0)"></image><path d="M 302.0 894.0 L 1617.0 894.0 L 1617.0 187.0 L 302.0 187.0 Z M 302.0 894.0 " fill="#00D895"></path><text xml:space="preserve" font-family="GillSans,Gill Sans" font-size="122.0" fill="#FFFFFF" transform="matrix(1.00, 0.00, -0.00, -1.00, 466.0, 638.1)">#</text><text xml:space="preserve" font-family="GillSans,Gill Sans" font-size="122.0" fill="#FFFFFF" transform="matrix(1.00, 0.00, -0.00, -1.00, 537.3, 638.1)">s</text><text xml:space="preserve" font-family="GillSans,Gill Sans" font-size="122.0" fill="#FFFFFF" transform="matrix(1.00, 0.00, -0.00, -1.00, 584.2, 638.1)">e</text><text xml:space="preserve" font-family="GillSans,Gill Sans" font-size="122.0" fill="#FFFFFF" transform="matrix(1.00, 0.00, -0.00, -1.00, 642.6, 638.1)">l</text><text xml:space="preserve" font-family="GillSans,Gill Sans" font-size="122.0" fill="#FFFFFF" transform="matrix(1.00, 0.00, -0.00, -1.00, 669.4, 638.1)">e</text><text xml:space="preserve" font-family="GillSans,Gill Sans" font-size="122.0" fill="#FFFFFF" transform="matrix(1.00, 0.00, -0.00, -1.00, 727.8, 638.1)">c</text><text xml:space="preserve" font-family="GillSans,Gill Sans" font-size="122.0" fill="#FFFFFF" transform="matrix(1.00, 0.00, -0.00, -1.00, 781.3, 638.1)">t</text><text xml:space="preserve" font-family="GillSans,Gill Sans" font-size="122.0" fill="#FFFFFF" transform="matrix(1.00, 0.00, -0.00, -1.00, 821.9, 638.1)">o</text><text xml:space="preserve" font-family="GillSans,Gill Sans" font-size="122.0" fill="#FFFFFF" transform="matrix(1.00, 0.00, -0.00, -1.00, 889.2, 638.1)">r</text><text xml:space="preserve" font-family="GillSans,Gill Sans" font-size="122.0" fill="#FFFFFF" transform="matrix(1.00, 0.00, -0.00, -1.00, 937.5, 638.1)"> </text><text xml:space="preserve" font-family="GillSans,Gill Sans" font-size="122.0" fill="#FEFFFF" transform="matrix(1.00, 0.00, -0.00, -1.00, 971.4, 638.1)">{</text><text xml:space="preserve" font-family="GillSans,Gill Sans" font-size="122.0" fill="#FEFFFF" transform="matrix(1.00, 0.00, -0.00, -1.00, 682.0, 498.1)">p</text><text xml:space="preserve" font-family="GillSans,Gill Sans" font-size="122.0" fill="#FEFFFF" transform="matrix(1.00, 0.00, -0.00, -1.00, 743.0, 498.1)">r</text><text xml:space="preserve" font-family="GillSans,Gill Sans" font-size="122.0" fill="#FEFFFF" transform="matrix(1.00, 0.00, -0.00, -1.00, 788.3, 498.1)">o</text><text xml:space="preserve" font-family="GillSans,Gill Sans" font-size="122.0" fill="#FEFFFF" transform="matrix(1.00, 0.00, -0.00, -1.00, 855.6, 498.1)">p</text><text xml:space="preserve" font-family="GillSans,Gill Sans" font-size="122.0" fill="#FEFFFF" transform="matrix(1.00, 0.00, -0.00, -1.00, 916.6, 498.1)">e</text><text xml:space="preserve" font-family="GillSans,Gill Sans" font-size="122.0" fill="#FEFFFF" transform="matrix(1.00, 0.00, -0.00, -1.00, 975.0, 498.1)">r</text><text xml:space="preserve" font-family="GillSans,Gill Sans" font-size="122.0" fill="#FEFFFF" transform="matrix(1.00, 0.00, -0.00, -1.00, 1025.8, 498.1)">t</text><text xml:space="preserve" font-family="GillSans,Gill Sans" font-size="122.0" fill="#FEFFFF" transform="matrix(1.00, 0.00, -0.00, -1.00, 1066.4, 498.1)">y</text><text xml:space="preserve" font-family="GillSans,Gill Sans" font-size="122.0" fill="#FEFFFF" transform="matrix(1.00, 0.00, -0.00, -1.00, 1119.8, 498.1)">:</text><text xml:space="preserve" font-family="GillSans,Gill Sans" font-size="122.0" fill="#FEFFFF" transform="matrix(1.00, 0.00, -0.00, -1.00, 1134.4, 498.1)"> </text><text xml:space="preserve" font-family="GillSans,Gill Sans" font-size="122.0" fill="#FEFFFF" transform="matrix(1.00, 0.00, -0.00, -1.00, 1168.3, 498.1)">v</text><text xml:space="preserve" font-family="GillSans,Gill Sans" font-size="122.0" fill="#FEFFFF" transform="matrix(1.00, 0.00, -0.00, -1.00, 1221.7, 498.1)">a</text><text xml:space="preserve" font-family="GillSans,Gill Sans" font-size="122.0" fill="#FEFFFF" transform="matrix(1.00, 0.00, -0.00, -1.00, 1273.8, 498.1)">l</text><text xml:space="preserve" font-family="GillSans,Gill Sans" font-size="122.0" fill="#FEFFFF" transform="matrix(1.00, 0.00, -0.00, -1.00, 1300.5, 498.1)">u</text><text xml:space="preserve" font-family="GillSans,Gill Sans" font-size="122.0" fill="#FEFFFF" transform="matrix(1.00, 0.00, -0.00, -1.00, 1361.5, 498.1)">e</text><text xml:space="preserve" font-family="GillSans,Gill Sans" font-size="122.0" fill="#FEFFFF" transform="matrix(1.00, 0.00, -0.00, -1.00, 1420.0, 498.1)">;</text><text xml:space="preserve" font-family="GillSans,Gill Sans" font-size="122.0" fill="#FEFFFF" transform="matrix(1.00, 0.00, -0.00, -1.00, 466.0, 358.1)">}</text></g></svg>