<?xml version="1.0" encoding="UTF-8" standalone="no"?><svg xmlns="http://www.w3.org/2000/svg" xmlns:xlink="http://www.w3.org/1999/xlink" clip-rule="evenodd" stroke-miterlimit="10" viewBox="0 0 547 117"><desc>SVG generated by Keynote</desc><defs></defs><g transform="matrix(1.00, 0.00, -0.00, -1.00, 0.0, 117.0)"><text xml:space="preserve" font-family="GillSans,Gill Sans" font-size="122.0" fill="#FFFFFF" transform="matrix(1.00, 0.00, -0.00, -1.00, 1.0, 27.1)">#</text><text xml:space="preserve" font-family="GillSans,Gill Sans" font-size="122.0" fill="#FFFFFF" transform="matrix(1.00, 0.00, -0.00, -1.00, 72.3, 27.1)">s</text><text xml:space="preserve" font-family="GillSans,Gill Sans" font-size="122.0" fill="#FFFFFF" transform="matrix(1.00, 0.00, -0.00, -1.00, 119.2, 27.1)">e</text><text xml:space="preserve" font-family="GillSans,Gill Sans" font-size="122.0" fill="#FFFFFF" transform="matrix(1.00, 0.00, -0.00, -1.00, 177.6, 27.1)">l</text><text xml:space="preserve" font-family="GillSans,Gill Sans" font-size="122.0" fill="#FFFFFF" transform="matrix(1.00, 0.00, -0.00, -1.00, 204.4, 27.1)">e</text><text xml:space="preserve" font-family="GillSans,Gill Sans" font-size="122.0" fill="#FFFFFF" transform="matrix(1.00, 0.00, -0.00, -1.00, 262.8, 27.1)">c</text><text xml:space="preserve" font-family="GillSans,Gill Sans" font-size="122.0" fill="#FFFFFF" transform="matrix(1.00, 0.00, -0.00, -1.00, 316.3, 27.1)">t</text><text xml:space="preserve" font-family="GillSans,Gill Sans" font-size="122.0" fill="#FFFFFF" transform="matrix(1.00, 0.00, -0.00, -1.00, 356.9, 27.1)">o</text><text xml:space="preserve" font-family="GillSans,Gill Sans" font-size="122.0" fill="#FFFFFF" transform="matrix(1.00, 0.00, -0.00, -1.00, 424.2, 27.1)">r</text><text xml:space="preserve" font-family="GillSans,Gill Sans" font-size="122.0" fill="#FFFFFF" transform="matrix(1.00, 0.00, -0.00, -1.00, 472.5, 27.1)"> </text><text xml:space="preserve" font-family="GillSans,Gill Sans" font-size="122.0" fill="#FFFFFF" transform="matrix(1.00, 0.00, -0.00, -1.00, 506.4, 27.1)">{</text></g></svg>