<?xml version="1.0" encoding="UTF-8" standalone="no"?><svg xmlns="http://www.w3.org/2000/svg" xmlns:xlink="http://www.w3.org/1999/xlink" clip-rule="evenodd" stroke-miterlimit="10" viewBox="0 0 1821 926"><desc>SVG generated by Keynote</desc><defs></defs><g transform="matrix(1.00, 0.00, -0.00, -1.00, 0.0, 926.0)"><g><clipPath id="clip0x6080008ad6e0"><path d="M 0.0 0.6 L 1820.6 0.6 L 1820.6 925.4 L 0.0 925.4 Z M 0.0 0.6 "></path></clipPath><g clip-path="url(#clip0x6080008ad6e0)"><path d="M 1.0 16.6 L 1.0 909.4 C 1.0 917.7 7.7 924.0 16.0 924.0 L 1804.6 924.0 C 1812.8 924.0 1820.0 917.7 1820.0 909.4 L 1820.0 16.6 C 1820.0 8.3 1812.8 2.0 1804.6 2.0 L 16.0 2.0 C 7.7 2.0 1.0 8.3 1.0 16.6 Z M 1.0 16.6 " fill="#ECECEC"></path></g></g><g><clipPath id="clip0x6080008ae100"><path d="M 10.5 893.9 L 32.6 893.9 L 32.6 915.9 L 10.5 915.9 Z M 10.5 893.9 "></path></clipPath><g clip-path="url(#clip0x6080008ae100)"><path d="M 28.6 911.9 C 32.5 908.0 32.5 901.7 28.6 897.8 C 24.7 893.9 18.4 893.9 14.5 897.8 C 10.5 901.7 10.5 908.0 14.5 911.9 C 18.4 915.9 24.7 915.9 28.6 911.9 Z M 28.6 911.9 " fill="#FF2E00"></path></g></g><g><clipPath id="clip0x6080008ae340"><path d="M 37.2 893.9 L 59.2 893.9 L 59.2 915.9 L 37.2 915.9 Z M 37.2 893.9 "></path></clipPath><g clip-path="url(#clip0x6080008ae340)"><path d="M 55.3 911.9 C 59.2 908.0 59.2 901.7 55.3 897.8 C 51.3 893.9 45.0 893.9 41.1 897.8 C 37.2 901.7 37.2 908.0 41.1 911.9 C 45.0 915.9 51.3 915.9 55.3 911.9 Z M 55.3 911.9 " fill="#FCA500"></path></g></g><g><clipPath id="clip0x6080008ae580"><path d="M 63.8 893.9 L 85.8 893.9 L 85.8 915.9 L 63.8 915.9 Z M 63.8 893.9 "></path></clipPath><g clip-path="url(#clip0x6080008ae580)"><path d="M 81.9 911.9 C 85.8 908.0 85.8 901.7 81.9 897.8 C 78.0 893.9 71.7 893.9 67.7 897.8 C 63.8 901.7 63.8 908.0 67.7 911.9 C 71.7 915.9 78.0 915.9 81.9 911.9 Z M 81.9 911.9 " fill="#5EA318"></path></g></g><g><clipPath id="clip0x6080008ae7c0"><path d="M 9.7 880.1 L 1810.3 880.1 L 1810.3 884.1 L 9.7 884.1 Z M 9.7 880.1 "></path></clipPath><g clip-path="url(#clip0x6080008ae7c0)"><path d="M 0.3 0.1 L 1798.3 0.1 " fill="none" stroke="#BFBFBF" stroke-width="2.00" transform="matrix(1.00, 0.00, 0.00, -1.00, 10.7, 882.1)"></path></g></g><g><clipPath id="clip0x6080008aea00"><path d="M 372.7 0.9 L 1448.4 0.9 L 1448.4 883.0 L 372.7 883.0 Z M 372.7 0.9 "></path></clipPath><g clip-path="url(#clip0x6080008aea00)"><path d="M 375.0 881.0 L 1446.0 881.0 L 1446.0 3.0 L 375.0 3.0 Z M 374.7 881.0 " fill="#FEFFFE"></path><path d="M 0.3 0.0 L 1071.3 0.0 L 1071.3 878.0 L 0.3 878.0 Z M 0.0 0.0 " fill="none" stroke="#BFBFBF" stroke-width="2.00" transform="matrix(1.00, 0.00, 0.00, -1.00, 374.7, 881.0)"></path></g></g><g><clipPath id="clip0x6080008aed00"><path d="M 854.6 405.9 L 966.4 405.9 L 966.4 520.1 L 854.6 520.1 Z M 854.6 405.9 "></path></clipPath><g clip-path="url(#clip0x6080008aed00)"><text xml:space="preserve" font-family="Avenir-Light,Avenir" font-size="56.0" fill="#000000" transform="matrix(1.00, 0.00, -0.00, -1.00, 874.2, 445.5)">L</text><text xml:space="preserve" font-family="Avenir-Light,Avenir" font-size="56.0" fill="#000000" transform="matrix(1.00, 0.00, -0.00, -1.00, 902.2, 445.5)">G</text></g></g></g></svg>