<?xml version="1.0" encoding="UTF-8" standalone="no"?><svg xmlns="http://www.w3.org/2000/svg" xmlns:xlink="http://www.w3.org/1999/xlink" clip-rule="evenodd" stroke-miterlimit="10" viewBox="0 0 143 1088"><desc>SVG generated by Keynote</desc><defs></defs><g transform="matrix(1.00, 0.00, -0.00, -1.00, 0.0, 1088.0)"><g><clipPath id="clip0x600000ca31e0"><path d="M 0.9 0.1 L 142.2 0.1 L 142.2 1087.9 L 0.9 1087.9 Z M 0.9 0.1 "></path></clipPath><g clip-path="url(#clip0x600000ca31e0)"><path d="M 2.5 1086.5 L 140.5 1086.5 L 140.5 1.5 L 2.5 1.5 Z M 2.4 1086.4 " fill="#3C81D7"></path><path d="M 0.1 -0.1 L 138.1 -0.1 L 138.1 1084.9 L 0.1 1084.9 Z M 0.0 0.0 " fill="none" stroke="#000000" stroke-width="1.00" transform="matrix(1.00, 0.00, 0.00, -1.00, 2.4, 1086.4)"></path></g></g><g><clipPath id="clip0x600000ca3480"><path d="M 20.6 0.6 L 122.6 0.6 L 122.6 1087.4 L 20.6 1087.4 Z M 20.6 0.6 "></path></clipPath><g clip-path="url(#clip0x600000ca3480)"><path d="M 22.0 1086.0 L 122.0 1086.0 L 122.0 2.0 L 22.0 2.0 Z M 21.6 1086.4 " fill="#BFBFBF"></path></g></g></g></svg>