<?xml version="1.0" encoding="UTF-8" standalone="no"?><svg xmlns="http://www.w3.org/2000/svg" xmlns:xlink="http://www.w3.org/1999/xlink" clip-rule="evenodd" stroke-miterlimit="10" viewBox="0 0 572 113"><desc>SVG generated by Keynote</desc><defs></defs><g transform="matrix(1.00, 0.00, -0.00, -1.00, 0.0, 113.0)"><text xml:space="preserve" font-family="Avenir-Light,Avenir" font-size="111.0" fill="#000000" transform="matrix(1.00, 0.00, -0.00, -1.00, -8.4, 27.6)">B</text><text xml:space="preserve" font-family="Avenir-Light,Avenir" font-size="111.0" fill="#000000" transform="matrix(1.00, 0.00, -0.00, -1.00, 61.6, 27.6)">r</text><text xml:space="preserve" font-family="Avenir-Light,Avenir" font-size="111.0" fill="#000000" transform="matrix(1.00, 0.00, -0.00, -1.00, 96.5, 27.6)">e</text><text xml:space="preserve" font-family="Avenir-Light,Avenir" font-size="111.0" fill="#000000" transform="matrix(1.00, 0.00, -0.00, -1.00, 158.3, 27.6)">a</text><text xml:space="preserve" font-family="Avenir-Light,Avenir" font-size="111.0" fill="#000000" transform="matrix(1.00, 0.00, -0.00, -1.00, 215.9, 27.6)">k</text><text xml:space="preserve" font-family="Avenir-Light,Avenir" font-size="111.0" fill="#000000" transform="matrix(1.00, 0.00, -0.00, -1.00, 269.3, 27.6)">p</text><text xml:space="preserve" font-family="Avenir-Light,Avenir" font-size="111.0" fill="#000000" transform="matrix(1.00, 0.00, -0.00, -1.00, 337.1, 27.6)">o</text><text xml:space="preserve" font-family="Avenir-Light,Avenir" font-size="111.0" fill="#000000" transform="matrix(1.00, 0.00, -0.00, -1.00, 403.0, 27.6)">i</text><text xml:space="preserve" font-family="Avenir-Light,Avenir" font-size="111.0" fill="#000000" transform="matrix(1.00, 0.00, -0.00, -1.00, 429.6, 27.6)">n</text><text xml:space="preserve" font-family="Avenir-Light,Avenir" font-size="111.0" fill="#000000" transform="matrix(1.00, 0.00, -0.00, -1.00, 491.4, 27.6)">t</text><text xml:space="preserve" font-family="Avenir-Light,Avenir" font-size="111.0" fill="#000000" transform="matrix(1.00, 0.00, -0.00, -1.00, 528.3, 27.6)">s</text></g></svg>