<?xml version="1.0" encoding="UTF-8" standalone="no"?><svg xmlns="http://www.w3.org/2000/svg" xmlns:xlink="http://www.w3.org/1999/xlink" clip-rule="evenodd" stroke-miterlimit="10" viewBox="0 0 1312 89"><desc>SVG generated by Keynote</desc><defs></defs><g transform="matrix(1.00, 0.00, -0.00, -1.00, 0.0, 89.0)"><text xml:space="preserve" font-family="Avenir-Light,Avenir" font-size="111.0" fill="#000000" transform="matrix(1.00, 0.00, -0.00, -1.00, -4.2, 3.6)">c</text><text xml:space="preserve" font-family="Avenir-Light,Avenir" font-size="111.0" fill="#000000" transform="matrix(1.00, 0.00, -0.00, -1.00, 49.2, 3.6)">l</text><text xml:space="preserve" font-family="Avenir-Light,Avenir" font-size="111.0" fill="#000000" transform="matrix(1.00, 0.00, -0.00, -1.00, 75.8, 3.6)">a</text><text xml:space="preserve" font-family="Avenir-Light,Avenir" font-size="111.0" fill="#000000" transform="matrix(1.00, 0.00, -0.00, -1.00, 133.4, 3.6)">s</text><text xml:space="preserve" font-family="Avenir-Light,Avenir" font-size="111.0" fill="#000000" transform="matrix(1.00, 0.00, -0.00, -1.00, 180.7, 3.6)">s</text><text xml:space="preserve" font-family="Avenir-Light,Avenir" font-size="111.0" fill="#000000" transform="matrix(1.00, 0.00, -0.00, -1.00, 228.0, 3.6)">=</text><text xml:space="preserve" font-family="Avenir-Light,Avenir" font-size="111.0" fill="#000000" transform="matrix(1.00, 0.00, -0.00, -1.00, 301.9, 3.6)">“</text><text xml:space="preserve" font-family="Avenir-Light,Avenir" font-size="111.0" fill="#000000" transform="matrix(1.00, 0.00, -0.00, -1.00, 359.6, 3.6)">c</text><text xml:space="preserve" font-family="Avenir-Light,Avenir" font-size="111.0" fill="#000000" transform="matrix(1.00, 0.00, -0.00, -1.00, 413.0, 3.6)">o</text><text xml:space="preserve" font-family="Avenir-Light,Avenir" font-size="111.0" fill="#000000" transform="matrix(1.00, 0.00, -0.00, -1.00, 479.0, 3.6)">l</text><text xml:space="preserve" font-family="Avenir-Light,Avenir" font-size="111.0" fill="#000000" transform="matrix(1.00, 0.00, -0.00, -1.00, 505.6, 3.6)">-</text><text xml:space="preserve" font-family="Avenir-Light,Avenir" font-size="111.0" fill="#000000" transform="matrix(1.00, 0.00, -0.00, -1.00, 542.6, 3.6)">x</text><text xml:space="preserve" font-family="Avenir-Light,Avenir" font-size="111.0" fill="#000000" transform="matrix(1.00, 0.00, -0.00, -1.00, 596.0, 3.6)">s</text><text xml:space="preserve" font-family="Avenir-Light,Avenir" font-size="111.0" fill="#000000" transform="matrix(1.00, 0.00, -0.00, -1.00, 643.2, 3.6)">-</text><text xml:space="preserve" font-family="Avenir-Light,Avenir" font-size="111.0" fill="#000000" transform="matrix(1.00, 0.00, -0.00, -1.00, 680.2, 3.6)">1</text><text xml:space="preserve" font-family="Avenir-Light,Avenir" font-size="111.0" fill="#000000" transform="matrix(1.00, 0.00, -0.00, -1.00, 737.9, 3.6)">2</text><text xml:space="preserve" font-family="Avenir-Light,Avenir" font-size="111.0" fill="#000000" transform="matrix(1.00, 0.00, -0.00, -1.00, 795.6, 3.6)"> </text><text xml:space="preserve" font-family="Avenir-Light,Avenir" font-size="111.0" fill="#000000" transform="matrix(1.00, 0.00, -0.00, -1.00, 824.5, 3.6)">c</text><text xml:space="preserve" font-family="Avenir-Light,Avenir" font-size="111.0" fill="#000000" transform="matrix(1.00, 0.00, -0.00, -1.00, 877.9, 3.6)">o</text><text xml:space="preserve" font-family="Avenir-Light,Avenir" font-size="111.0" fill="#000000" transform="matrix(1.00, 0.00, -0.00, -1.00, 943.8, 3.6)">l</text><text xml:space="preserve" font-family="Avenir-Light,Avenir" font-size="111.0" fill="#000000" transform="matrix(1.00, 0.00, -0.00, -1.00, 970.5, 3.6)">-</text><text xml:space="preserve" font-family="Avenir-Light,Avenir" font-size="111.0" fill="#000000" transform="matrix(1.00, 0.00, -0.00, -1.00, 1007.4, 3.6)">m</text><text xml:space="preserve" font-family="Avenir-Light,Avenir" font-size="111.0" fill="#000000" transform="matrix(1.00, 0.00, -0.00, -1.00, 1102.0, 3.6)">d</text><text xml:space="preserve" font-family="Avenir-Light,Avenir" font-size="111.0" fill="#000000" transform="matrix(1.00, 0.00, -0.00, -1.00, 1169.8, 3.6)">-</text><text xml:space="preserve" font-family="Avenir-Light,Avenir" font-size="111.0" fill="#000000" transform="matrix(1.00, 0.00, -0.00, -1.00, 1206.8, 3.6)">5</text><text xml:space="preserve" font-family="Avenir-Light,Avenir" font-size="111.0" fill="#000000" transform="matrix(1.00, 0.00, -0.00, -1.00, 1264.5, 3.6)">”</text></g></svg>