<?xml version="1.0" encoding="UTF-8" standalone="no"?><svg xmlns="http://www.w3.org/2000/svg" xmlns:xlink="http://www.w3.org/1999/xlink" clip-rule="evenodd" stroke-miterlimit="10" viewBox="0 0 1666 99"><desc>SVG generated by Keynote</desc><defs></defs><g transform="matrix(1.00, 0.00, -0.00, -1.00, 0.0, 99.0)"><text xml:space="preserve" font-family="GillSans,Gill Sans" font-size="104.0" fill="#FFFFFF" transform="matrix(1.00, 0.00, -0.00, -1.00, -3.5, 25.5)">C</text><text xml:space="preserve" font-family="GillSans,Gill Sans" font-size="104.0" fill="#FFFFFF" transform="matrix(1.00, 0.00, -0.00, -1.00, 70.1, 25.5)">o</text><text xml:space="preserve" font-family="GillSans,Gill Sans" font-size="104.0" fill="#FFFFFF" transform="matrix(1.00, 0.00, -0.00, -1.00, 127.5, 25.5)">d</text><text xml:space="preserve" font-family="GillSans,Gill Sans" font-size="104.0" fill="#FFFFFF" transform="matrix(1.00, 0.00, -0.00, -1.00, 180.5, 25.5)">e</text><text xml:space="preserve" font-family="GillSans,Gill Sans" font-size="104.0" fill="#FFFFFF" transform="matrix(1.00, 0.00, -0.00, -1.00, 230.3, 25.5)">K</text><text xml:space="preserve" font-family="GillSans,Gill Sans" font-size="104.0" fill="#FFFFFF" transform="matrix(1.00, 0.00, -0.00, -1.00, 298.5, 25.5)">i</text><text xml:space="preserve" font-family="GillSans,Gill Sans" font-size="104.0" fill="#FFFFFF" transform="matrix(1.00, 0.00, -0.00, -1.00, 321.3, 25.5)">t</text><text xml:space="preserve" font-family="GillSans,Gill Sans" font-size="104.0" fill="#FFFFFF" transform="matrix(1.00, 0.00, -0.00, -1.00, 355.9, 25.5)">:</text><text xml:space="preserve" font-family="GillSans,Gill Sans" font-size="104.0" fill="#FFFFFF" transform="matrix(1.00, 0.00, -0.00, -1.00, 368.3, 25.5)"> </text><text xml:space="preserve" font-family="GillSans,Gill Sans" font-size="104.0" fill="#FFFFFF" transform="matrix(1.00, 0.00, -0.00, -1.00, 397.2, 25.5)">h</text><text xml:space="preserve" font-family="GillSans,Gill Sans" font-size="104.0" fill="#FFFFFF" transform="matrix(1.00, 0.00, -0.00, -1.00, 449.2, 25.5)">t</text><text xml:space="preserve" font-family="GillSans,Gill Sans" font-size="104.0" fill="#FFFFFF" transform="matrix(1.00, 0.00, -0.00, -1.00, 483.8, 25.5)">t</text><text xml:space="preserve" font-family="GillSans,Gill Sans" font-size="104.0" fill="#FFFFFF" transform="matrix(1.00, 0.00, -0.00, -1.00, 518.5, 25.5)">p</text><text xml:space="preserve" font-family="GillSans,Gill Sans" font-size="104.0" fill="#FFFFFF" transform="matrix(1.00, 0.00, -0.00, -1.00, 570.5, 25.5)">:</text><text xml:space="preserve" font-family="GillSans,Gill Sans" font-size="104.0" fill="#FFFFFF" transform="matrix(1.00, 0.00, -0.00, -1.00, 593.3, 25.5)">/</text><text xml:space="preserve" font-family="GillSans,Gill Sans" font-size="104.0" fill="#FFFFFF" transform="matrix(1.00, 0.00, -0.00, -1.00, 622.5, 25.5)">/</text><text xml:space="preserve" font-family="GillSans,Gill Sans" font-size="104.0" fill="#FFFFFF" transform="matrix(1.00, 0.00, -0.00, -1.00, 651.6, 25.5)">i</text><text xml:space="preserve" font-family="GillSans,Gill Sans" font-size="104.0" fill="#FFFFFF" transform="matrix(1.00, 0.00, -0.00, -1.00, 674.5, 25.5)">n</text><text xml:space="preserve" font-family="GillSans,Gill Sans" font-size="104.0" fill="#FFFFFF" transform="matrix(1.00, 0.00, -0.00, -1.00, 726.5, 25.5)">c</text><text xml:space="preserve" font-family="GillSans,Gill Sans" font-size="104.0" fill="#FFFFFF" transform="matrix(1.00, 0.00, -0.00, -1.00, 772.0, 25.5)">i</text><text xml:space="preserve" font-family="GillSans,Gill Sans" font-size="104.0" fill="#FFFFFF" transform="matrix(1.00, 0.00, -0.00, -1.00, 794.8, 25.5)">d</text><text xml:space="preserve" font-family="GillSans,Gill Sans" font-size="104.0" fill="#FFFFFF" transform="matrix(1.00, 0.00, -0.00, -1.00, 847.8, 25.5)">e</text><text xml:space="preserve" font-family="GillSans,Gill Sans" font-size="104.0" fill="#FFFFFF" transform="matrix(1.00, 0.00, -0.00, -1.00, 897.7, 25.5)">n</text><text xml:space="preserve" font-family="GillSans,Gill Sans" font-size="104.0" fill="#FFFFFF" transform="matrix(1.00, 0.00, -0.00, -1.00, 949.7, 25.5)">t</text><text xml:space="preserve" font-family="GillSans,Gill Sans" font-size="104.0" fill="#FFFFFF" transform="matrix(1.00, 0.00, -0.00, -1.00, 984.3, 25.5)">5</text><text xml:space="preserve" font-family="GillSans,Gill Sans" font-size="104.0" fill="#FFFFFF" transform="matrix(1.00, 0.00, -0.00, -1.00, 1036.3, 25.5)">7</text><text xml:space="preserve" font-family="GillSans,Gill Sans" font-size="104.0" fill="#FFFFFF" transform="matrix(1.00, 0.00, -0.00, -1.00, 1088.3, 25.5)">.</text><text xml:space="preserve" font-family="GillSans,Gill Sans" font-size="104.0" fill="#FFFFFF" transform="matrix(1.00, 0.00, -0.00, -1.00, 1111.1, 25.5)">c</text><text xml:space="preserve" font-family="GillSans,Gill Sans" font-size="104.0" fill="#FFFFFF" transform="matrix(1.00, 0.00, -0.00, -1.00, 1156.7, 25.5)">o</text><text xml:space="preserve" font-family="GillSans,Gill Sans" font-size="104.0" fill="#FFFFFF" transform="matrix(1.00, 0.00, -0.00, -1.00, 1214.0, 25.5)">m</text><text xml:space="preserve" font-family="GillSans,Gill Sans" font-size="104.0" fill="#FFFFFF" transform="matrix(1.00, 0.00, -0.00, -1.00, 1294.2, 25.5)">/</text><text xml:space="preserve" font-family="GillSans,Gill Sans" font-size="104.0" fill="#FFFFFF" transform="matrix(1.00, 0.00, -0.00, -1.00, 1323.4, 25.5)">c</text><text xml:space="preserve" font-family="GillSans,Gill Sans" font-size="104.0" fill="#FFFFFF" transform="matrix(1.00, 0.00, -0.00, -1.00, 1368.9, 25.5)">o</text><text xml:space="preserve" font-family="GillSans,Gill Sans" font-size="104.0" fill="#FFFFFF" transform="matrix(1.00, 0.00, -0.00, -1.00, 1426.3, 25.5)">d</text><text xml:space="preserve" font-family="GillSans,Gill Sans" font-size="104.0" fill="#FFFFFF" transform="matrix(1.00, 0.00, -0.00, -1.00, 1479.3, 25.5)">e</text><text xml:space="preserve" font-family="GillSans,Gill Sans" font-size="104.0" fill="#FFFFFF" transform="matrix(1.00, 0.00, -0.00, -1.00, 1529.1, 25.5)">k</text><text xml:space="preserve" font-family="GillSans,Gill Sans" font-size="104.0" fill="#FFFFFF" transform="matrix(1.00, 0.00, -0.00, -1.00, 1578.9, 25.5)">i</text><text xml:space="preserve" font-family="GillSans,Gill Sans" font-size="104.0" fill="#FFFFFF" transform="matrix(1.00, 0.00, -0.00, -1.00, 1601.7, 25.5)">t</text><text xml:space="preserve" font-family="GillSans,Gill Sans" font-size="104.0" fill="#FFFFFF" transform="matrix(1.00, 0.00, -0.00, -1.00, 1636.4, 25.5)">/</text></g></svg>