<?xml version="1.0" encoding="UTF-8" standalone="no"?><svg xmlns="http://www.w3.org/2000/svg" xmlns:xlink="http://www.w3.org/1999/xlink" clip-rule="evenodd" stroke-miterlimit="10" viewBox="0 0 1804 99"><desc>SVG generated by Keynote</desc><defs></defs><g transform="matrix(1.00, 0.00, -0.00, -1.00, 0.0, 99.0)"><text xml:space="preserve" font-family="GillSans,Gill Sans" font-size="104.0" fill="#FFFFFF" transform="matrix(1.00, 0.00, -0.00, -1.00, -4.5, 25.5)">h</text><text xml:space="preserve" font-family="GillSans,Gill Sans" font-size="104.0" fill="#FFFFFF" transform="matrix(1.00, 0.00, -0.00, -1.00, 47.5, 25.5)">t</text><text xml:space="preserve" font-family="GillSans,Gill Sans" font-size="104.0" fill="#FFFFFF" transform="matrix(1.00, 0.00, -0.00, -1.00, 82.1, 25.5)">t</text><text xml:space="preserve" font-family="GillSans,Gill Sans" font-size="104.0" fill="#FFFFFF" transform="matrix(1.00, 0.00, -0.00, -1.00, 116.7, 25.5)">p</text><text xml:space="preserve" font-family="GillSans,Gill Sans" font-size="104.0" fill="#FFFFFF" transform="matrix(1.00, 0.00, -0.00, -1.00, 168.7, 25.5)">:</text><text xml:space="preserve" font-family="GillSans,Gill Sans" font-size="104.0" fill="#FFFFFF" transform="matrix(1.00, 0.00, -0.00, -1.00, 191.6, 25.5)">/</text><text xml:space="preserve" font-family="GillSans,Gill Sans" font-size="104.0" fill="#FFFFFF" transform="matrix(1.00, 0.00, -0.00, -1.00, 220.7, 25.5)">/</text><text xml:space="preserve" font-family="GillSans,Gill Sans" font-size="104.0" fill="#FFFFFF" transform="matrix(1.00, 0.00, -0.00, -1.00, 249.9, 25.5)">c</text><text xml:space="preserve" font-family="GillSans,Gill Sans" font-size="104.0" fill="#FFFFFF" transform="matrix(1.00, 0.00, -0.00, -1.00, 295.5, 25.5)">s</text><text xml:space="preserve" font-family="GillSans,Gill Sans" font-size="104.0" fill="#FFFFFF" transform="matrix(1.00, 0.00, -0.00, -1.00, 335.5, 25.5)">s</text><text xml:space="preserve" font-family="GillSans,Gill Sans" font-size="104.0" fill="#FFFFFF" transform="matrix(1.00, 0.00, -0.00, -1.00, 375.5, 25.5)">-</text><text xml:space="preserve" font-family="GillSans,Gill Sans" font-size="104.0" fill="#FFFFFF" transform="matrix(1.00, 0.00, -0.00, -1.00, 409.1, 25.5)">t</text><text xml:space="preserve" font-family="GillSans,Gill Sans" font-size="104.0" fill="#FFFFFF" transform="matrix(1.00, 0.00, -0.00, -1.00, 443.7, 25.5)">r</text><text xml:space="preserve" font-family="GillSans,Gill Sans" font-size="104.0" fill="#FFFFFF" transform="matrix(1.00, 0.00, -0.00, -1.00, 484.9, 25.5)">i</text><text xml:space="preserve" font-family="GillSans,Gill Sans" font-size="104.0" fill="#FFFFFF" transform="matrix(1.00, 0.00, -0.00, -1.00, 507.7, 25.5)">c</text><text xml:space="preserve" font-family="GillSans,Gill Sans" font-size="104.0" fill="#FFFFFF" transform="matrix(1.00, 0.00, -0.00, -1.00, 553.3, 25.5)">k</text><text xml:space="preserve" font-family="GillSans,Gill Sans" font-size="104.0" fill="#FFFFFF" transform="matrix(1.00, 0.00, -0.00, -1.00, 603.1, 25.5)">s</text><text xml:space="preserve" font-family="GillSans,Gill Sans" font-size="104.0" fill="#FFFFFF" transform="matrix(1.00, 0.00, -0.00, -1.00, 643.1, 25.5)">.</text><text xml:space="preserve" font-family="GillSans,Gill Sans" font-size="104.0" fill="#FFFFFF" transform="matrix(1.00, 0.00, -0.00, -1.00, 665.9, 25.5)">c</text><text xml:space="preserve" font-family="GillSans,Gill Sans" font-size="104.0" fill="#FFFFFF" transform="matrix(1.00, 0.00, -0.00, -1.00, 711.5, 25.5)">o</text><text xml:space="preserve" font-family="GillSans,Gill Sans" font-size="104.0" fill="#FFFFFF" transform="matrix(1.00, 0.00, -0.00, -1.00, 768.8, 25.5)">m</text><text xml:space="preserve" font-family="GillSans,Gill Sans" font-size="104.0" fill="#FFFFFF" transform="matrix(1.00, 0.00, -0.00, -1.00, 849.0, 25.5)">/</text><text xml:space="preserve" font-family="GillSans,Gill Sans" font-size="104.0" fill="#FFFFFF" transform="matrix(1.00, 0.00, -0.00, -1.00, 878.2, 25.5)">s</text><text xml:space="preserve" font-family="GillSans,Gill Sans" font-size="104.0" fill="#FFFFFF" transform="matrix(1.00, 0.00, -0.00, -1.00, 918.2, 25.5)">e</text><text xml:space="preserve" font-family="GillSans,Gill Sans" font-size="104.0" fill="#FFFFFF" transform="matrix(1.00, 0.00, -0.00, -1.00, 968.0, 25.5)">m</text><text xml:space="preserve" font-family="GillSans,Gill Sans" font-size="104.0" fill="#FFFFFF" transform="matrix(1.00, 0.00, -0.00, -1.00, 1048.2, 25.5)">a</text><text xml:space="preserve" font-family="GillSans,Gill Sans" font-size="104.0" fill="#FFFFFF" transform="matrix(1.00, 0.00, -0.00, -1.00, 1092.6, 25.5)">n</text><text xml:space="preserve" font-family="GillSans,Gill Sans" font-size="104.0" fill="#FFFFFF" transform="matrix(1.00, 0.00, -0.00, -1.00, 1144.6, 25.5)">t</text><text xml:space="preserve" font-family="GillSans,Gill Sans" font-size="104.0" fill="#FFFFFF" transform="matrix(1.00, 0.00, -0.00, -1.00, 1179.2, 25.5)">i</text><text xml:space="preserve" font-family="GillSans,Gill Sans" font-size="104.0" fill="#FFFFFF" transform="matrix(1.00, 0.00, -0.00, -1.00, 1202.0, 25.5)">c</text><text xml:space="preserve" font-family="GillSans,Gill Sans" font-size="104.0" fill="#FFFFFF" transform="matrix(1.00, 0.00, -0.00, -1.00, 1247.6, 25.5)">-</text><text xml:space="preserve" font-family="GillSans,Gill Sans" font-size="104.0" fill="#FFFFFF" transform="matrix(1.00, 0.00, -0.00, -1.00, 1281.2, 25.5)">c</text><text xml:space="preserve" font-family="GillSans,Gill Sans" font-size="104.0" fill="#FFFFFF" transform="matrix(1.00, 0.00, -0.00, -1.00, 1326.7, 25.5)">l</text><text xml:space="preserve" font-family="GillSans,Gill Sans" font-size="104.0" fill="#FFFFFF" transform="matrix(1.00, 0.00, -0.00, -1.00, 1349.6, 25.5)">a</text><text xml:space="preserve" font-family="GillSans,Gill Sans" font-size="104.0" fill="#FFFFFF" transform="matrix(1.00, 0.00, -0.00, -1.00, 1393.9, 25.5)">s</text><text xml:space="preserve" font-family="GillSans,Gill Sans" font-size="104.0" fill="#FFFFFF" transform="matrix(1.00, 0.00, -0.00, -1.00, 1433.9, 25.5)">s</text><text xml:space="preserve" font-family="GillSans,Gill Sans" font-size="104.0" fill="#FFFFFF" transform="matrix(1.00, 0.00, -0.00, -1.00, 1473.9, 25.5)">-</text><text xml:space="preserve" font-family="GillSans,Gill Sans" font-size="104.0" fill="#FFFFFF" transform="matrix(1.00, 0.00, -0.00, -1.00, 1507.6, 25.5)">n</text><text xml:space="preserve" font-family="GillSans,Gill Sans" font-size="104.0" fill="#FFFFFF" transform="matrix(1.00, 0.00, -0.00, -1.00, 1559.6, 25.5)">a</text><text xml:space="preserve" font-family="GillSans,Gill Sans" font-size="104.0" fill="#FFFFFF" transform="matrix(1.00, 0.00, -0.00, -1.00, 1603.9, 25.5)">m</text><text xml:space="preserve" font-family="GillSans,Gill Sans" font-size="104.0" fill="#FFFFFF" transform="matrix(1.00, 0.00, -0.00, -1.00, 1684.1, 25.5)">e</text><text xml:space="preserve" font-family="GillSans,Gill Sans" font-size="104.0" fill="#FFFFFF" transform="matrix(1.00, 0.00, -0.00, -1.00, 1733.9, 25.5)">s</text><text xml:space="preserve" font-family="GillSans,Gill Sans" font-size="104.0" fill="#FFFFFF" transform="matrix(1.00, 0.00, -0.00, -1.00, 1773.9, 25.5)">/</text></g></svg>