<?xml version="1.0" encoding="UTF-8" standalone="no"?><svg xmlns="http://www.w3.org/2000/svg" xmlns:xlink="http://www.w3.org/1999/xlink" clip-rule="evenodd" stroke-miterlimit="10" viewBox="0 0 917 99"><desc>SVG generated by Keynote</desc><defs></defs><g transform="matrix(1.00, 0.00, -0.00, -1.00, 0.0, 99.0)"><text xml:space="preserve" font-family="GillSans,Gill Sans" font-size="104.0" fill="#FFFFFF" transform="matrix(1.00, 0.00, -0.00, -1.00, -5.5, 25.5)">L</text><text xml:space="preserve" font-family="GillSans,Gill Sans" font-size="104.0" fill="#FFFFFF" transform="matrix(1.00, 0.00, -0.00, -1.00, 45.5, 25.5)">e</text><text xml:space="preserve" font-family="GillSans,Gill Sans" font-size="104.0" fill="#FFFFFF" transform="matrix(1.00, 0.00, -0.00, -1.00, 95.3, 25.5)">s</text><text xml:space="preserve" font-family="GillSans,Gill Sans" font-size="104.0" fill="#FFFFFF" transform="matrix(1.00, 0.00, -0.00, -1.00, 135.3, 25.5)">s</text><text xml:space="preserve" font-family="GillSans,Gill Sans" font-size="104.0" fill="#FFFFFF" transform="matrix(1.00, 0.00, -0.00, -1.00, 175.3, 25.5)">:</text><text xml:space="preserve" font-family="GillSans,Gill Sans" font-size="104.0" fill="#FFFFFF" transform="matrix(1.00, 0.00, -0.00, -1.00, 187.7, 25.5)"> </text><text xml:space="preserve" font-family="GillSans,Gill Sans" font-size="104.0" fill="#FFFFFF" transform="matrix(1.00, 0.00, -0.00, -1.00, 216.6, 25.5)">h</text><text xml:space="preserve" font-family="GillSans,Gill Sans" font-size="104.0" fill="#FFFFFF" transform="matrix(1.00, 0.00, -0.00, -1.00, 268.6, 25.5)">t</text><text xml:space="preserve" font-family="GillSans,Gill Sans" font-size="104.0" fill="#FFFFFF" transform="matrix(1.00, 0.00, -0.00, -1.00, 303.2, 25.5)">t</text><text xml:space="preserve" font-family="GillSans,Gill Sans" font-size="104.0" fill="#FFFFFF" transform="matrix(1.00, 0.00, -0.00, -1.00, 337.8, 25.5)">p</text><text xml:space="preserve" font-family="GillSans,Gill Sans" font-size="104.0" fill="#FFFFFF" transform="matrix(1.00, 0.00, -0.00, -1.00, 389.8, 25.5)">:</text><text xml:space="preserve" font-family="GillSans,Gill Sans" font-size="104.0" fill="#FFFFFF" transform="matrix(1.00, 0.00, -0.00, -1.00, 412.7, 25.5)">/</text><text xml:space="preserve" font-family="GillSans,Gill Sans" font-size="104.0" fill="#FFFFFF" transform="matrix(1.00, 0.00, -0.00, -1.00, 441.8, 25.5)">/</text><text xml:space="preserve" font-family="GillSans,Gill Sans" font-size="104.0" fill="#FFFFFF" transform="matrix(1.00, 0.00, -0.00, -1.00, 471.0, 25.5)">l</text><text xml:space="preserve" font-family="GillSans,Gill Sans" font-size="104.0" fill="#FFFFFF" transform="matrix(1.00, 0.00, -0.00, -1.00, 493.8, 25.5)">e</text><text xml:space="preserve" font-family="GillSans,Gill Sans" font-size="104.0" fill="#FFFFFF" transform="matrix(1.00, 0.00, -0.00, -1.00, 543.7, 25.5)">s</text><text xml:space="preserve" font-family="GillSans,Gill Sans" font-size="104.0" fill="#FFFFFF" transform="matrix(1.00, 0.00, -0.00, -1.00, 583.7, 25.5)">s</text><text xml:space="preserve" font-family="GillSans,Gill Sans" font-size="104.0" fill="#FFFFFF" transform="matrix(1.00, 0.00, -0.00, -1.00, 623.6, 25.5)">c</text><text xml:space="preserve" font-family="GillSans,Gill Sans" font-size="104.0" fill="#FFFFFF" transform="matrix(1.00, 0.00, -0.00, -1.00, 669.2, 25.5)">s</text><text xml:space="preserve" font-family="GillSans,Gill Sans" font-size="104.0" fill="#FFFFFF" transform="matrix(1.00, 0.00, -0.00, -1.00, 709.2, 25.5)">s</text><text xml:space="preserve" font-family="GillSans,Gill Sans" font-size="104.0" fill="#FFFFFF" transform="matrix(1.00, 0.00, -0.00, -1.00, 749.2, 25.5)">.</text><text xml:space="preserve" font-family="GillSans,Gill Sans" font-size="104.0" fill="#FFFFFF" transform="matrix(1.00, 0.00, -0.00, -1.00, 772.0, 25.5)">o</text><text xml:space="preserve" font-family="GillSans,Gill Sans" font-size="104.0" fill="#FFFFFF" transform="matrix(1.00, 0.00, -0.00, -1.00, 829.4, 25.5)">r</text><text xml:space="preserve" font-family="GillSans,Gill Sans" font-size="104.0" fill="#FFFFFF" transform="matrix(1.00, 0.00, -0.00, -1.00, 870.6, 25.5)">g</text></g></svg>