<?xml version="1.0" encoding="UTF-8" standalone="no"?><svg xmlns="http://www.w3.org/2000/svg" xmlns:xlink="http://www.w3.org/1999/xlink" clip-rule="evenodd" stroke-miterlimit="10" viewBox="0 0 1038 99"><desc>SVG generated by Keynote</desc><defs></defs><g transform="matrix(1.00, 0.00, -0.00, -1.00, 0.0, 99.0)"><text xml:space="preserve" font-family="GillSans,Gill Sans" font-size="104.0" fill="#FFFFFF" transform="matrix(1.00, 0.00, -0.00, -1.00, -3.5, 25.5)">G</text><text xml:space="preserve" font-family="GillSans,Gill Sans" font-size="104.0" fill="#FFFFFF" transform="matrix(1.00, 0.00, -0.00, -1.00, 73.5, 25.5)">r</text><text xml:space="preserve" font-family="GillSans,Gill Sans" font-size="104.0" fill="#FFFFFF" transform="matrix(1.00, 0.00, -0.00, -1.00, 114.7, 25.5)">u</text><text xml:space="preserve" font-family="GillSans,Gill Sans" font-size="104.0" fill="#FFFFFF" transform="matrix(1.00, 0.00, -0.00, -1.00, 166.7, 25.5)">n</text><text xml:space="preserve" font-family="GillSans,Gill Sans" font-size="104.0" fill="#FFFFFF" transform="matrix(1.00, 0.00, -0.00, -1.00, 218.7, 25.5)">t</text><text xml:space="preserve" font-family="GillSans,Gill Sans" font-size="104.0" fill="#FFFFFF" transform="matrix(1.00, 0.00, -0.00, -1.00, 253.3, 25.5)">:</text><text xml:space="preserve" font-family="GillSans,Gill Sans" font-size="104.0" fill="#FFFFFF" transform="matrix(1.00, 0.00, -0.00, -1.00, 265.7, 25.5)"> </text><text xml:space="preserve" font-family="GillSans,Gill Sans" font-size="104.0" fill="#FFFFFF" transform="matrix(1.00, 0.00, -0.00, -1.00, 294.6, 25.5)">h</text><text xml:space="preserve" font-family="GillSans,Gill Sans" font-size="104.0" fill="#FFFFFF" transform="matrix(1.00, 0.00, -0.00, -1.00, 346.6, 25.5)">t</text><text xml:space="preserve" font-family="GillSans,Gill Sans" font-size="104.0" fill="#FFFFFF" transform="matrix(1.00, 0.00, -0.00, -1.00, 381.2, 25.5)">t</text><text xml:space="preserve" font-family="GillSans,Gill Sans" font-size="104.0" fill="#FFFFFF" transform="matrix(1.00, 0.00, -0.00, -1.00, 415.8, 25.5)">p</text><text xml:space="preserve" font-family="GillSans,Gill Sans" font-size="104.0" fill="#FFFFFF" transform="matrix(1.00, 0.00, -0.00, -1.00, 467.8, 25.5)">:</text><text xml:space="preserve" font-family="GillSans,Gill Sans" font-size="104.0" fill="#FFFFFF" transform="matrix(1.00, 0.00, -0.00, -1.00, 490.7, 25.5)">/</text><text xml:space="preserve" font-family="GillSans,Gill Sans" font-size="104.0" fill="#FFFFFF" transform="matrix(1.00, 0.00, -0.00, -1.00, 519.8, 25.5)">/</text><text xml:space="preserve" font-family="GillSans,Gill Sans" font-size="104.0" fill="#FFFFFF" transform="matrix(1.00, 0.00, -0.00, -1.00, 549.0, 25.5)">g</text><text xml:space="preserve" font-family="GillSans,Gill Sans" font-size="104.0" fill="#FFFFFF" transform="matrix(1.00, 0.00, -0.00, -1.00, 593.4, 25.5)">r</text><text xml:space="preserve" font-family="GillSans,Gill Sans" font-size="104.0" fill="#FFFFFF" transform="matrix(1.00, 0.00, -0.00, -1.00, 634.6, 25.5)">u</text><text xml:space="preserve" font-family="GillSans,Gill Sans" font-size="104.0" fill="#FFFFFF" transform="matrix(1.00, 0.00, -0.00, -1.00, 686.6, 25.5)">n</text><text xml:space="preserve" font-family="GillSans,Gill Sans" font-size="104.0" fill="#FFFFFF" transform="matrix(1.00, 0.00, -0.00, -1.00, 738.6, 25.5)">t</text><text xml:space="preserve" font-family="GillSans,Gill Sans" font-size="104.0" fill="#FFFFFF" transform="matrix(1.00, 0.00, -0.00, -1.00, 773.2, 25.5)">j</text><text xml:space="preserve" font-family="GillSans,Gill Sans" font-size="104.0" fill="#FFFFFF" transform="matrix(1.00, 0.00, -0.00, -1.00, 796.0, 25.5)">s</text><text xml:space="preserve" font-family="GillSans,Gill Sans" font-size="104.0" fill="#FFFFFF" transform="matrix(1.00, 0.00, -0.00, -1.00, 836.0, 25.5)">.</text><text xml:space="preserve" font-family="GillSans,Gill Sans" font-size="104.0" fill="#FFFFFF" transform="matrix(1.00, 0.00, -0.00, -1.00, 858.8, 25.5)">c</text><text xml:space="preserve" font-family="GillSans,Gill Sans" font-size="104.0" fill="#FFFFFF" transform="matrix(1.00, 0.00, -0.00, -1.00, 904.4, 25.5)">o</text><text xml:space="preserve" font-family="GillSans,Gill Sans" font-size="104.0" fill="#FFFFFF" transform="matrix(1.00, 0.00, -0.00, -1.00, 961.7, 25.5)">m</text></g></svg>