<?xml version="1.0" encoding="UTF-8" standalone="no"?><svg xmlns="http://www.w3.org/2000/svg" xmlns:xlink="http://www.w3.org/1999/xlink" clip-rule="evenodd" stroke-miterlimit="10" viewBox="0 0 1920 1080"><desc>SVG generated by Keynote</desc><defs></defs><g transform="matrix(1.00, 0.00, -0.00, -1.00, 0.0, 1080.0)"><path d="M 0.0 1080.0 L 1920.0 1080.0 L 1920.0 0.0 L 0.0 0.0 Z M 0.0 1080.0 " fill="#FEFFFF"></path><image xlink:href="../../3896A820-00FA-48B0-83AB-21B99E881EBE/assets/C31CC97E88B8A1A465344EA9058175C0.png" width="1365.00" height="768.00" transform="matrix(1.41, 0.00, -0.00, -1.41, 0.0, 1080.0)"></image><path d="M 62.0 949.0 L 1858.0 949.0 L 1858.0 131.0 L 62.0 131.0 Z M 62.2 949.5 " fill="#FFFFFF" fill-opacity="0.33"></path><image xlink:href="../../3896A820-00FA-48B0-83AB-21B99E881EBE/assets/BE3EFC99F3F7066A8A366E4C20C35009.png" width="1336.00" height="116.00" transform="matrix(1.00, 0.00, -0.00, -1.00, 295.0, 883.0)"></image><g><clipPath id="clip0x600000cac7e0"><path d="M 35.5 131.5 L 1893.5 131.5 L 1893.5 949.5 L 35.5 949.5 Z M 35.5 131.5 "></path></clipPath><g clip-path="url(#clip0x600000cac7e0)"><text xml:space="preserve" font-family="Helvetica,Helvetica" font-size="100.0" fill="#FFFFFF" transform="matrix(1.00, 0.00, -0.00, -1.00, 297.6, 803.5)">"</text><text xml:space="preserve" font-family="Helvetica,Helvetica" font-size="100.0" fill="#FFFFFF" transform="matrix(1.00, 0.00, -0.00, -1.00, 333.1, 803.5)">A</text><text xml:space="preserve" font-family="Helvetica,Helvetica" font-size="100.0" fill="#FFFFFF" transform="matrix(1.00, 0.00, -0.00, -1.00, 399.8, 803.5)">n</text><text xml:space="preserve" font-family="Helvetica,Helvetica" font-size="100.0" fill="#FFFFFF" transform="matrix(1.00, 0.00, -0.00, -1.00, 455.5, 803.5)"> </text><text xml:space="preserve" font-family="Helvetica,Helvetica" font-size="100.0" fill="#FFFFFF" transform="matrix(1.00, 0.00, -0.00, -1.00, 483.2, 803.5)">e</text><text xml:space="preserve" font-family="Helvetica,Helvetica" font-size="100.0" fill="#FFFFFF" transform="matrix(1.00, 0.00, -0.00, -1.00, 538.9, 803.5)">n</text><text xml:space="preserve" font-family="Helvetica,Helvetica" font-size="100.0" fill="#FFFFFF" transform="matrix(1.00, 0.00, -0.00, -1.00, 594.5, 803.5)">g</text><text xml:space="preserve" font-family="Helvetica,Helvetica" font-size="100.0" fill="#FFFFFF" transform="matrix(1.00, 0.00, -0.00, -1.00, 650.1, 803.5)">i</text><text xml:space="preserve" font-family="Helvetica,Helvetica" font-size="100.0" fill="#FFFFFF" transform="matrix(1.00, 0.00, -0.00, -1.00, 672.4, 803.5)">n</text><text xml:space="preserve" font-family="Helvetica,Helvetica" font-size="100.0" fill="#FFFFFF" transform="matrix(1.00, 0.00, -0.00, -1.00, 728.0, 803.5)">e</text><text xml:space="preserve" font-family="Helvetica,Helvetica" font-size="100.0" fill="#FFFFFF" transform="matrix(1.00, 0.00, -0.00, -1.00, 783.6, 803.5)">e</text><text xml:space="preserve" font-family="Helvetica,Helvetica" font-size="100.0" fill="#FFFFFF" transform="matrix(1.00, 0.00, -0.00, -1.00, 839.3, 803.5)">r</text><text xml:space="preserve" font-family="Helvetica,Helvetica" font-size="100.0" fill="#FFFFFF" transform="matrix(1.00, 0.00, -0.00, -1.00, 872.6, 803.5)"> </text><text xml:space="preserve" font-family="Helvetica,Helvetica" font-size="100.0" fill="#FFFFFF" transform="matrix(1.00, 0.00, -0.00, -1.00, 900.3, 803.5)">i</text><text xml:space="preserve" font-family="Helvetica,Helvetica" font-size="100.0" fill="#FFFFFF" transform="matrix(1.00, 0.00, -0.00, -1.00, 922.6, 803.5)">s</text><text xml:space="preserve" font-family="Helvetica,Helvetica" font-size="100.0" fill="#FFFFFF" transform="matrix(1.00, 0.00, -0.00, -1.00, 972.6, 803.5)"> </text><text xml:space="preserve" font-family="Helvetica,Helvetica" font-size="100.0" fill="#FFFFFF" transform="matrix(1.00, 0.00, -0.00, -1.00, 1000.3, 803.5)">a</text><text xml:space="preserve" font-family="Helvetica,Helvetica" font-size="100.0" fill="#FFFFFF" transform="matrix(1.00, 0.00, -0.00, -1.00, 1056.0, 803.5)"> </text><text xml:space="preserve" font-family="Helvetica,Helvetica" font-size="100.0" fill="#FFFFFF" transform="matrix(1.00, 0.00, -0.00, -1.00, 1083.7, 803.5)">p</text><text xml:space="preserve" font-family="Helvetica,Helvetica" font-size="100.0" fill="#FFFFFF" transform="matrix(1.00, 0.00, -0.00, -1.00, 1139.4, 803.5)">r</text><text xml:space="preserve" font-family="Helvetica,Helvetica" font-size="100.0" fill="#FFFFFF" transform="matrix(1.00, 0.00, -0.00, -1.00, 1172.7, 803.5)">o</text><text xml:space="preserve" font-family="Helvetica,Helvetica" font-size="100.0" fill="#FFFFFF" transform="matrix(1.00, 0.00, -0.00, -1.00, 1228.3, 803.5)">f</text><text xml:space="preserve" font-family="Helvetica,Helvetica" font-size="100.0" fill="#FFFFFF" transform="matrix(1.00, 0.00, -0.00, -1.00, 1256.1, 803.5)">e</text><text xml:space="preserve" font-family="Helvetica,Helvetica" font-size="100.0" fill="#FFFFFF" transform="matrix(1.00, 0.00, -0.00, -1.00, 1311.7, 803.5)">s</text><text xml:space="preserve" font-family="Helvetica,Helvetica" font-size="100.0" fill="#FFFFFF" transform="matrix(1.00, 0.00, -0.00, -1.00, 1361.7, 803.5)">s</text><text xml:space="preserve" font-family="Helvetica,Helvetica" font-size="100.0" fill="#FFFFFF" transform="matrix(1.00, 0.00, -0.00, -1.00, 1411.7, 803.5)">i</text><text xml:space="preserve" font-family="Helvetica,Helvetica" font-size="100.0" fill="#FFFFFF" transform="matrix(1.00, 0.00, -0.00, -1.00, 1433.9, 803.5)">o</text><text xml:space="preserve" font-family="Helvetica,Helvetica" font-size="100.0" fill="#FFFFFF" transform="matrix(1.00, 0.00, -0.00, -1.00, 1489.6, 803.5)">n</text><text xml:space="preserve" font-family="Helvetica,Helvetica" font-size="100.0" fill="#FFFFFF" transform="matrix(1.00, 0.00, -0.00, -1.00, 1545.2, 803.5)">a</text><text xml:space="preserve" font-family="Helvetica,Helvetica" font-size="100.0" fill="#FFFFFF" transform="matrix(1.00, 0.00, -0.00, -1.00, 1600.8, 803.5)">l</text><text xml:space="preserve" font-family="Helvetica,Helvetica" font-size="100.0" fill="#FFFFFF" transform="matrix(1.00, 0.00, -0.00, -1.00, 1623.1, 803.5)"> </text></g></g><image xlink:href="../../3896A820-00FA-48B0-83AB-21B99E881EBE/assets/8199D938D183B41F365E28988D755B2E.png" width="1688.00" height="116.00" transform="matrix(1.00, 0.00, -0.00, -1.00, 120.0, 763.0)"></image><g><clipPath id="clip0x6180008b8ea0"><path d="M 35.5 131.5 L 1893.5 131.5 L 1893.5 949.5 L 35.5 949.5 Z M 35.5 131.5 "></path></clipPath><g clip-path="url(#clip0x6180008b8ea0)"><text xml:space="preserve" font-family="Helvetica,Helvetica" font-size="100.0" fill="#FFFFFF" transform="matrix(1.00, 0.00, -0.00, -1.00, 120.8, 683.5)">p</text><text xml:space="preserve" font-family="Helvetica,Helvetica" font-size="100.0" fill="#FFFFFF" transform="matrix(1.00, 0.00, -0.00, -1.00, 176.4, 683.5)">r</text><text xml:space="preserve" font-family="Helvetica,Helvetica" font-size="100.0" fill="#FFFFFF" transform="matrix(1.00, 0.00, -0.00, -1.00, 209.7, 683.5)">a</text><text xml:space="preserve" font-family="Helvetica,Helvetica" font-size="100.0" fill="#FFFFFF" transform="matrix(1.00, 0.00, -0.00, -1.00, 265.4, 683.5)">c</text><text xml:space="preserve" font-family="Helvetica,Helvetica" font-size="100.0" fill="#FFFFFF" transform="matrix(1.00, 0.00, -0.00, -1.00, 315.4, 683.5)">t</text><text xml:space="preserve" font-family="Helvetica,Helvetica" font-size="100.0" fill="#FFFFFF" transform="matrix(1.00, 0.00, -0.00, -1.00, 343.1, 683.5)">i</text><text xml:space="preserve" font-family="Helvetica,Helvetica" font-size="100.0" fill="#FFFFFF" transform="matrix(1.00, 0.00, -0.00, -1.00, 365.4, 683.5)">t</text><text xml:space="preserve" font-family="Helvetica,Helvetica" font-size="100.0" fill="#FFFFFF" transform="matrix(1.00, 0.00, -0.00, -1.00, 393.1, 683.5)">i</text><text xml:space="preserve" font-family="Helvetica,Helvetica" font-size="100.0" fill="#FFFFFF" transform="matrix(1.00, 0.00, -0.00, -1.00, 415.4, 683.5)">o</text><text xml:space="preserve" font-family="Helvetica,Helvetica" font-size="100.0" fill="#FFFFFF" transform="matrix(1.00, 0.00, -0.00, -1.00, 471.0, 683.5)">n</text><text xml:space="preserve" font-family="Helvetica,Helvetica" font-size="100.0" fill="#FFFFFF" transform="matrix(1.00, 0.00, -0.00, -1.00, 526.6, 683.5)">e</text><text xml:space="preserve" font-family="Helvetica,Helvetica" font-size="100.0" fill="#FFFFFF" transform="matrix(1.00, 0.00, -0.00, -1.00, 582.3, 683.5)">r</text><text xml:space="preserve" font-family="Helvetica,Helvetica" font-size="100.0" fill="#FFFFFF" transform="matrix(1.00, 0.00, -0.00, -1.00, 615.6, 683.5)"> </text><text xml:space="preserve" font-family="Helvetica,Helvetica" font-size="100.0" fill="#FFFFFF" transform="matrix(1.00, 0.00, -0.00, -1.00, 643.3, 683.5)">o</text><text xml:space="preserve" font-family="Helvetica,Helvetica" font-size="100.0" fill="#FFFFFF" transform="matrix(1.00, 0.00, -0.00, -1.00, 699.0, 683.5)">f</text><text xml:space="preserve" font-family="Helvetica,Helvetica" font-size="100.0" fill="#FFFFFF" transform="matrix(1.00, 0.00, -0.00, -1.00, 726.7, 683.5)"> </text><text xml:space="preserve" font-family="Helvetica,Helvetica" font-size="100.0" fill="#FFFFFF" transform="matrix(1.00, 0.00, -0.00, -1.00, 754.5, 683.5)">e</text><text xml:space="preserve" font-family="Helvetica,Helvetica" font-size="100.0" fill="#FFFFFF" transform="matrix(1.00, 0.00, -0.00, -1.00, 810.1, 683.5)">n</text><text xml:space="preserve" font-family="Helvetica,Helvetica" font-size="100.0" fill="#FFFFFF" transform="matrix(1.00, 0.00, -0.00, -1.00, 865.8, 683.5)">g</text><text xml:space="preserve" font-family="Helvetica,Helvetica" font-size="100.0" fill="#FFFFFF" transform="matrix(1.00, 0.00, -0.00, -1.00, 921.4, 683.5)">i</text><text xml:space="preserve" font-family="Helvetica,Helvetica" font-size="100.0" fill="#FFFFFF" transform="matrix(1.00, 0.00, -0.00, -1.00, 943.6, 683.5)">n</text><text xml:space="preserve" font-family="Helvetica,Helvetica" font-size="100.0" fill="#FFFFFF" transform="matrix(1.00, 0.00, -0.00, -1.00, 999.3, 683.5)">e</text><text xml:space="preserve" font-family="Helvetica,Helvetica" font-size="100.0" fill="#FFFFFF" transform="matrix(1.00, 0.00, -0.00, -1.00, 1054.9, 683.5)">e</text><text xml:space="preserve" font-family="Helvetica,Helvetica" font-size="100.0" fill="#FFFFFF" transform="matrix(1.00, 0.00, -0.00, -1.00, 1110.6, 683.5)">r</text><text xml:space="preserve" font-family="Helvetica,Helvetica" font-size="100.0" fill="#FFFFFF" transform="matrix(1.00, 0.00, -0.00, -1.00, 1143.9, 683.5)">i</text><text xml:space="preserve" font-family="Helvetica,Helvetica" font-size="100.0" fill="#FFFFFF" transform="matrix(1.00, 0.00, -0.00, -1.00, 1166.1, 683.5)">n</text><text xml:space="preserve" font-family="Helvetica,Helvetica" font-size="100.0" fill="#FFFFFF" transform="matrix(1.00, 0.00, -0.00, -1.00, 1221.7, 683.5)">g</text><text xml:space="preserve" font-family="Helvetica,Helvetica" font-size="100.0" fill="#FFFFFF" transform="matrix(1.00, 0.00, -0.00, -1.00, 1277.4, 683.5)">,</text><text xml:space="preserve" font-family="Helvetica,Helvetica" font-size="100.0" fill="#FFFFFF" transform="matrix(1.00, 0.00, -0.00, -1.00, 1305.1, 683.5)"> </text><text xml:space="preserve" font-family="Helvetica,Helvetica" font-size="100.0" fill="#FFFFFF" transform="matrix(1.00, 0.00, -0.00, -1.00, 1332.9, 683.5)">c</text><text xml:space="preserve" font-family="Helvetica,Helvetica" font-size="100.0" fill="#FFFFFF" transform="matrix(1.00, 0.00, -0.00, -1.00, 1382.9, 683.5)">o</text><text xml:space="preserve" font-family="Helvetica,Helvetica" font-size="100.0" fill="#FFFFFF" transform="matrix(1.00, 0.00, -0.00, -1.00, 1438.5, 683.5)">n</text><text xml:space="preserve" font-family="Helvetica,Helvetica" font-size="100.0" fill="#FFFFFF" transform="matrix(1.00, 0.00, -0.00, -1.00, 1494.2, 683.5)">c</text><text xml:space="preserve" font-family="Helvetica,Helvetica" font-size="100.0" fill="#FFFFFF" transform="matrix(1.00, 0.00, -0.00, -1.00, 1544.2, 683.5)">e</text><text xml:space="preserve" font-family="Helvetica,Helvetica" font-size="100.0" fill="#FFFFFF" transform="matrix(1.00, 0.00, -0.00, -1.00, 1599.8, 683.5)">r</text><text xml:space="preserve" font-family="Helvetica,Helvetica" font-size="100.0" fill="#FFFFFF" transform="matrix(1.00, 0.00, -0.00, -1.00, 1633.1, 683.5)">n</text><text xml:space="preserve" font-family="Helvetica,Helvetica" font-size="100.0" fill="#FFFFFF" transform="matrix(1.00, 0.00, -0.00, -1.00, 1688.7, 683.5)">e</text><text xml:space="preserve" font-family="Helvetica,Helvetica" font-size="100.0" fill="#FFFFFF" transform="matrix(1.00, 0.00, -0.00, -1.00, 1744.4, 683.5)">d</text><text xml:space="preserve" font-family="Helvetica,Helvetica" font-size="100.0" fill="#FFFFFF" transform="matrix(1.00, 0.00, -0.00, -1.00, 1800.0, 683.5)"> </text></g></g><image xlink:href="../../3896A820-00FA-48B0-83AB-21B99E881EBE/assets/E63900EBB54663A84D6D3EA07112FAD8.png" width="1534.00" height="116.00" transform="matrix(1.00, 0.00, -0.00, -1.00, 193.0, 643.0)"></image><g><clipPath id="clip0x6180008b2de0"><path d="M 35.5 131.5 L 1893.5 131.5 L 1893.5 949.5 L 35.5 949.5 Z M 35.5 131.5 "></path></clipPath><g clip-path="url(#clip0x6180008b2de0)"><text xml:space="preserve" font-family="Helvetica,Helvetica" font-size="100.0" fill="#FFFFFF" transform="matrix(1.00, 0.00, -0.00, -1.00, 198.7, 563.5)">w</text><text xml:space="preserve" font-family="Helvetica,Helvetica" font-size="100.0" fill="#FFFFFF" transform="matrix(1.00, 0.00, -0.00, -1.00, 270.9, 563.5)">i</text><text xml:space="preserve" font-family="Helvetica,Helvetica" font-size="100.0" fill="#FFFFFF" transform="matrix(1.00, 0.00, -0.00, -1.00, 293.2, 563.5)">t</text><text xml:space="preserve" font-family="Helvetica,Helvetica" font-size="100.0" fill="#FFFFFF" transform="matrix(1.00, 0.00, -0.00, -1.00, 320.9, 563.5)">h</text><text xml:space="preserve" font-family="Helvetica,Helvetica" font-size="100.0" fill="#FFFFFF" transform="matrix(1.00, 0.00, -0.00, -1.00, 376.6, 563.5)"> </text><text xml:space="preserve" font-family="Helvetica,Helvetica" font-size="100.0" fill="#FFFFFF" transform="matrix(1.00, 0.00, -0.00, -1.00, 404.3, 563.5)">a</text><text xml:space="preserve" font-family="Helvetica,Helvetica" font-size="100.0" fill="#FFFFFF" transform="matrix(1.00, 0.00, -0.00, -1.00, 460.0, 563.5)">p</text><text xml:space="preserve" font-family="Helvetica,Helvetica" font-size="100.0" fill="#FFFFFF" transform="matrix(1.00, 0.00, -0.00, -1.00, 515.6, 563.5)">p</text><text xml:space="preserve" font-family="Helvetica,Helvetica" font-size="100.0" fill="#FFFFFF" transform="matrix(1.00, 0.00, -0.00, -1.00, 571.2, 563.5)">l</text><text xml:space="preserve" font-family="Helvetica,Helvetica" font-size="100.0" fill="#FFFFFF" transform="matrix(1.00, 0.00, -0.00, -1.00, 593.5, 563.5)">y</text><text xml:space="preserve" font-family="Helvetica,Helvetica" font-size="100.0" fill="#FFFFFF" transform="matrix(1.00, 0.00, -0.00, -1.00, 643.5, 563.5)">i</text><text xml:space="preserve" font-family="Helvetica,Helvetica" font-size="100.0" fill="#FFFFFF" transform="matrix(1.00, 0.00, -0.00, -1.00, 665.7, 563.5)">n</text><text xml:space="preserve" font-family="Helvetica,Helvetica" font-size="100.0" fill="#FFFFFF" transform="matrix(1.00, 0.00, -0.00, -1.00, 721.4, 563.5)">g</text><text xml:space="preserve" font-family="Helvetica,Helvetica" font-size="100.0" fill="#FFFFFF" transform="matrix(1.00, 0.00, -0.00, -1.00, 777.0, 563.5)"> </text><text xml:space="preserve" font-family="Helvetica,Helvetica" font-size="100.0" fill="#FFFFFF" transform="matrix(1.00, 0.00, -0.00, -1.00, 804.8, 563.5)">s</text><text xml:space="preserve" font-family="Helvetica,Helvetica" font-size="100.0" fill="#FFFFFF" transform="matrix(1.00, 0.00, -0.00, -1.00, 854.8, 563.5)">c</text><text xml:space="preserve" font-family="Helvetica,Helvetica" font-size="100.0" fill="#FFFFFF" transform="matrix(1.00, 0.00, -0.00, -1.00, 904.8, 563.5)">i</text><text xml:space="preserve" font-family="Helvetica,Helvetica" font-size="100.0" fill="#FFFFFF" transform="matrix(1.00, 0.00, -0.00, -1.00, 927.0, 563.5)">e</text><text xml:space="preserve" font-family="Helvetica,Helvetica" font-size="100.0" fill="#FFFFFF" transform="matrix(1.00, 0.00, -0.00, -1.00, 982.6, 563.5)">n</text><text xml:space="preserve" font-family="Helvetica,Helvetica" font-size="100.0" fill="#FFFFFF" transform="matrix(1.00, 0.00, -0.00, -1.00, 1038.3, 563.5)">t</text><text xml:space="preserve" font-family="Helvetica,Helvetica" font-size="100.0" fill="#FFFFFF" transform="matrix(1.00, 0.00, -0.00, -1.00, 1066.0, 563.5)">i</text><text xml:space="preserve" font-family="Helvetica,Helvetica" font-size="100.0" fill="#FFFFFF" transform="matrix(1.00, 0.00, -0.00, -1.00, 1088.3, 563.5)">ï¬</text><text xml:space="preserve" font-family="Helvetica,Helvetica" font-size="100.0" fill="#FFFFFF" transform="matrix(1.00, 0.00, -0.00, -1.00, 1138.3, 563.5)">c</text><text xml:space="preserve" font-family="Helvetica,Helvetica" font-size="100.0" fill="#FFFFFF" transform="matrix(1.00, 0.00, -0.00, -1.00, 1188.3, 563.5)"> </text><text xml:space="preserve" font-family="Helvetica,Helvetica" font-size="100.0" fill="#FFFFFF" transform="matrix(1.00, 0.00, -0.00, -1.00, 1216.0, 563.5)">k</text><text xml:space="preserve" font-family="Helvetica,Helvetica" font-size="100.0" fill="#FFFFFF" transform="matrix(1.00, 0.00, -0.00, -1.00, 1266.0, 563.5)">n</text><text xml:space="preserve" font-family="Helvetica,Helvetica" font-size="100.0" fill="#FFFFFF" transform="matrix(1.00, 0.00, -0.00, -1.00, 1321.7, 563.5)">o</text><text xml:space="preserve" font-family="Helvetica,Helvetica" font-size="100.0" fill="#FFFFFF" transform="matrix(1.00, 0.00, -0.00, -1.00, 1377.3, 563.5)">w</text><text xml:space="preserve" font-family="Helvetica,Helvetica" font-size="100.0" fill="#FFFFFF" transform="matrix(1.00, 0.00, -0.00, -1.00, 1449.5, 563.5)">l</text><text xml:space="preserve" font-family="Helvetica,Helvetica" font-size="100.0" fill="#FFFFFF" transform="matrix(1.00, 0.00, -0.00, -1.00, 1471.8, 563.5)">e</text><text xml:space="preserve" font-family="Helvetica,Helvetica" font-size="100.0" fill="#FFFFFF" transform="matrix(1.00, 0.00, -0.00, -1.00, 1527.4, 563.5)">d</text><text xml:space="preserve" font-family="Helvetica,Helvetica" font-size="100.0" fill="#FFFFFF" transform="matrix(1.00, 0.00, -0.00, -1.00, 1583.0, 563.5)">g</text><text xml:space="preserve" font-family="Helvetica,Helvetica" font-size="100.0" fill="#FFFFFF" transform="matrix(1.00, 0.00, -0.00, -1.00, 1638.7, 563.5)">e</text><text xml:space="preserve" font-family="Helvetica,Helvetica" font-size="100.0" fill="#FFFFFF" transform="matrix(1.00, 0.00, -0.00, -1.00, 1694.3, 563.5)">,</text><text xml:space="preserve" font-family="Helvetica,Helvetica" font-size="100.0" fill="#FFFFFF" transform="matrix(1.00, 0.00, -0.00, -1.00, 1722.1, 563.5)"> </text></g></g><image xlink:href="../../3896A820-00FA-48B0-83AB-21B99E881EBE/assets/76127EA1D1F57C1DB6083771A663BF21.png" width="1717.00" height="115.00" transform="matrix(1.00, 0.00, -0.00, -1.00, 107.0, 522.0)"></image><g><clipPath id="clip0x6080008b3320"><path d="M 35.5 131.5 L 1893.5 131.5 L 1893.5 949.5 L 35.5 949.5 Z M 35.5 131.5 "></path></clipPath><g clip-path="url(#clip0x6080008b3320)"><text xml:space="preserve" font-family="Helvetica,Helvetica" font-size="100.0" fill="#FFFFFF" transform="matrix(1.00, 0.00, -0.00, -1.00, 106.9, 443.5)">m</text><text xml:space="preserve" font-family="Helvetica,Helvetica" font-size="100.0" fill="#FFFFFF" transform="matrix(1.00, 0.00, -0.00, -1.00, 190.2, 443.5)">a</text><text xml:space="preserve" font-family="Helvetica,Helvetica" font-size="100.0" fill="#FFFFFF" transform="matrix(1.00, 0.00, -0.00, -1.00, 245.9, 443.5)">t</text><text xml:space="preserve" font-family="Helvetica,Helvetica" font-size="100.0" fill="#FFFFFF" transform="matrix(1.00, 0.00, -0.00, -1.00, 273.6, 443.5)">h</text><text xml:space="preserve" font-family="Helvetica,Helvetica" font-size="100.0" fill="#FFFFFF" transform="matrix(1.00, 0.00, -0.00, -1.00, 329.3, 443.5)">e</text><text xml:space="preserve" font-family="Helvetica,Helvetica" font-size="100.0" fill="#FFFFFF" transform="matrix(1.00, 0.00, -0.00, -1.00, 384.9, 443.5)">m</text><text xml:space="preserve" font-family="Helvetica,Helvetica" font-size="100.0" fill="#FFFFFF" transform="matrix(1.00, 0.00, -0.00, -1.00, 468.2, 443.5)">a</text><text xml:space="preserve" font-family="Helvetica,Helvetica" font-size="100.0" fill="#FFFFFF" transform="matrix(1.00, 0.00, -0.00, -1.00, 523.8, 443.5)">t</text><text xml:space="preserve" font-family="Helvetica,Helvetica" font-size="100.0" fill="#FFFFFF" transform="matrix(1.00, 0.00, -0.00, -1.00, 551.6, 443.5)">i</text><text xml:space="preserve" font-family="Helvetica,Helvetica" font-size="100.0" fill="#FFFFFF" transform="matrix(1.00, 0.00, -0.00, -1.00, 573.8, 443.5)">c</text><text xml:space="preserve" font-family="Helvetica,Helvetica" font-size="100.0" fill="#FFFFFF" transform="matrix(1.00, 0.00, -0.00, -1.00, 623.8, 443.5)">s</text><text xml:space="preserve" font-family="Helvetica,Helvetica" font-size="100.0" fill="#FFFFFF" transform="matrix(1.00, 0.00, -0.00, -1.00, 673.8, 443.5)">,</text><text xml:space="preserve" font-family="Helvetica,Helvetica" font-size="100.0" fill="#FFFFFF" transform="matrix(1.00, 0.00, -0.00, -1.00, 701.6, 443.5)"> </text><text xml:space="preserve" font-family="Helvetica,Helvetica" font-size="100.0" fill="#FFFFFF" transform="matrix(1.00, 0.00, -0.00, -1.00, 729.4, 443.5)">a</text><text xml:space="preserve" font-family="Helvetica,Helvetica" font-size="100.0" fill="#FFFFFF" transform="matrix(1.00, 0.00, -0.00, -1.00, 785.0, 443.5)">n</text><text xml:space="preserve" font-family="Helvetica,Helvetica" font-size="100.0" fill="#FFFFFF" transform="matrix(1.00, 0.00, -0.00, -1.00, 840.6, 443.5)">d</text><text xml:space="preserve" font-family="Helvetica,Helvetica" font-size="100.0" fill="#FFFFFF" transform="matrix(1.00, 0.00, -0.00, -1.00, 896.3, 443.5)"> </text><text xml:space="preserve" font-family="Helvetica,Helvetica" font-size="100.0" fill="#FFFFFF" transform="matrix(1.00, 0.00, -0.00, -1.00, 924.0, 443.5)">i</text><text xml:space="preserve" font-family="Helvetica,Helvetica" font-size="100.0" fill="#FFFFFF" transform="matrix(1.00, 0.00, -0.00, -1.00, 946.3, 443.5)">n</text><text xml:space="preserve" font-family="Helvetica,Helvetica" font-size="100.0" fill="#FFFFFF" transform="matrix(1.00, 0.00, -0.00, -1.00, 1001.9, 443.5)">g</text><text xml:space="preserve" font-family="Helvetica,Helvetica" font-size="100.0" fill="#FFFFFF" transform="matrix(1.00, 0.00, -0.00, -1.00, 1057.5, 443.5)">e</text><text xml:space="preserve" font-family="Helvetica,Helvetica" font-size="100.0" fill="#FFFFFF" transform="matrix(1.00, 0.00, -0.00, -1.00, 1113.2, 443.5)">n</text><text xml:space="preserve" font-family="Helvetica,Helvetica" font-size="100.0" fill="#FFFFFF" transform="matrix(1.00, 0.00, -0.00, -1.00, 1168.8, 443.5)">u</text><text xml:space="preserve" font-family="Helvetica,Helvetica" font-size="100.0" fill="#FFFFFF" transform="matrix(1.00, 0.00, -0.00, -1.00, 1224.4, 443.5)">i</text><text xml:space="preserve" font-family="Helvetica,Helvetica" font-size="100.0" fill="#FFFFFF" transform="matrix(1.00, 0.00, -0.00, -1.00, 1246.7, 443.5)">t</text><text xml:space="preserve" font-family="Helvetica,Helvetica" font-size="100.0" fill="#FFFFFF" transform="matrix(1.00, 0.00, -0.00, -1.00, 1274.4, 443.5)">y</text><text xml:space="preserve" font-family="Helvetica,Helvetica" font-size="100.0" fill="#FFFFFF" transform="matrix(1.00, 0.00, -0.00, -1.00, 1324.4, 443.5)"> </text><text xml:space="preserve" font-family="Helvetica,Helvetica" font-size="100.0" fill="#FFFFFF" transform="matrix(1.00, 0.00, -0.00, -1.00, 1352.2, 443.5)">t</text><text xml:space="preserve" font-family="Helvetica,Helvetica" font-size="100.0" fill="#FFFFFF" transform="matrix(1.00, 0.00, -0.00, -1.00, 1380.0, 443.5)">o</text><text xml:space="preserve" font-family="Helvetica,Helvetica" font-size="100.0" fill="#FFFFFF" transform="matrix(1.00, 0.00, -0.00, -1.00, 1435.6, 443.5)"> </text><text xml:space="preserve" font-family="Helvetica,Helvetica" font-size="100.0" fill="#FFFFFF" transform="matrix(1.00, 0.00, -0.00, -1.00, 1463.4, 443.5)">d</text><text xml:space="preserve" font-family="Helvetica,Helvetica" font-size="100.0" fill="#FFFFFF" transform="matrix(1.00, 0.00, -0.00, -1.00, 1519.0, 443.5)">e</text><text xml:space="preserve" font-family="Helvetica,Helvetica" font-size="100.0" fill="#FFFFFF" transform="matrix(1.00, 0.00, -0.00, -1.00, 1574.6, 443.5)">v</text><text xml:space="preserve" font-family="Helvetica,Helvetica" font-size="100.0" fill="#FFFFFF" transform="matrix(1.00, 0.00, -0.00, -1.00, 1624.6, 443.5)">e</text><text xml:space="preserve" font-family="Helvetica,Helvetica" font-size="100.0" fill="#FFFFFF" transform="matrix(1.00, 0.00, -0.00, -1.00, 1680.3, 443.5)">l</text><text xml:space="preserve" font-family="Helvetica,Helvetica" font-size="100.0" fill="#FFFFFF" transform="matrix(1.00, 0.00, -0.00, -1.00, 1702.5, 443.5)">o</text><text xml:space="preserve" font-family="Helvetica,Helvetica" font-size="100.0" fill="#FFFFFF" transform="matrix(1.00, 0.00, -0.00, -1.00, 1758.1, 443.5)">p</text><text xml:space="preserve" font-family="Helvetica,Helvetica" font-size="100.0" fill="#FFFFFF" transform="matrix(1.00, 0.00, -0.00, -1.00, 1813.8, 443.5)"> </text></g></g><image xlink:href="../../3896A820-00FA-48B0-83AB-21B99E881EBE/assets/4E78CAF179CF87FC64AAA38EE449C078.png" width="1476.00" height="115.00" transform="matrix(1.00, 0.00, -0.00, -1.00, 225.0, 403.0)"></image><g><clipPath id="clip0x6080008b2540"><path d="M 35.5 131.5 L 1893.5 131.5 L 1893.5 949.5 L 35.5 949.5 Z M 35.5 131.5 "></path></clipPath><g clip-path="url(#clip0x6080008b2540)"><text xml:space="preserve" font-family="Helvetica,Helvetica" font-size="100.0" fill="#FFFFFF" transform="matrix(1.00, 0.00, -0.00, -1.00, 228.2, 323.5)">s</text><text xml:space="preserve" font-family="Helvetica,Helvetica" font-size="100.0" fill="#FFFFFF" transform="matrix(1.00, 0.00, -0.00, -1.00, 278.2, 323.5)">o</text><text xml:space="preserve" font-family="Helvetica,Helvetica" font-size="100.0" fill="#FFFFFF" transform="matrix(1.00, 0.00, -0.00, -1.00, 333.9, 323.5)">l</text><text xml:space="preserve" font-family="Helvetica,Helvetica" font-size="100.0" fill="#FFFFFF" transform="matrix(1.00, 0.00, -0.00, -1.00, 356.1, 323.5)">u</text><text xml:space="preserve" font-family="Helvetica,Helvetica" font-size="100.0" fill="#FFFFFF" transform="matrix(1.00, 0.00, -0.00, -1.00, 411.8, 323.5)">t</text><text xml:space="preserve" font-family="Helvetica,Helvetica" font-size="100.0" fill="#FFFFFF" transform="matrix(1.00, 0.00, -0.00, -1.00, 439.5, 323.5)">i</text><text xml:space="preserve" font-family="Helvetica,Helvetica" font-size="100.0" fill="#FFFFFF" transform="matrix(1.00, 0.00, -0.00, -1.00, 461.8, 323.5)">o</text><text xml:space="preserve" font-family="Helvetica,Helvetica" font-size="100.0" fill="#FFFFFF" transform="matrix(1.00, 0.00, -0.00, -1.00, 517.4, 323.5)">n</text><text xml:space="preserve" font-family="Helvetica,Helvetica" font-size="100.0" fill="#FFFFFF" transform="matrix(1.00, 0.00, -0.00, -1.00, 573.0, 323.5)">s</text><text xml:space="preserve" font-family="Helvetica,Helvetica" font-size="100.0" fill="#FFFFFF" transform="matrix(1.00, 0.00, -0.00, -1.00, 623.0, 323.5)"> </text><text xml:space="preserve" font-family="Helvetica,Helvetica" font-size="100.0" fill="#FFFFFF" transform="matrix(1.00, 0.00, -0.00, -1.00, 650.8, 323.5)">f</text><text xml:space="preserve" font-family="Helvetica,Helvetica" font-size="100.0" fill="#FFFFFF" transform="matrix(1.00, 0.00, -0.00, -1.00, 678.5, 323.5)">o</text><text xml:space="preserve" font-family="Helvetica,Helvetica" font-size="100.0" fill="#FFFFFF" transform="matrix(1.00, 0.00, -0.00, -1.00, 734.2, 323.5)">r</text><text xml:space="preserve" font-family="Helvetica,Helvetica" font-size="100.0" fill="#FFFFFF" transform="matrix(1.00, 0.00, -0.00, -1.00, 767.5, 323.5)"> </text><text xml:space="preserve" font-family="Helvetica,Helvetica" font-size="100.0" fill="#FFFFFF" transform="matrix(1.00, 0.00, -0.00, -1.00, 795.2, 323.5)">t</text><text xml:space="preserve" font-family="Helvetica,Helvetica" font-size="100.0" fill="#FFFFFF" transform="matrix(1.00, 0.00, -0.00, -1.00, 823.0, 323.5)">e</text><text xml:space="preserve" font-family="Helvetica,Helvetica" font-size="100.0" fill="#FFFFFF" transform="matrix(1.00, 0.00, -0.00, -1.00, 878.6, 323.5)">c</text><text xml:space="preserve" font-family="Helvetica,Helvetica" font-size="100.0" fill="#FFFFFF" transform="matrix(1.00, 0.00, -0.00, -1.00, 928.6, 323.5)">h</text><text xml:space="preserve" font-family="Helvetica,Helvetica" font-size="100.0" fill="#FFFFFF" transform="matrix(1.00, 0.00, -0.00, -1.00, 984.3, 323.5)">n</text><text xml:space="preserve" font-family="Helvetica,Helvetica" font-size="100.0" fill="#FFFFFF" transform="matrix(1.00, 0.00, -0.00, -1.00, 1039.9, 323.5)">i</text><text xml:space="preserve" font-family="Helvetica,Helvetica" font-size="100.0" fill="#FFFFFF" transform="matrix(1.00, 0.00, -0.00, -1.00, 1062.2, 323.5)">c</text><text xml:space="preserve" font-family="Helvetica,Helvetica" font-size="100.0" fill="#FFFFFF" transform="matrix(1.00, 0.00, -0.00, -1.00, 1112.2, 323.5)">a</text><text xml:space="preserve" font-family="Helvetica,Helvetica" font-size="100.0" fill="#FFFFFF" transform="matrix(1.00, 0.00, -0.00, -1.00, 1167.8, 323.5)">l</text><text xml:space="preserve" font-family="Helvetica,Helvetica" font-size="100.0" fill="#FFFFFF" transform="matrix(1.00, 0.00, -0.00, -1.00, 1190.0, 323.5)"> </text><text xml:space="preserve" font-family="Helvetica,Helvetica" font-size="100.0" fill="#FFFFFF" transform="matrix(1.00, 0.00, -0.00, -1.00, 1217.8, 323.5)">p</text><text xml:space="preserve" font-family="Helvetica,Helvetica" font-size="100.0" fill="#FFFFFF" transform="matrix(1.00, 0.00, -0.00, -1.00, 1273.4, 323.5)">r</text><text xml:space="preserve" font-family="Helvetica,Helvetica" font-size="100.0" fill="#FFFFFF" transform="matrix(1.00, 0.00, -0.00, -1.00, 1306.7, 323.5)">o</text><text xml:space="preserve" font-family="Helvetica,Helvetica" font-size="100.0" fill="#FFFFFF" transform="matrix(1.00, 0.00, -0.00, -1.00, 1362.4, 323.5)">b</text><text xml:space="preserve" font-family="Helvetica,Helvetica" font-size="100.0" fill="#FFFFFF" transform="matrix(1.00, 0.00, -0.00, -1.00, 1418.0, 323.5)">l</text><text xml:space="preserve" font-family="Helvetica,Helvetica" font-size="100.0" fill="#FFFFFF" transform="matrix(1.00, 0.00, -0.00, -1.00, 1440.2, 323.5)">e</text><text xml:space="preserve" font-family="Helvetica,Helvetica" font-size="100.0" fill="#FFFFFF" transform="matrix(1.00, 0.00, -0.00, -1.00, 1495.9, 323.5)">m</text><text xml:space="preserve" font-family="Helvetica,Helvetica" font-size="100.0" fill="#FFFFFF" transform="matrix(1.00, 0.00, -0.00, -1.00, 1579.2, 323.5)">s</text><text xml:space="preserve" font-family="Helvetica,Helvetica" font-size="100.0" fill="#FFFFFF" transform="matrix(1.00, 0.00, -0.00, -1.00, 1629.2, 323.5)">.</text><text xml:space="preserve" font-family="Helvetica,Helvetica" font-size="100.0" fill="#FFFFFF" transform="matrix(1.00, 0.00, -0.00, -1.00, 1656.9, 323.5)">"</text></g></g><image xlink:href="../../3896A820-00FA-48B0-83AB-21B99E881EBE/assets/D8CCE3BED7CCF454B67D4B18A3403CE0.png" width="538.00" height="76.00" transform="matrix(1.00, 0.00, -0.00, -1.00, 1244.0, 257.0)"></image><text xml:space="preserve" font-family="Helvetica,Helvetica" font-size="58.0" fill="#FFFFFF" transform="matrix(1.00, 0.00, -0.00, -1.00, 1250.6, 204.0)">(</text><text xml:space="preserve" font-family="Helvetica,Helvetica" font-size="58.0" fill="#FFFFFF" transform="matrix(1.00, 0.00, -0.00, -1.00, 1269.9, 204.0)">w</text><text xml:space="preserve" font-family="Helvetica,Helvetica" font-size="58.0" fill="#FFFFFF" transform="matrix(1.00, 0.00, -0.00, -1.00, 1311.8, 204.0)">i</text><text xml:space="preserve" font-family="Helvetica,Helvetica" font-size="58.0" fill="#FFFFFF" transform="matrix(1.00, 0.00, -0.00, -1.00, 1324.7, 204.0)">k</text><text xml:space="preserve" font-family="Helvetica,Helvetica" font-size="58.0" fill="#FFFFFF" transform="matrix(1.00, 0.00, -0.00, -1.00, 1353.7, 204.0)">i</text><text xml:space="preserve" font-family="Helvetica,Helvetica" font-size="58.0" fill="#FFFFFF" transform="matrix(1.00, 0.00, -0.00, -1.00, 1366.6, 204.0)">p</text><text xml:space="preserve" font-family="Helvetica,Helvetica" font-size="58.0" fill="#FFFFFF" transform="matrix(1.00, 0.00, -0.00, -1.00, 1398.9, 204.0)">e</text><text xml:space="preserve" font-family="Helvetica,Helvetica" font-size="58.0" fill="#FFFFFF" transform="matrix(1.00, 0.00, -0.00, -1.00, 1431.2, 204.0)">d</text><text xml:space="preserve" font-family="Helvetica,Helvetica" font-size="58.0" fill="#FFFFFF" transform="matrix(1.00, 0.00, -0.00, -1.00, 1463.4, 204.0)">i</text><text xml:space="preserve" font-family="Helvetica,Helvetica" font-size="58.0" fill="#FFFFFF" transform="matrix(1.00, 0.00, -0.00, -1.00, 1476.3, 204.0)">a</text><text xml:space="preserve" font-family="Helvetica,Helvetica" font-size="58.0" fill="#FFFFFF" transform="matrix(1.00, 0.00, -0.00, -1.00, 1508.6, 204.0)">:</text><text xml:space="preserve" font-family="Helvetica,Helvetica" font-size="58.0" fill="#FFFFFF" transform="matrix(1.00, 0.00, -0.00, -1.00, 1524.7, 204.0)">E</text><text xml:space="preserve" font-family="Helvetica,Helvetica" font-size="58.0" fill="#FFFFFF" transform="matrix(1.00, 0.00, -0.00, -1.00, 1563.4, 204.0)">n</text><text xml:space="preserve" font-family="Helvetica,Helvetica" font-size="58.0" fill="#FFFFFF" transform="matrix(1.00, 0.00, -0.00, -1.00, 1595.6, 204.0)">g</text><text xml:space="preserve" font-family="Helvetica,Helvetica" font-size="58.0" fill="#FFFFFF" transform="matrix(1.00, 0.00, -0.00, -1.00, 1627.9, 204.0)">i</text><text xml:space="preserve" font-family="Helvetica,Helvetica" font-size="58.0" fill="#FFFFFF" transform="matrix(1.00, 0.00, -0.00, -1.00, 1640.8, 204.0)">n</text><text xml:space="preserve" font-family="Helvetica,Helvetica" font-size="58.0" fill="#FFFFFF" transform="matrix(1.00, 0.00, -0.00, -1.00, 1673.1, 204.0)">e</text><text xml:space="preserve" font-family="Helvetica,Helvetica" font-size="58.0" fill="#FFFFFF" transform="matrix(1.00, 0.00, -0.00, -1.00, 1705.3, 204.0)">e</text><text xml:space="preserve" font-family="Helvetica,Helvetica" font-size="58.0" fill="#FFFFFF" transform="matrix(1.00, 0.00, -0.00, -1.00, 1737.6, 204.0)">r</text><text xml:space="preserve" font-family="Helvetica,Helvetica" font-size="58.0" fill="#FFFFFF" transform="matrix(1.00, 0.00, -0.00, -1.00, 1756.9, 204.0)">)</text></g></svg>