<?xml version="1.0" encoding="UTF-8" standalone="no"?><svg xmlns="http://www.w3.org/2000/svg" xmlns:xlink="http://www.w3.org/1999/xlink" clip-rule="evenodd" stroke-miterlimit="10" viewBox="0 0 752 407"><desc>SVG generated by Keynote</desc><defs></defs><g transform="matrix(1.00, 0.00, -0.00, -1.00, 0.0, 407.0)"><g><clipPath id="clip0x6180008b0920"><path d="M 0.0 1.3 L 752.0 1.3 L 752.0 406.5 L 0.0 406.5 Z M 0.0 1.3 "></path></clipPath><g clip-path="url(#clip0x6180008b0920)"><path d="M 1.0 405.0 L 751.0 405.0 L 751.0 2.0 L 1.0 2.0 Z M 1.0 405.5 " fill="#B19ED6"></path></g></g><g><clipPath id="clip0x6180008acde0"><path d="M 273.4 112.2 L 478.4 112.2 L 478.4 362.2 L 273.4 362.2 Z M 273.4 112.2 "></path></clipPath><g clip-path="url(#clip0x6180008acde0)"><image xlink:href="../../D42DB068-92FE-45C3-B5AF-4707B36716A8/assets/B822C28101AAE227E7952F3A955E7691.png" width="820.00" height="1000.00" transform="matrix(0.25, 0.00, -0.00, -0.25, 273.0, 362.0)"></image></g></g><g><clipPath id="clip0x610000aa06c0"><path d="M 140.0 12.3 L 611.4 12.3 L 611.4 111.7 L 140.0 111.7 Z M 140.0 12.3 "></path></clipPath><g clip-path="url(#clip0x610000aa06c0)"><text xml:space="preserve" font-family="GillSans,Gill Sans" font-size="58.0" fill="#FFFFFF" transform="matrix(1.00, 0.00, -0.00, -1.00, 157.2, 42.4)">M</text><text xml:space="preserve" font-family="GillSans,Gill Sans" font-size="58.0" fill="#FFFFFF" transform="matrix(1.00, 0.00, -0.00, -1.00, 202.5, 42.4)">o</text><text xml:space="preserve" font-family="GillSans,Gill Sans" font-size="58.0" fill="#FFFFFF" transform="matrix(1.00, 0.00, -0.00, -1.00, 234.4, 42.4)">d</text><text xml:space="preserve" font-family="GillSans,Gill Sans" font-size="58.0" fill="#FFFFFF" transform="matrix(1.00, 0.00, -0.00, -1.00, 264.0, 42.4)">u</text><text xml:space="preserve" font-family="GillSans,Gill Sans" font-size="58.0" fill="#FFFFFF" transform="matrix(1.00, 0.00, -0.00, -1.00, 293.0, 42.4)">l</text><text xml:space="preserve" font-family="GillSans,Gill Sans" font-size="58.0" fill="#FFFFFF" transform="matrix(1.00, 0.00, -0.00, -1.00, 305.7, 42.4)">a</text><text xml:space="preserve" font-family="GillSans,Gill Sans" font-size="58.0" fill="#FFFFFF" transform="matrix(1.00, 0.00, -0.00, -1.00, 330.5, 42.4)">r</text><text xml:space="preserve" font-family="GillSans,Gill Sans" font-size="58.0" fill="#FFFFFF" transform="matrix(1.00, 0.00, -0.00, -1.00, 353.4, 42.4)">i</text><text xml:space="preserve" font-family="GillSans,Gill Sans" font-size="58.0" fill="#FFFFFF" transform="matrix(1.00, 0.00, -0.00, -1.00, 366.2, 42.4)">z</text><text xml:space="preserve" font-family="GillSans,Gill Sans" font-size="58.0" fill="#FFFFFF" transform="matrix(1.00, 0.00, -0.00, -1.00, 390.3, 42.4)">e</text><text xml:space="preserve" font-family="GillSans,Gill Sans" font-size="58.0" fill="#FFFFFF" transform="matrix(1.00, 0.00, -0.00, -1.00, 418.1, 42.4)">d</text><text xml:space="preserve" font-family="GillSans,Gill Sans" font-size="58.0" fill="#FFFFFF" transform="matrix(1.00, 0.00, -0.00, -1.00, 447.7, 42.4)"> </text><text xml:space="preserve" font-family="GillSans,Gill Sans" font-size="58.0" fill="#FFFFFF" transform="matrix(1.00, 0.00, -0.00, -1.00, 463.8, 42.4)">C</text><text xml:space="preserve" font-family="GillSans,Gill Sans" font-size="58.0" fill="#FFFFFF" transform="matrix(1.00, 0.00, -0.00, -1.00, 504.9, 42.4)">o</text><text xml:space="preserve" font-family="GillSans,Gill Sans" font-size="58.0" fill="#FFFFFF" transform="matrix(1.00, 0.00, -0.00, -1.00, 536.8, 42.4)">d</text><text xml:space="preserve" font-family="GillSans,Gill Sans" font-size="58.0" fill="#FFFFFF" transform="matrix(1.00, 0.00, -0.00, -1.00, 566.4, 42.4)">e</text></g></g></g></svg>